<mxfile host="app.diagrams.net" modified="2024-03-27T19:30:19.155Z" agent="Mozilla/5.0 (Macintosh; Intel Mac OS X 10_15_7) AppleWebKit/605.1.15 (KHTML, like Gecko) Version/17.3.1 Safari/605.1.15" etag="bY5iQaPB1jfknT2dW9My" version="24.2.0" type="device">
  <diagram name="Seite-1" id="onjBJ4p3n_LceVHzCc9m">
    <mxGraphModel dx="934" dy="1633" grid="1" gridSize="10" guides="1" tooltips="1" connect="1" arrows="1" fold="1" page="1" pageScale="1" pageWidth="827" pageHeight="1169" math="0" shadow="0">
      <root>
        <mxCell id="0" />
        <mxCell id="1" parent="0" />
        <mxCell id="kMgDOZqCUU3ec5CZU187-1" value="" style="verticalLabelPosition=bottom;verticalAlign=top;html=1;shadow=0;dashed=0;strokeWidth=1;shape=mxgraph.android.phone2;aspect=fixed;strokeColor=#4D4D4D;" parent="1" vertex="1">
          <mxGeometry x="150" y="-290" width="310" height="604.49" as="geometry" />
        </mxCell>
        <mxCell id="kMgDOZqCUU3ec5CZU187-2" value="&lt;b&gt;&lt;font style=&quot;font-size: 18px;&quot;&gt;All Decks&lt;/font&gt;&lt;/b&gt;" style="text;html=1;align=center;verticalAlign=middle;whiteSpace=wrap;rounded=0;" parent="1" vertex="1">
          <mxGeometry x="170" y="-220" width="270" height="30" as="geometry" />
        </mxCell>
        <mxCell id="kMgDOZqCUU3ec5CZU187-3" value="" style="group" parent="1" vertex="1" connectable="0">
          <mxGeometry x="170" y="-180" width="308" height="377" as="geometry" />
        </mxCell>
        <mxCell id="kMgDOZqCUU3ec5CZU187-4" value="" style="group" parent="kMgDOZqCUU3ec5CZU187-3" vertex="1" connectable="0">
          <mxGeometry width="130" height="70" as="geometry" />
        </mxCell>
        <mxCell id="kMgDOZqCUU3ec5CZU187-5" value="" style="rounded=1;whiteSpace=wrap;html=1;" parent="kMgDOZqCUU3ec5CZU187-4" vertex="1">
          <mxGeometry width="130" height="60" as="geometry" />
        </mxCell>
        <mxCell id="kMgDOZqCUU3ec5CZU187-6" value="&lt;font style=&quot;font-size: 8px;&quot;&gt;112 cards&lt;/font&gt;" style="text;html=1;align=center;verticalAlign=middle;whiteSpace=wrap;rounded=0;" parent="kMgDOZqCUU3ec5CZU187-4" vertex="1">
          <mxGeometry x="85" y="33" width="40" height="20" as="geometry" />
        </mxCell>
        <mxCell id="kMgDOZqCUU3ec5CZU187-7" value="&lt;b&gt;Programmieren&lt;/b&gt;" style="text;html=1;align=center;verticalAlign=middle;whiteSpace=wrap;rounded=0;" parent="kMgDOZqCUU3ec5CZU187-4" vertex="1">
          <mxGeometry x="35" y="5" width="90" height="17" as="geometry" />
        </mxCell>
        <mxCell id="kMgDOZqCUU3ec5CZU187-8" value="" style="shape=image;verticalLabelPosition=bottom;labelBackgroundColor=default;verticalAlign=top;aspect=fixed;imageAspect=0;image=data:image/png,iVBORw0KGgoAAAANSUhEUgAAAOcAAADMCAYAAACIn7TVAAAAAXNSR0IArs4c6QAAAARnQU1BAACxjwv8YQUAAAAJcEhZcwAAFxEAABcRAcom8z8AACuASURBVHhe7X0JfF1VnX9lFkcdRR1XZnSGPzgzIiJaR0tJ3n3vpaUVKiBQGRBUtpEiiqwCRYoU2VGLAgXqMFIEmuae85KWsillE1qa5J77WgoUpELZyk4LpbS0+X+/553zEtJbmibv3XuSnO/n8yVJecvv/s5vO/sIj8GLUffNet/ojtJ2hUh8uxDLaQUlLgMnBR2tOzYtFf9kXubh4ZEWmmL5xWJcOq6gZCmnxFNwzC78rdkEBkq+BXbAUc/PdYZjR7Zf+XfmrR4eHvVAU1nslldyKpxx2dhya9cY0DolHdTSOilfg7/X5GN5Q06F320oz/2I+SgPD4+BYkpX1za5KPxWoMRNeSWeoEOSPZ3x3WidlNm0qOT9yLrHNHTO+rj5eA8Pj61FEMkPsy8Jh7wd5ekqmymTHLAvZDblZ+DnOmTfpcimp49eJHYwX+fh4bElwCn/LR+L78Ep7y6o0gZmPjLJ4fpDW/LqUljJFfi3s4rl1l18v9TDYzPIdYjdgig8qxCLznc4UIKD1YL8bJLZGFn0+SZVuhpBYZ+JS5r/3ojk4TG8gUyZh1P+mllsoKVrf0kn3QPfq0d5YxkWVenoYEnzp4yIHh7DBzshOzUpMQF9v9uKSj5Lh6xl6dpf2kxajOX6IBZLAiVO9fOlHsMChY6Wf4XhHwmHvAsl5OuuOGVvVstdJTfAQR9mZsfPBt8v9Rhy4IALDPx4lIuP0fDr3Z+sFa2sJJxzLVcgFWPxDT9f6jGowfnJoLNlDPqSv0UG+ourWbKvtNm0EIv1yPpt6Ct/f9SSWR81j+vh4T6C5df8QxCHB8CIW2DUz3OgZTA7ZW/SSfXKIyU2croHPAHP+y/m8T083MOY9uZtYbwHV+YnxarBnim3RJtJ2S8FHwIvzHWIz/upGA8nMLGr+W8KZTkSznhqoKRiyWf7aEkGPRRp+6X8ib+fAWcWIrGHH+X1yAQctSzEpVxjJC7lQIl1SGOgw5J89l6OenOx3DqRW9qM2jw86ocJ7W3vDyJxFDLlbGTKF1nWDWeH3BypE6ubJlW6GwHstMZF4aeNGj08agdkgE8WlPwReGc+lm9zQGQ4la79JZ3T6iofi07o7txiZ2kno1YPj/5j9/bmzyLqsz/5GFfN+EzZP/bMpNDnc3klrg4iuStHto2qPTz6hsY4/EpTLH+OaL9cl2agd8qB0+qSDGL5KroH18BZJ4xV4SeM6j08EtDV9Z7GuCWHPuXFjO420nunrA+pV+qYv+eVvK1QLh02pnPO50xreHiYkVclD0WWFPjpzCL04ULrpDqrqpLCv13i+6XDHDyqAxnyaDjlHTCINX6QJ1taJ2UboE0eR9tML6iwOLK97f2myTyGMsYvm/feXCy/WIjFxciSPAVgne0D9TYWz+zI9qCzFlVpNRx1fj4K9/LnHg1R6PWuKhxf4Cihki9ah6QBJBmHZ/bUzmnaKa/ERmTSu9B+k3iMi2lWj8GMiUvm/2MQiYmIwNdzl7/t2yQZg6e7ZJux7ch8LBei6jmpELV+wTSzx2ACS6BiLH+io63pT3qnHBqsjg0o+VAQhTPQTWk0ze7hKjjqymsI0EeZDHI1il/JM0RpMynbNojlSgRhgX87YC+/CdwtjFW3foAnoRdiMR18gQ3n+5PDh2zrSnvL9Wj/Tm4CH7Ok7bPGPDyyQKNq3b6gxOF5Ja9HibPaOqR3yuHJnkE50PfEyJ/5kjdlNC6Wn4FDngjHXMTSxvcnPXuTTsoTKNC1Wam39UUyb8zHox5o6Jy1E5R9RUGVymwAOmbvRvH07Ek6Ke0EwfsZ9Etbc3G4NzfIG5PyGAg4P4nI97V8jOgXi6d6KDuxMTw9k2jtht0f9EtvQYD/rt9f2k/wVLdc1FIoKvm/cMo3qFzSO6XnQGjtiL/z0Gx2j3hsKTc9GNPz2BzYnwwicSyUN4dO6bOkZz1Im7KOmlfiSfx9eaEs9/ROmoBcZ8vn0B84PYjlQirMD/J4pkXaW2XwSLwG+5vFkndke/O2xjSHJ/Qi9M6WPakQlBd/oaJ8pvTMinRS3S+N5RpwMfqmJw+7xfZjOkrbFZTYL1DiJlu6eqf0dIW0Q9ojEoY+j7cYy58G5Zb/HNKjvFw0AIecxFUcVAAjlXdIT1dpbbSSTcUrQSSmceZgSPVLzfzk6UUlF3mn9ByMpL3qbBqLp8FrkVH3D+bP/1tj4oMMXVO2aeyUo3MqvLCg5NIe9byn56Al7ZiDlWa+tAVOesSgOdl+/LJ5Hyqq0n/nlLgXD/O8jTg+U3oOJdpkk1diLY9N1feXutovpWA8PQ0R5c4glm9TeF++eg510r6tnXO+FP92ydjFrbuPum/W+4xrZAde4oPUPhUO+VfvkJ7DlbR5spJN5VtBLH7PacLRD5U+aFwlPRTi0t4FJa5B3f04BaJTJgnt6TncWHXSynzpzfk4/CGvhzSuUx9w0QBPQUP6lhxaZseYQvQWztPTs+Kk9BFk0g25KFyAnyfW/JJhrpLABx+Yj8UdRSVX2fI1SSBPT893skcmfRtJbTkqzgsCFe7MZGdcbOvBi2bwgafgAxfwS7xTenr2n3RS60OoPl+GX80IOlvG8Owr43JbBjMlPPukoiqtYFrmh/GDk77Q09Nz62lL3kBPxYjpeVX6unG/zSPXGY7Fi+/yWdLTs/60JS9nO9BtnLzZUrcQiW8XlHyWHu0zpadneqSD0udQ7v5qk4UMxVg2ct2gH3319MyGtlrlYejGLc1hzErc5B3T0zNbmhL3kSYl/l07ZyEu5QpKbEx6saenZ7qkg7L/qZ0Tv1zkB388Pd0gfZHZM2hv+9gIdEL1ObCenp5ukINDxXLr2BFBJDYkvcDT0zMbVkZuwx+jz5n8Ak9Pz2xI5wyUOHoE/vNE0gs8PT3Tp11jkOsQu3FA6Fr7D56entmSA0J5JZ8NljR/is65j3dOT083WNlmJmbrpXx7P1T6IP7xXv5j7xd6enqmRybJoiq9VYjFQXqekyiWWycina7x852entmQjql3qkTiRh6UZ1yzctVeLhJnc9e2d1BPz3RJx+TKIJ5aOVa1bm/cshv6GJJYTAZf4wt9P9TTs/5kMjTl7E28FcG4YzKalJjA0w/4Jt8P9fSsD+lfZh3tUwUlfrFXee5HjAu+O3ZT4SfwAWfBoyN+iC91PT1rR5P0XgNn6vtX+oPCYrED+qFT87F8xpe6np79J33HlrAFJUv6st5aIKdmf5mpF066kk7qM6mnZ9/Y0ymLSt7FE0eCSH7YuFaN0NX1nsLi8Etw0ssCJV/0TurpuXnSGekj+H1doMKFTeXSd0YtmfVR4031AzdooyMreI4t62edqhME9PQcjuzuAooIyWwSF/oY10kPXLzAE+B5eZGJEp6ew5asJHU1qcQi+MWZen1sltDzo0oeCIH+2LO+ThLe03Mo0paw8IO/BFF4/BbnK9MGp1+CSBwVxGKJjSDeST2HMq2dI0u+DFu/iFdhGndwEyh1P4la+4wAUcRGlKQH8/QcrOx2Svkid5AESjTwNnfjAu5jzJK2zxZVaQpTPR2UD5P0oJ6eg4l6AYGSbwaxnJWPZZMx98GJoGP2V/FQ0xhlukexkh/c09NVMrnQdmHH88ADnbxivr/IRy27oz86gwvr7YMmKcHT0xXSRm0Jy7GUxij8QSpzlVmAW9OaVImrja4GV/ly19NFWqcsKrkxp4QK4vDIml986yqmdHVtw7sJdYngt6h5OkRri7kofDhQ4tT/Wij+yZjtMEPXlG0QkQ6AIv7ISEXFJCnM07PetPZXVKXHgij8eaGj5V+NlQ5vsI5HFj0CvK1aUoBJSvT0rCVpZ3RK7rxCV+uCxjj8ijFLj54Yy32kSv4Ipe7j3kk960lrX0gIq8GrCmU50pihx7uhcbH8DJz0Z3klnqACySQFe3puLWlLpnxdjWx5w5i4ddROS5r/3pieR18RqHBndMqno9x4kpO/3kk9+0tmStoQqrLXYU+3I1vub8zMYyAoLJajodBr/BY1z/7QjsCiGqNTHnjAk7PeZ0zLoybgZu9I7EEnLcRifVXhCY3h6Wn7lKbauhd2c3jT0uE6LZISuJAhiMRERMD70Gd4m8r3TuppaZ2SP7n5AtnypMz3VdYLo+6b9b7RD5U+SOr7GxzBmPbmbRkN0QAdbAifST27M6VYjuA9lZsvjLk4gbHq1g9w2pC+1O9dLBPa296fL4sAmen0Yix/DyeYza0xeOgZ+H1SEMldzUszR+Oi8NOBCjmyG3c3TnLjeQ5Nss3NYM9TjZG4tKFz1k7GPDIHS2kEinHwm/ORxa+DT91MXwJ/mVPhd4OO1h3NS7cA9uticRAcMgzMsrqepAL4E695HB9+ZWOnHG3emTn4kHRS3jdKGX0WHfq0FRN+XwN7vFrvq3QEzNpwxFMg4y1wytXWdxhIrC+ZLN/JZYIj2//wMfPWTcG+HLz7AnzYmi2NiNpIhdc/yfeMXyx2MB+TOXiMp95HGstnKCfpHXVoke2pDVuJjfj7Bg4UurKF62sLZn4IznY07O8B64TvZn98DRkgIXJ+33xMD6D+Zdq1xpz0IUmsvh5Oisg1ZXRHaTvziZkj1yE+j4j1Wyhp5dY+l6eb7HZKvdn5T0Ulv8l+nGnyTEE5kAWP4i4WlLFv0eH6mhT4Ojox3jeP3TTzkRWgHByPF/XrCsCqwvA7V/LDSU/gSfHmo7MFynQuZMBDXwW+1F1KJD+Lp7uksRdUaQNv4sp1thzMgUrTypmCB0QjU05Af7fNnkLZV6fsSeug+P2Ske1X/p3+cJYDyC5z9MMnvKmv5IeT/BwI+mA+kj9Ax/zj+kscQD4K9+Ldh3jWVwf6rJ7pkcGURLstRPsdy1F606SZQx8goESrlbM/TtmTOnGo0ktw+HzlC2KxD7LKhqQX95fd2UnMR8l7uDNHOiCTNtJJY3krFVkLhXrWhzbQ4/dlhbh0vEtbuBrjlhwqxGsgW83vEKqUt+KaHZdNey+d89puZ6odKbCpo99iyufVgiOa3XBSc4znIei73O+d1C2yLbQ9KrkCbTLZpeMmOWCDfu5U2PPTdMp6+U2ALpg+eQG/PJb0olqxavyqtBolQDOvcnBlFwAnhCHX0TwfhiN/tY6Cnn2ndUpUNSvRFpfBTv7DNFPmoKMUY/lTVILLrT0nPUOtyO9gN2xEWsZoHwpR5zX0H67glId59szBfaQIHKdBzsXWSHrL71kfUtemlHuOA3fFuM2Zzc50yiAKf8IRWMqaVvCufEfp+BFJ/7Oe5BfrUSmULXDS05vKLf/P6CJzUBaUu7/gURWUMa3ANRxp7QDB+nX8fQNswZkzYLlCrshuTyzvteVrmrbA7+Ksxwj8p5z0gnqzO0OJKBeJyUF72+ZXSKQMXnWIKP4b6EafEOidtHakLm1lAh3P4zREdeogY+iD52JxEOS6jWMlbPve8tebVj9NqnX8CE7UZ2V8/F5r/FzAXijL/+EKC6OrTBHMn/+3KGtGccAMTrrWO+nAaI0OGfJtOOSfeYmsK2fAckOHvdaSmTzLqkn7AvrdekCosbJHcmOWhmcbDp3u9bkobC9GpW+5Mp/FqJ4vh9/JqfBOyLnFpY2em9IGNhh+xPlvvSvDBTQ3/02Dmv1145Rv6IyVcdtWSn15BbM4jK/t/RCsjf+Y9OI0aZ2Uv1NhQST31fM9DoCZFDJ9D1n0bsrnnXTLZFtqx1TyYejOqa4LFxCgavx1oEJnbiDQZbQSL79jQ0lelb4O4fSEatKb0iYVVZFFrEcJ9Af2S4yomYNbgALVcijknEtZXWlYl9jdfnIZ+m5Tc7H8olFf5iiWW3dBgP0VbOsFlwIs7aiSmMQZm+z1rGQFty4bso0MuV7KRWJ2dVmTA9Bn7UJnUGYn5fRO2m1g6AK8iAxwQSFq/YJRV+bYvTP8EsrFyyHnMtpUxRGSnyNtWtthObvZkr/S/5TtVslJH5QFKQsVigyq58IaeMZoV9d7jNiZgveRQqYjOOpsg8lwc1LbPtDBKzQwjna70j48ogQynQJqp6zImfwcadPaSxDLV4NInLzFxfzcJIqodzXe+IprhmaDBjeCI4ick+ts+ZwRO3PsgUyK/ss53JnTbazJzzFUaI2LFRcMbBb7cUYdmaN6jE0sHqScbBMXbRkBbcFWd9tQsu2D2vx22wBJX5AV7YNBxgcRcc7o+1EP9cfoRWIHROnzCqo0ZM/atTaBn+vQBgJBck/z+JnDHgDXpEqSsxDUv2tOWQlo4gneycLKy4i+dRjfOe/jQRweich4n31I1x60Msqsj3o4mnvrjOiZg4NsMNxLWbK4ZiD9JZ+Bz0Kjx99zOVfp0hmwHJOAjLNgD+tdG02v6g6lP/R3WTESXzNiDwzFaM4/51X4Y9btvLPQNWOrRHG5Ho6wUO8jLc/9iBE9W3RN2UYP2ceihQYzWJ3UGhaC9AYY1iLu6GEZb54yc/DQcch0I7LRcyajJz5HFqTeKk4p14Azcx1it7psoeQRCkjDx0IJZX6hS+UuG8TIsw5Z9I5GJfd3ZbKbc8mFuLQ3rzpEX/lN1wzo3ViVVcl2BMDvOzNXicDHKRoEjAuRNFZSTuMETtD6B3T3Ciqoa2GTDSy5jfT1w7il4ad1v8rs4jBO4QRpSJQJ8uFv0cL+kCvn7fKcGZRe34dcC3oEEydJHZKBkgrGNdmlTMnzoQIVXmC7DGTSM2RB266wv1et/Rmx0wVHS1HmcBfHChdrfKOkNYj61xVj8Q0jdubgFjXIdQrkWkoZXTOuSj++tBKZ8rxxkfw3I3bm0PYWy7OQLZe66pT8iWDWBu5jxM4WQcfsr6LmvxiR4gUqzDUn3YPGpsTLcIgr9BypI+Dhx8ZJH8ra2Kgn/f1KrAKvZt/IiJk5OC0CPR3D7hQdgEx6hixY1Rt+Rya/lYNkLp1zVAFPuoOTQsiZiBpv2CjS80GypDV+yPY0eOnu7c3OHNXfqFq3h/Gdy0UWVs6kZ6gH2Uba2NEXhl4ET/p3qRuQj8Mfcq4Ssq5z0ilVaUMRwbVQLh3myi6bzUIvEI/CvVB63IZIt9a1crfqpEr+BfJNcek4DA5wBFE4A+XkCzTEejop24Rtg6DwNv6+p1iW+7pyfIxe1aPk/shEf8LPDa4Fets2XHCCavFkjsEY0QcHzAnyh8PQ/gQl6/M8kx40C7Khq5EvFsubUDK5dLobTzBHFr0OhlmXtc62LRDx7+Lou1Oj2igLETDvse3jklNSHm0zKK/RNlMDh/rj/YI+np4jlEreX324hAfPilYmZJCFUPq731mRMnKd4VgEtpAGWgsntc+Kz4kao/CHrtxXyWoL9nEoWApMpkySPyt261++gIB2oUvVVk3APh6ywSR26vmwxkgSlZEFqXzKxE3VKC0PYxQ3omeKke3N2yK47Qvd3UQ5t1ZvVtckgs+jgQpPcuZEfqBQliNhE7y1/E1XV/UgS/L6h99x1ZcRe2hCHzOoSmfSUOzDJykmC1p5aChokPvB/V059p8VSI4LuSMRQ9Y1fcmk1imRjV5EVvq1S4epjVVzdoZM10HO562cveXPitQr9ZuvHD52MwLaeJfupq079EIGJeikzi0Qt40TxOINNNC1XB5mxM4c7B+yBGSGh6zrqDuS8lravzkyjYx7Jcrj/zJvzxwNCBBo9xMge3Vf5ZaCTJqk7mCTGyHj3VxA78pB6JmApQJLBijEuZPuuiOofBW/n40IurMRO3Ow7GYmRZa/ioZUiEUnGIELoEsJmc/LxbLRvDxzcL0z5JqEqklZp0zSeVasBgpV+jOc8lhXDppzAighx8GwWvBzg2vRlPJUGk4+BLkucm1AQN/u3dG6I1fQsG/vUgmmb3aO5TGcFrHBLknHWZDyWJl4VjEzuj71zmNTwKg+RCdFOdZWjKXexUEmKTYL2uiKPpyeIx1081spgnOmMPQDmNU5l8py0ZWASzl0sK205WMcJHNpT7DTYMnWpOT+6FvdyU65jmwONiz+XoxgcoTzK0NSxEQ4JVcZQTc3Q0f6zldX2o6kPJUAK54AL3BpfntQgeUZSt2D4KDz2cCulURsZPP7rbkodOas3awAY29Ae03n+IGLTsnsDVt6CvJdMKZzjjNH3PQL+jyhxXI0S82gs2XM2EjumkV/hoMJZh/p3T2dwgXaoMGfORWWYKATXDncKi1Urq8Qv4RjOnfulG0f2PBL4FXoLmUySMbjSPTac/gTz6VtUqUvb/XKLPYVmuLW7yHCCCi7E1HmSc6Tod/wPH5/FD+53vE3TUr8u3lLahjdUdoOyj4OhlCdI3XFEKwR4Cc31wqXDruqF7h8Dc8+DXTuuElrH7CVjYW4dCNLbSN2amAiQzD4PvzlevjNQtjF4+iqrYBM9KnH4KB305e48cG8ZfPgKCSPe8CD6WsHrMJ70v47HHc5vuicLCa2d0M/AQ81NYjlSitXUgNlQcpC/VA26PFyroBx5aKeWoEVFezkDA6M8Vkr9pCsj7RJp9TyKLk2F4lbckp+M1jS/I9G9FSgt7gpeSCqqLvsyifS2qql9SU4bZSLw73N2zdFMSoV8EB68y8fMOnBLfn/+eH6dZWr/E7JomPNQ4uLqnQZZKrbTcP9pW2AIBavI1Je7dIcaX/BNkZQhlOKJ95hAwnPnwW1oSv5Fmzyfl7hl8qxID3AMpULF/T3m9mGvvoSqtKX8d6jNukSsTxBFFT05KQP2Bz5wSSVggaLOSSdRSZtKovd4ACzoRRn12eaIHYu+h67GLEHDbR9ROJY2ogN3i7pmPo1Om7naZFpD8zpfafIlHCw2WjjfgUtk1xegX1MNB87YgRPAsP/nLa1jtmbFIhfoBWkxNFpK4hRkreTIbK3oKTUW9RcMyAdxGL5CAz9ZJaGRnRnoc+ARVvC4B4wxpP4bFmR7Wt0+lc4xml96rvVGLmopcCrQijLQBMD3w8nX1qtQnlUBk9Qr5UhU1lozLfhJAvwRUekvYFXLxDXewKls3sCjTycI70Q+v+4Ed0ZMGBzm59dv8s27fkMWZM6JOGUryIZ/DanZn/ZiJ4aOJaAwHUdvv9Z6qfG/vPTypcg4tQ6IlJQHdGUWIu/5/JkhLR3d3D6BRnqEJS7i6w8veXMilYe/mRWyqIUSwIDKUc10Y//A4zOuSM8aaeVdhSvwLaupFOmPdhm+t0n52OxnJmu1r7D50PQvk9Ps+SUuLdeDcDPpfAwQB7bf62eXuh9vVmdwSMvYGxn4vsf5IPXWpkDodVP5W9xC+eSs1oXy8E1yDCdTkmZXHJKyqJLPn1HjpDchG7ETg278cREJU/kCDX1Uy874rNyEFGv38Y/rOv9glqTX0jHQLR7DpzeGLfkzDOnBq6dhPFdjAZ+eqB9g1rT6geGtwrO8X+BCsfzdAAjel1RWUAgp9ppERf1UnEEcQv0s1/aCzy4lLQxCr8DWW6lPPVyyp7k97BbMSLNxuCDGcd4Boo+P4uRXZSQo/jddFIXjZH6gSG+gn7zDcW47StG7JpjTEdpOwSBn3GAqtsBkuVKm9RDD3luRsA6NIsrNoqcI1VCIHhtqLTLprLWg9om0d1En1OuTnpBPWmdAv3BR/H3zxsXy88YfaSGcSjjYAAz8P16cbZLxlmVR8kV+HtaLVdjccCMAw6Vk+MqbdHzu7OkdUoOKCJoLIRTHJj2OUesWFjZQfclyJPJckR+n55S4YBE0gvqTdsQ/AknLUOOY9IeueRgwhjV1oAoNRv90tWMjk46qV72JU7lfKMRfauhr8uvTJDfic/a6FLVQDls9kZ53VGM5A9SHyBDucybv4qx/B1Hga08SfLWk5U2Eet1n7NJtZ6WZfTs6aQ0HBjgvpzUNSpLBXqutzL9MoeDDq4ZbtVJ9drm8IdcvmhE3yI4So7MOwFZ6LZ36Drhu7KgfTbIFEH3Z/NGOyN6auDCEI5HsIrMWj8VXxQL9uZoLSdug1g8pRs/4cVpUgvGw7ViIbhRN+3OP0sa9jMgy1w2kEtOSnYbjlgAHR03YQsnBHJdKasCVCZrXXsWq19WBez7js1gAYF1Sp6C4IJ+9PfrE+RLRxsRucpBTK4oKvlNaZIC6kEjlJn4e2YWuwm4eTpQLYfi+++hTFlH0960hoSuwM2cQ+49PYXqY1cY3QwEmpfNAFzi52RB6pLyI5O/iMBxPkeLjdipgbubELCmQJ5lLnVlKEugxB3vKOm/Xr7+k/ifc11qSCqMZCMis/8e0XXntKYXLBBZP4k+yE8gzzKO2LnkpJSDRs7+EWSbB2c8qHINhrgGfz9r9Zf03ixo5ckp8Spk/p0eiU65MuKYBvTE3TSPWf0lyZoFdcBVpRWc6zbidoMHQ3GEii9ysVGh0Jeg0EubOttSP+ZRH6AViZNzUajLH5cataqfypLJ9TQ6l9qP8lQqIck53Ou4SSH1hShx+C/I0oeD+tJnknIlyZs2rX7Qdssh335G5E3BC1IRdae6OgdImSDfS8ii5/DSHyN2ati9M/wSZJkG/TzlUpVBUhaX5CF1e3FaRImbOFKctlOaLVyHQIaFrjklaYL8Oth0M+ffjdjvDi6zgyffyA9w7YEoj34oXrvGhQwZnMigj25hf9jBgRYXaB0BOnqgoErf3erjOAYIHjLGFTbsk0Me5xbu01603Sj5MOXc6u4ad4/nOlsO5mQwP8zFqEOiP/ogAsnJaa8g4RRFQYVFHcQcXCSeNq2NaDuB0cExjkn9DlT0YRk4YbOzIINze3utfpBUXkZg/+XoeNbAzj/m5DWM7yQ4wRIo3Kl9kpSD8qAs2AAn6eR5LVk4qZ5H5MjuMHVSPrMxuifRBudlsVd1TLn0VXQ3roUdvFJ1ggRZs6CVJ6icxXWD7nfX8poHGj28/QR8+OJqYyQIkgXf4aRK3M79nGkfUbHjsmnvZYkCee6hbiqd/GR5hwp7POfTsI1fZXESPucq8d1TEBj1vkrX7NLo5zVm87pfj8Ej/3MqvBDKWOHioAgbiCOXgRLXZbL7pb3tY3kV/hj6uZOG4pKx1IrW6OAUz6F8vCqLuWi9cD8Kj4csel+lS3ZI0g75E5XE3Fzau2l4cxWy6BXce0YDdNFJOeqMbHoVzws1YqcG7iNFFp+EMiuyTuqaAW0tKT+fA065Cs81PdeB8ixljFXhJ/DdJ8PoF1Aml4Kf1Q9/ImjpQ8Yy20TPheONcfgVljSch7RGmCR4FqSDWicNIjGtIYORXc6xIYtPQpBY2rPxkuR1lZS5UpGI1xGQZzZELbunffwM91XS2OGYC6g/l7JltV2V3IiK6f5CuXQY58aN6NliSlfXNlzRDyedDQFfZkO6ZIDWIWBc7BudSYcxoqcGNhYy6QUwrscpD5kkq0u0Rofg9hr+noMAMy7tvjw3QcCmvllUpTvx/W/Ztuwta1a0ts7gi8B1Shb7TvsMLiFDjT0XhrjRxeimnUKJRcikx2YR3XgiA4z9IjTkShf7SpY0Ou2YStwOw9vfiJ8aWJUVY/ENZKLrOIbgmlNSnkpVJh9hwN9zydxPGdHdBksQrsyAYksod528b1NHPCXvQiY7KotbwjhHCjlmwvBXu1Rp2LaC0S3kuuIsTgdEN6CBTslM6VoAo35I7ZSxODuLhfs1ATvDjLpQ9p+pYNvwSQ+dBdnwkG8D+wkodY9Mux/Fw7wCFY5nd4DyZKUf2zYkqopHIc8JwQA2dvcXhbiU4yg72mOFSwGLpG5MplwZROFZxc7STkbswQ1OL3CPGh5yMRXukuKtPDCItTDM2xEN90n7ynGuxiqW5b6Q4U5kq/Vp6sc6JfvjXLNcWCx2MGKlAgbE3aPZX4DRX85J+mqQSJA1C1qnRCX4EuzjsizWdKeCUdGsf9YDMko8XHWKBIVkQcrDhoCRvI1G+CMy6ri0j6ncqzz3I5DjOASIznrrxxqdyQQzuAfUiJEaOGcOW5gOGV511SkRLF9A0OTVjg1G7KENnroH458KJeir49LKEn2hdVJkkjfgpNcUy62pn5HKfaQo8Y6HQcTUTy2Ntur0Sr7JVStN5dKm+wfrDGZntP+JCNTVLVxJsmbFqn4icSO7HWnvpnEC7EwzckIhzl1PTlnMYMQrMKJfZrGQgQujYSBncPploEGM77VOgMzcBr1PyGJaJF8Ov4PytYO61U7QS86saPVDQj/zUUnsyyWZRvThCT1kXrl+sAQj7NO1aWmS8tCI4KBPwFEuzmKLGqL3zij9qquxyCRZk2iNjhPkyJQL8W8HZ7E5AOXhkciW98Hw3xhooKklezolgyAHw3gyiBHdg9CTzbwlrNLfc2oIvWrgIIyLO9Z/kfaB2AxiXC4HA7rRLvR4NyelrFUdmqNH0z4DlgNrjZHYQwdeVXprSzKnTSsP7O0hyHhSFucnDypwY24+kj+A8u6BUenzVXsrNStaJ9UNGstHCmX5P+wfGtFTA4xpHBy0GYFCn5poS0SSv5PsM0NGZsqzuM7XvDU1cDE82k9Sb5RRB4le+syKlKdiV+LxIAovyeLqwEGNke3N26JxuSa1w0a4JEVnxarBKXE750jHL5uX6vQLoecFo/DndFQthxJ/Bm9CFvgt9HYgF4mbl6YGHrdR+X7xHNvNJaekLAxcCGqvQT9XcfOGEdujP6iM7IU/hkL19IJLUdg2Nn+HfPNhmAekvZCB4MAOV/KwLAsi+WHzz6mC7YTAcD775tSJS8HU2g0ccjWqicv1FreUT/4b0tBnjfKODyX+6qKT6jJJiVVcVwwHyad9jGdWYD8WDnkmSsTlVT0k6CgLVp2yMi0mETwa2Hc3onvUGswONIYgEvrKOpeMgYZAor/3Gks73nlpxB5y4GZnjsDCKZ3br0o5mL1R7r+JgD6Hc5VZVDTDFrkO8XmUKb8BtZPSOJIaKgvaiI3fedXhLwbt4ugE6ExZ5n2VcoFrTklWgrVYD73/Ef3xw3ymzBBcHEAn5egkG8YlQ6HhapmU5FWHlwTllv80Yg86cMBL9/3NhUguVSykDRRwzPmoqg7RFwF5OAB07tnPQyl5HRrKudVGNGQSfZ6HYdxT015cPhDwDFjIvD+6EndTp7pcdES3lMO2daCkYpntzAkEHu8EV6Kgj9HEaYUmVXJqnyRZlUfJFflYTN4tg6mOvoIjwIW4tDf0eQ8vlXJVl9Aj7y49bdxS75SDAoz2Yxa37scSDHR2tRFK8QdzSpzQkMH1+5sDA1ylChHXwDHXuOaU1B1l4pQN91WOXjR4qhCPHuCJDDD+w9Go91qn6N3YWdHKQ+qSTJX+m/s6jeiZQG9EiOXvOKDimlNSFu2UsXwV3YPpfgHBEAH3kQaROBnZ4EmbtZIMICvS6OgQMLybUaZ9L+19pMiUu0I35+P7H3HRKdlmkI199la9hctj6GHMYvF5NPglaOjnbdbqbQxZkUZoyu81cNQWlOPjeB2+Eb0u4PI+BK1j2W+jU1aCRLJ8adM6JQ/3gnx38KSIrFY/eaQEGjwvboUB3FBQpZfczRTidY4+81zgrhovNdPHxsSl42D4jxRj6dw2PbYJAiicUj7Aucq0j43xcADMTnklpGuDRiRl0ZlMyWfhqBfV4uwazlUGsTiIc4G2cnDNKSvPLMo8CYKbH4zoHsMRXNYFwziYpaTLAyH4fRn6XJOY9YzoW4WcPgNWyB6f5wwZJCp6l0sQLKfwbCEjtofHiBG7qGs/gD7NvswqNBgasWtZhYMiyPL3g0f09YiRhvLsXVAazmAJ72J1QMdE0HgZjnneYF5B5ZECmJmCSEyE8dzcHdHdMGjKoZ1UibXc/YIMs+fmFnR/Tc3aviEKz0UZ+xTfo50g4TOzoNVrpWSX545Vc3b2W7g8+gyOZKKvdzaX3FWNKcHQsqDNODDsdXDUq1kG8pgXfdJ+JbgcYuUmXQkuVo/I/C9xBDYXhd8y6vbw2HroLWo8dj8Wzt0DaTMpysJHYfDXw1lnBrG8NVBuXviDn2sQTGY3RuFeaZ/85zGEwRUpcNDpMK5VNDSXDN9mJEtXZKMcNkggeMxDKb6fd0qPukDPkfIYz1je4GJ2coU9nZJLE3kQWn9HmT08tgrs2/HIR5ZoMMbXXcukWbJbFyIqxvInWZxO6OGhz5ItROLbHNxA2baBhplksMOBzJTsk8MpHy+q0hQeY2LU5OGRHbjmM1DhjwpKLqWD0lCTDHgoklmSTokA9Qae//9Qwo40avHwcAc80AtOehLXrNo+11Atd/lclUpBrMffMxtVy7hheeGPx+ACN09zC1YQiZV00qGUSemUJvBwjvVu7hZhH9w8uofHIACySCEu/QfKvUuRSVcO9nKXTmnneQPeVF5unZj15nAPjwEDxtzA7V8w8uddW8jQF9oR2GIsF+RjecoYv1vEY6gh1xmORR/tRm4gtgaf5AyukPJRTr3vU8kT/cl2HkMalRMCxT7Ipjehz7bRDhwlOUcWpCy2n5xX8ln821m7R7OH7Mn1Hh6bgNMvuc6WgwMlO+AE+u7KrJ3UOiW3cCFw/CpQ4c5GXA+P4Qd9H6mSR6Av94AtI5Mcp56kQ/J7kdGfhlNe7U+28/DogT2WzPooSt1TkbXKdBSdwRIcqZZkMNADVEquwnf/obBYjjbieHh49AZPA+AcKZznmXqVujZDcz8oB6gKZbnncLmy0MNjwMip2V9GRrsQDvR8rTJp1SnRx0UJK7RT+rlKD49+oGvKNrxFDY51w0DvK+l+r1iAzLwfT04w3+Lh4TEQmHON7mUG3ZqFDPb1+P3pQIXn8Hp685EeHh61gj7XSIkT9JpWON3mMin/reqUSj4bKDE9XxaB+RgPD496YXRHaTte0IS+4zw432o6Ih2yJ4MofBL/79dBHI4yb/Pw8EgL7DeOVa3bc1kgt6rlYzEZ/cnDG+OWHB3YvMxjUGLEiP8Pe3BHzU8oDrgAAAAASUVORK5CYII=;" parent="kMgDOZqCUU3ec5CZU187-4" vertex="1">
          <mxGeometry x="10" y="6" width="16.97" height="15" as="geometry" />
        </mxCell>
        <mxCell id="kMgDOZqCUU3ec5CZU187-9" value="" style="group" parent="kMgDOZqCUU3ec5CZU187-3" vertex="1" connectable="0">
          <mxGeometry x="140" width="168" height="157" as="geometry" />
        </mxCell>
        <mxCell id="kMgDOZqCUU3ec5CZU187-10" value="" style="rounded=1;whiteSpace=wrap;html=1;" parent="kMgDOZqCUU3ec5CZU187-9" vertex="1">
          <mxGeometry width="130" height="60" as="geometry" />
        </mxCell>
        <mxCell id="kMgDOZqCUU3ec5CZU187-11" value="&lt;font style=&quot;font-size: 8px;&quot;&gt;201 cards&lt;/font&gt;" style="text;html=1;align=center;verticalAlign=middle;whiteSpace=wrap;rounded=0;" parent="kMgDOZqCUU3ec5CZU187-9" vertex="1">
          <mxGeometry x="85" y="33" width="40" height="20" as="geometry" />
        </mxCell>
        <mxCell id="kMgDOZqCUU3ec5CZU187-12" value="&lt;b&gt;Mathe&lt;/b&gt;" style="text;html=1;align=center;verticalAlign=middle;whiteSpace=wrap;rounded=0;" parent="kMgDOZqCUU3ec5CZU187-9" vertex="1">
          <mxGeometry x="35" y="5" width="90" height="17" as="geometry" />
        </mxCell>
        <mxCell id="kMgDOZqCUU3ec5CZU187-13" value="" style="shape=image;verticalLabelPosition=bottom;labelBackgroundColor=default;verticalAlign=top;aspect=fixed;imageAspect=0;image=data:image/png,iVBORw0KGgoAAAANSUhEUgAAAOcAAADMCAYAAACIn7TVAAAAAXNSR0IArs4c6QAAAARnQU1BAACxjwv8YQUAAAAJcEhZcwAAFxEAABcRAcom8z8AACuASURBVHhe7X0JfF1VnX9lFkcdRR1XZnSGPzgzIiJaR0tJ3n3vpaUVKiBQGRBUtpEiiqwCRYoU2VGLAgXqMFIEmuae85KWsillE1qa5J77WgoUpELZyk4LpbS0+X+/553zEtJbmibv3XuSnO/n8yVJecvv/s5vO/sIj8GLUffNet/ojtJ2hUh8uxDLaQUlLgMnBR2tOzYtFf9kXubh4ZEWmmL5xWJcOq6gZCmnxFNwzC78rdkEBkq+BXbAUc/PdYZjR7Zf+XfmrR4eHvVAU1nslldyKpxx2dhya9cY0DolHdTSOilfg7/X5GN5Q06F320oz/2I+SgPD4+BYkpX1za5KPxWoMRNeSWeoEOSPZ3x3WidlNm0qOT9yLrHNHTO+rj5eA8Pj61FEMkPsy8Jh7wd5ekqmymTHLAvZDblZ+DnOmTfpcimp49eJHYwX+fh4bElwCn/LR+L78Ep7y6o0gZmPjLJ4fpDW/LqUljJFfi3s4rl1l18v9TDYzPIdYjdgig8qxCLznc4UIKD1YL8bJLZGFn0+SZVuhpBYZ+JS5r/3ojk4TG8gUyZh1P+mllsoKVrf0kn3QPfq0d5YxkWVenoYEnzp4yIHh7DBzshOzUpMQF9v9uKSj5Lh6xl6dpf2kxajOX6IBZLAiVO9fOlHsMChY6Wf4XhHwmHvAsl5OuuOGVvVstdJTfAQR9mZsfPBt8v9Rhy4IALDPx4lIuP0fDr3Z+sFa2sJJxzLVcgFWPxDT9f6jGowfnJoLNlDPqSv0UG+ourWbKvtNm0EIv1yPpt6Ct/f9SSWR81j+vh4T6C5df8QxCHB8CIW2DUz3OgZTA7ZW/SSfXKIyU2croHPAHP+y/m8T083MOY9uZtYbwHV+YnxarBnim3RJtJ2S8FHwIvzHWIz/upGA8nMLGr+W8KZTkSznhqoKRiyWf7aEkGPRRp+6X8ib+fAWcWIrGHH+X1yAQctSzEpVxjJC7lQIl1SGOgw5J89l6OenOx3DqRW9qM2jw86ocJ7W3vDyJxFDLlbGTKF1nWDWeH3BypE6ubJlW6GwHstMZF4aeNGj08agdkgE8WlPwReGc+lm9zQGQ4la79JZ3T6iofi07o7txiZ2kno1YPj/5j9/bmzyLqsz/5GFfN+EzZP/bMpNDnc3klrg4iuStHto2qPTz6hsY4/EpTLH+OaL9cl2agd8qB0+qSDGL5KroH18BZJ4xV4SeM6j08EtDV9Z7GuCWHPuXFjO420nunrA+pV+qYv+eVvK1QLh02pnPO50xreHiYkVclD0WWFPjpzCL04ULrpDqrqpLCv13i+6XDHDyqAxnyaDjlHTCINX6QJ1taJ2UboE0eR9tML6iwOLK97f2myTyGMsYvm/feXCy/WIjFxciSPAVgne0D9TYWz+zI9qCzFlVpNRx1fj4K9/LnHg1R6PWuKhxf4Cihki9ah6QBJBmHZ/bUzmnaKa/ERmTSu9B+k3iMi2lWj8GMiUvm/2MQiYmIwNdzl7/t2yQZg6e7ZJux7ch8LBei6jmpELV+wTSzx2ACS6BiLH+io63pT3qnHBqsjg0o+VAQhTPQTWk0ze7hKjjqymsI0EeZDHI1il/JM0RpMynbNojlSgRhgX87YC+/CdwtjFW3foAnoRdiMR18gQ3n+5PDh2zrSnvL9Wj/Tm4CH7Ok7bPGPDyyQKNq3b6gxOF5Ja9HibPaOqR3yuHJnkE50PfEyJ/5kjdlNC6Wn4FDngjHXMTSxvcnPXuTTsoTKNC1Wam39UUyb8zHox5o6Jy1E5R9RUGVymwAOmbvRvH07Ek6Ke0EwfsZ9Etbc3G4NzfIG5PyGAg4P4nI97V8jOgXi6d6KDuxMTw9k2jtht0f9EtvQYD/rt9f2k/wVLdc1FIoKvm/cMo3qFzSO6XnQGjtiL/z0Gx2j3hsKTc9GNPz2BzYnwwicSyUN4dO6bOkZz1Im7KOmlfiSfx9eaEs9/ROmoBcZ8vn0B84PYjlQirMD/J4pkXaW2XwSLwG+5vFkndke/O2xjSHJ/Qi9M6WPakQlBd/oaJ8pvTMinRS3S+N5RpwMfqmJw+7xfZjOkrbFZTYL1DiJlu6eqf0dIW0Q9ojEoY+j7cYy58G5Zb/HNKjvFw0AIecxFUcVAAjlXdIT1dpbbSSTcUrQSSmceZgSPVLzfzk6UUlF3mn9ByMpL3qbBqLp8FrkVH3D+bP/1tj4oMMXVO2aeyUo3MqvLCg5NIe9byn56Al7ZiDlWa+tAVOesSgOdl+/LJ5Hyqq0n/nlLgXD/O8jTg+U3oOJdpkk1diLY9N1feXutovpWA8PQ0R5c4glm9TeF++eg510r6tnXO+FP92ydjFrbuPum/W+4xrZAde4oPUPhUO+VfvkJ7DlbR5spJN5VtBLH7PacLRD5U+aFwlPRTi0t4FJa5B3f04BaJTJgnt6TncWHXSynzpzfk4/CGvhzSuUx9w0QBPQUP6lhxaZseYQvQWztPTs+Kk9BFk0g25KFyAnyfW/JJhrpLABx+Yj8UdRSVX2fI1SSBPT893skcmfRtJbTkqzgsCFe7MZGdcbOvBi2bwgafgAxfwS7xTenr2n3RS60OoPl+GX80IOlvG8Owr43JbBjMlPPukoiqtYFrmh/GDk77Q09Nz62lL3kBPxYjpeVX6unG/zSPXGY7Fi+/yWdLTs/60JS9nO9BtnLzZUrcQiW8XlHyWHu0zpadneqSD0udQ7v5qk4UMxVg2ct2gH3319MyGtlrlYejGLc1hzErc5B3T0zNbmhL3kSYl/l07ZyEu5QpKbEx6saenZ7qkg7L/qZ0Tv1zkB388Pd0gfZHZM2hv+9gIdEL1ObCenp5ukINDxXLr2BFBJDYkvcDT0zMbVkZuwx+jz5n8Ak9Pz2xI5wyUOHoE/vNE0gs8PT3Tp11jkOsQu3FA6Fr7D56entmSA0J5JZ8NljR/is65j3dOT083WNlmJmbrpXx7P1T6IP7xXv5j7xd6enqmRybJoiq9VYjFQXqekyiWWycina7x852entmQjql3qkTiRh6UZ1yzctVeLhJnc9e2d1BPz3RJx+TKIJ5aOVa1bm/cshv6GJJYTAZf4wt9P9TTs/5kMjTl7E28FcG4YzKalJjA0w/4Jt8P9fSsD+lfZh3tUwUlfrFXee5HjAu+O3ZT4SfwAWfBoyN+iC91PT1rR5P0XgNn6vtX+oPCYrED+qFT87F8xpe6np79J33HlrAFJUv6st5aIKdmf5mpF066kk7qM6mnZ9/Y0ymLSt7FE0eCSH7YuFaN0NX1nsLi8Etw0ssCJV/0TurpuXnSGekj+H1doMKFTeXSd0YtmfVR4031AzdooyMreI4t62edqhME9PQcjuzuAooIyWwSF/oY10kPXLzAE+B5eZGJEp6ew5asJHU1qcQi+MWZen1sltDzo0oeCIH+2LO+ThLe03Mo0paw8IO/BFF4/BbnK9MGp1+CSBwVxGKJjSDeST2HMq2dI0u+DFu/iFdhGndwEyh1P4la+4wAUcRGlKQH8/QcrOx2Svkid5AESjTwNnfjAu5jzJK2zxZVaQpTPR2UD5P0oJ6eg4l6AYGSbwaxnJWPZZMx98GJoGP2V/FQ0xhlukexkh/c09NVMrnQdmHH88ADnbxivr/IRy27oz86gwvr7YMmKcHT0xXSRm0Jy7GUxij8QSpzlVmAW9OaVImrja4GV/ly19NFWqcsKrkxp4QK4vDIml986yqmdHVtw7sJdYngt6h5OkRri7kofDhQ4tT/Wij+yZjtMEPXlG0QkQ6AIv7ISEXFJCnM07PetPZXVKXHgij8eaGj5V+NlQ5vsI5HFj0CvK1aUoBJSvT0rCVpZ3RK7rxCV+uCxjj8ijFLj54Yy32kSv4Ipe7j3kk960lrX0gIq8GrCmU50pihx7uhcbH8DJz0Z3klnqACySQFe3puLWlLpnxdjWx5w5i4ddROS5r/3pieR18RqHBndMqno9x4kpO/3kk9+0tmStoQqrLXYU+3I1vub8zMYyAoLJajodBr/BY1z/7QjsCiGqNTHnjAk7PeZ0zLoybgZu9I7EEnLcRifVXhCY3h6Wn7lKbauhd2c3jT0uE6LZISuJAhiMRERMD70Gd4m8r3TuppaZ2SP7n5AtnypMz3VdYLo+6b9b7RD5U+SOr7GxzBmPbmbRkN0QAdbAifST27M6VYjuA9lZsvjLk4gbHq1g9w2pC+1O9dLBPa296fL4sAmen0Yix/DyeYza0xeOgZ+H1SEMldzUszR+Oi8NOBCjmyG3c3TnLjeQ5Nss3NYM9TjZG4tKFz1k7GPDIHS2kEinHwm/ORxa+DT91MXwJ/mVPhd4OO1h3NS7cA9uticRAcMgzMsrqepAL4E695HB9+ZWOnHG3emTn4kHRS3jdKGX0WHfq0FRN+XwN7vFrvq3QEzNpwxFMg4y1wytXWdxhIrC+ZLN/JZYIj2//wMfPWTcG+HLz7AnzYmi2NiNpIhdc/yfeMXyx2MB+TOXiMp95HGstnKCfpHXVoke2pDVuJjfj7Bg4UurKF62sLZn4IznY07O8B64TvZn98DRkgIXJ+33xMD6D+Zdq1xpz0IUmsvh5Oisg1ZXRHaTvziZkj1yE+j4j1Wyhp5dY+l6eb7HZKvdn5T0Ulv8l+nGnyTEE5kAWP4i4WlLFv0eH6mhT4Ojox3jeP3TTzkRWgHByPF/XrCsCqwvA7V/LDSU/gSfHmo7MFynQuZMBDXwW+1F1KJD+Lp7uksRdUaQNv4sp1thzMgUrTypmCB0QjU05Af7fNnkLZV6fsSeug+P2Ske1X/p3+cJYDyC5z9MMnvKmv5IeT/BwI+mA+kj9Ax/zj+kscQD4K9+Ldh3jWVwf6rJ7pkcGURLstRPsdy1F606SZQx8goESrlbM/TtmTOnGo0ktw+HzlC2KxD7LKhqQX95fd2UnMR8l7uDNHOiCTNtJJY3krFVkLhXrWhzbQ4/dlhbh0vEtbuBrjlhwqxGsgW83vEKqUt+KaHZdNey+d89puZ6odKbCpo99iyufVgiOa3XBSc4znIei73O+d1C2yLbQ9KrkCbTLZpeMmOWCDfu5U2PPTdMp6+U2ALpg+eQG/PJb0olqxavyqtBolQDOvcnBlFwAnhCHX0TwfhiN/tY6Cnn2ndUpUNSvRFpfBTv7DNFPmoKMUY/lTVILLrT0nPUOtyO9gN2xEWsZoHwpR5zX0H67glId59szBfaQIHKdBzsXWSHrL71kfUtemlHuOA3fFuM2Zzc50yiAKf8IRWMqaVvCufEfp+BFJ/7Oe5BfrUSmULXDS05vKLf/P6CJzUBaUu7/gURWUMa3ANRxp7QDB+nX8fQNswZkzYLlCrshuTyzvteVrmrbA7+Ksxwj8p5z0gnqzO0OJKBeJyUF72+ZXSKQMXnWIKP4b6EafEOidtHakLm1lAh3P4zREdeogY+iD52JxEOS6jWMlbPve8tebVj9NqnX8CE7UZ2V8/F5r/FzAXijL/+EKC6OrTBHMn/+3KGtGccAMTrrWO+nAaI0OGfJtOOSfeYmsK2fAckOHvdaSmTzLqkn7AvrdekCosbJHcmOWhmcbDp3u9bkobC9GpW+5Mp/FqJ4vh9/JqfBOyLnFpY2em9IGNhh+xPlvvSvDBTQ3/02Dmv1145Rv6IyVcdtWSn15BbM4jK/t/RCsjf+Y9OI0aZ2Uv1NhQST31fM9DoCZFDJ9D1n0bsrnnXTLZFtqx1TyYejOqa4LFxCgavx1oEJnbiDQZbQSL79jQ0lelb4O4fSEatKb0iYVVZFFrEcJ9Af2S4yomYNbgALVcijknEtZXWlYl9jdfnIZ+m5Tc7H8olFf5iiWW3dBgP0VbOsFlwIs7aiSmMQZm+z1rGQFty4bso0MuV7KRWJ2dVmTA9Bn7UJnUGYn5fRO2m1g6AK8iAxwQSFq/YJRV+bYvTP8EsrFyyHnMtpUxRGSnyNtWtthObvZkr/S/5TtVslJH5QFKQsVigyq58IaeMZoV9d7jNiZgveRQqYjOOpsg8lwc1LbPtDBKzQwjna70j48ogQynQJqp6zImfwcadPaSxDLV4NInLzFxfzcJIqodzXe+IprhmaDBjeCI4ick+ts+ZwRO3PsgUyK/ss53JnTbazJzzFUaI2LFRcMbBb7cUYdmaN6jE0sHqScbBMXbRkBbcFWd9tQsu2D2vx22wBJX5AV7YNBxgcRcc7o+1EP9cfoRWIHROnzCqo0ZM/atTaBn+vQBgJBck/z+JnDHgDXpEqSsxDUv2tOWQlo4gneycLKy4i+dRjfOe/jQRweich4n31I1x60Msqsj3o4mnvrjOiZg4NsMNxLWbK4ZiD9JZ+Bz0Kjx99zOVfp0hmwHJOAjLNgD+tdG02v6g6lP/R3WTESXzNiDwzFaM4/51X4Y9btvLPQNWOrRHG5Ho6wUO8jLc/9iBE9W3RN2UYP2ceihQYzWJ3UGhaC9AYY1iLu6GEZb54yc/DQcch0I7LRcyajJz5HFqTeKk4p14Azcx1it7psoeQRCkjDx0IJZX6hS+UuG8TIsw5Z9I5GJfd3ZbKbc8mFuLQ3rzpEX/lN1wzo3ViVVcl2BMDvOzNXicDHKRoEjAuRNFZSTuMETtD6B3T3Ciqoa2GTDSy5jfT1w7il4ad1v8rs4jBO4QRpSJQJ8uFv0cL+kCvn7fKcGZRe34dcC3oEEydJHZKBkgrGNdmlTMnzoQIVXmC7DGTSM2RB266wv1et/Rmx0wVHS1HmcBfHChdrfKOkNYj61xVj8Q0jdubgFjXIdQrkWkoZXTOuSj++tBKZ8rxxkfw3I3bm0PYWy7OQLZe66pT8iWDWBu5jxM4WQcfsr6LmvxiR4gUqzDUn3YPGpsTLcIgr9BypI+Dhx8ZJH8ra2Kgn/f1KrAKvZt/IiJk5OC0CPR3D7hQdgEx6hixY1Rt+Rya/lYNkLp1zVAFPuoOTQsiZiBpv2CjS80GypDV+yPY0eOnu7c3OHNXfqFq3h/Gdy0UWVs6kZ6gH2Uba2NEXhl4ET/p3qRuQj8Mfcq4Ssq5z0ilVaUMRwbVQLh3myi6bzUIvEI/CvVB63IZIt9a1crfqpEr+BfJNcek4DA5wBFE4A+XkCzTEejop24Rtg6DwNv6+p1iW+7pyfIxe1aPk/shEf8LPDa4Fets2XHCCavFkjsEY0QcHzAnyh8PQ/gQl6/M8kx40C7Khq5EvFsubUDK5dLobTzBHFr0OhlmXtc62LRDx7+Lou1Oj2igLETDvse3jklNSHm0zKK/RNlMDh/rj/YI+np4jlEreX324hAfPilYmZJCFUPq731mRMnKd4VgEtpAGWgsntc+Kz4kao/CHrtxXyWoL9nEoWApMpkySPyt261++gIB2oUvVVk3APh6ywSR26vmwxkgSlZEFqXzKxE3VKC0PYxQ3omeKke3N2yK47Qvd3UQ5t1ZvVtckgs+jgQpPcuZEfqBQliNhE7y1/E1XV/UgS/L6h99x1ZcRe2hCHzOoSmfSUOzDJykmC1p5aChokPvB/V059p8VSI4LuSMRQ9Y1fcmk1imRjV5EVvq1S4epjVVzdoZM10HO562cveXPitQr9ZuvHD52MwLaeJfupq079EIGJeikzi0Qt40TxOINNNC1XB5mxM4c7B+yBGSGh6zrqDuS8lravzkyjYx7Jcrj/zJvzxwNCBBo9xMge3Vf5ZaCTJqk7mCTGyHj3VxA78pB6JmApQJLBijEuZPuuiOofBW/n40IurMRO3Ow7GYmRZa/ioZUiEUnGIELoEsJmc/LxbLRvDxzcL0z5JqEqklZp0zSeVasBgpV+jOc8lhXDppzAighx8GwWvBzg2vRlPJUGk4+BLkucm1AQN/u3dG6I1fQsG/vUgmmb3aO5TGcFrHBLknHWZDyWJl4VjEzuj71zmNTwKg+RCdFOdZWjKXexUEmKTYL2uiKPpyeIx1081spgnOmMPQDmNU5l8py0ZWASzl0sK205WMcJHNpT7DTYMnWpOT+6FvdyU65jmwONiz+XoxgcoTzK0NSxEQ4JVcZQTc3Q0f6zldX2o6kPJUAK54AL3BpfntQgeUZSt2D4KDz2cCulURsZPP7rbkodOas3awAY29Ae03n+IGLTsnsDVt6CvJdMKZzjjNH3PQL+jyhxXI0S82gs2XM2EjumkV/hoMJZh/p3T2dwgXaoMGfORWWYKATXDncKi1Urq8Qv4RjOnfulG0f2PBL4FXoLmUySMbjSPTac/gTz6VtUqUvb/XKLPYVmuLW7yHCCCi7E1HmSc6Tod/wPH5/FD+53vE3TUr8u3lLahjdUdoOyj4OhlCdI3XFEKwR4Cc31wqXDruqF7h8Dc8+DXTuuElrH7CVjYW4dCNLbSN2amAiQzD4PvzlevjNQtjF4+iqrYBM9KnH4KB305e48cG8ZfPgKCSPe8CD6WsHrMJ70v47HHc5vuicLCa2d0M/AQ81NYjlSitXUgNlQcpC/VA26PFyroBx5aKeWoEVFezkDA6M8Vkr9pCsj7RJp9TyKLk2F4lbckp+M1jS/I9G9FSgt7gpeSCqqLvsyifS2qql9SU4bZSLw73N2zdFMSoV8EB68y8fMOnBLfn/+eH6dZWr/E7JomPNQ4uLqnQZZKrbTcP9pW2AIBavI1Je7dIcaX/BNkZQhlOKJ95hAwnPnwW1oSv5Fmzyfl7hl8qxID3AMpULF/T3m9mGvvoSqtKX8d6jNukSsTxBFFT05KQP2Bz5wSSVggaLOSSdRSZtKovd4ACzoRRn12eaIHYu+h67GLEHDbR9ROJY2ogN3i7pmPo1Om7naZFpD8zpfafIlHCw2WjjfgUtk1xegX1MNB87YgRPAsP/nLa1jtmbFIhfoBWkxNFpK4hRkreTIbK3oKTUW9RcMyAdxGL5CAz9ZJaGRnRnoc+ARVvC4B4wxpP4bFmR7Wt0+lc4xml96rvVGLmopcCrQijLQBMD3w8nX1qtQnlUBk9Qr5UhU1lozLfhJAvwRUekvYFXLxDXewKls3sCjTycI70Q+v+4Ed0ZMGBzm59dv8s27fkMWZM6JOGUryIZ/DanZn/ZiJ4aOJaAwHUdvv9Z6qfG/vPTypcg4tQ6IlJQHdGUWIu/5/JkhLR3d3D6BRnqEJS7i6w8veXMilYe/mRWyqIUSwIDKUc10Y//A4zOuSM8aaeVdhSvwLaupFOmPdhm+t0n52OxnJmu1r7D50PQvk9Ps+SUuLdeDcDPpfAwQB7bf62eXuh9vVmdwSMvYGxn4vsf5IPXWpkDodVP5W9xC+eSs1oXy8E1yDCdTkmZXHJKyqJLPn1HjpDchG7ETg278cREJU/kCDX1Uy874rNyEFGv38Y/rOv9glqTX0jHQLR7DpzeGLfkzDOnBq6dhPFdjAZ+eqB9g1rT6geGtwrO8X+BCsfzdAAjel1RWUAgp9ppERf1UnEEcQv0s1/aCzy4lLQxCr8DWW6lPPVyyp7k97BbMSLNxuCDGcd4Boo+P4uRXZSQo/jddFIXjZH6gSG+gn7zDcW47StG7JpjTEdpOwSBn3GAqtsBkuVKm9RDD3luRsA6NIsrNoqcI1VCIHhtqLTLprLWg9om0d1En1OuTnpBPWmdAv3BR/H3zxsXy88YfaSGcSjjYAAz8P16cbZLxlmVR8kV+HtaLVdjccCMAw6Vk+MqbdHzu7OkdUoOKCJoLIRTHJj2OUesWFjZQfclyJPJckR+n55S4YBE0gvqTdsQ/AknLUOOY9IeueRgwhjV1oAoNRv90tWMjk46qV72JU7lfKMRfauhr8uvTJDfic/a6FLVQDls9kZ53VGM5A9SHyBDucybv4qx/B1Hga08SfLWk5U2Eet1n7NJtZ6WZfTs6aQ0HBjgvpzUNSpLBXqutzL9MoeDDq4ZbtVJ9drm8IdcvmhE3yI4So7MOwFZ6LZ36Drhu7KgfTbIFEH3Z/NGOyN6auDCEI5HsIrMWj8VXxQL9uZoLSdug1g8pRs/4cVpUgvGw7ViIbhRN+3OP0sa9jMgy1w2kEtOSnYbjlgAHR03YQsnBHJdKasCVCZrXXsWq19WBez7js1gAYF1Sp6C4IJ+9PfrE+RLRxsRucpBTK4oKvlNaZIC6kEjlJn4e2YWuwm4eTpQLYfi+++hTFlH0960hoSuwM2cQ+49PYXqY1cY3QwEmpfNAFzi52RB6pLyI5O/iMBxPkeLjdipgbubELCmQJ5lLnVlKEugxB3vKOm/Xr7+k/ifc11qSCqMZCMis/8e0XXntKYXLBBZP4k+yE8gzzKO2LnkpJSDRs7+EWSbB2c8qHINhrgGfz9r9Zf03ixo5ckp8Spk/p0eiU65MuKYBvTE3TSPWf0lyZoFdcBVpRWc6zbidoMHQ3GEii9ysVGh0Jeg0EubOttSP+ZRH6AViZNzUajLH5cataqfypLJ9TQ6l9qP8lQqIck53Ou4SSH1hShx+C/I0oeD+tJnknIlyZs2rX7Qdssh335G5E3BC1IRdae6OgdImSDfS8ii5/DSHyN2ati9M/wSZJkG/TzlUpVBUhaX5CF1e3FaRImbOFKctlOaLVyHQIaFrjklaYL8Oth0M+ffjdjvDi6zgyffyA9w7YEoj34oXrvGhQwZnMigj25hf9jBgRYXaB0BOnqgoErf3erjOAYIHjLGFTbsk0Me5xbu01603Sj5MOXc6u4ad4/nOlsO5mQwP8zFqEOiP/ogAsnJaa8g4RRFQYVFHcQcXCSeNq2NaDuB0cExjkn9DlT0YRk4YbOzIINze3utfpBUXkZg/+XoeNbAzj/m5DWM7yQ4wRIo3Kl9kpSD8qAs2AAn6eR5LVk4qZ5H5MjuMHVSPrMxuifRBudlsVd1TLn0VXQ3roUdvFJ1ggRZs6CVJ6icxXWD7nfX8poHGj28/QR8+OJqYyQIkgXf4aRK3M79nGkfUbHjsmnvZYkCee6hbiqd/GR5hwp7POfTsI1fZXESPucq8d1TEBj1vkrX7NLo5zVm87pfj8Ej/3MqvBDKWOHioAgbiCOXgRLXZbL7pb3tY3kV/hj6uZOG4pKx1IrW6OAUz6F8vCqLuWi9cD8Kj4csel+lS3ZI0g75E5XE3Fzau2l4cxWy6BXce0YDdNFJOeqMbHoVzws1YqcG7iNFFp+EMiuyTuqaAW0tKT+fA065Cs81PdeB8ixljFXhJ/DdJ8PoF1Aml4Kf1Q9/ImjpQ8Yy20TPheONcfgVljSch7RGmCR4FqSDWicNIjGtIYORXc6xIYtPQpBY2rPxkuR1lZS5UpGI1xGQZzZELbunffwM91XS2OGYC6g/l7JltV2V3IiK6f5CuXQY58aN6NliSlfXNlzRDyedDQFfZkO6ZIDWIWBc7BudSYcxoqcGNhYy6QUwrscpD5kkq0u0Rofg9hr+noMAMy7tvjw3QcCmvllUpTvx/W/Ztuwta1a0ts7gi8B1Shb7TvsMLiFDjT0XhrjRxeimnUKJRcikx2YR3XgiA4z9IjTkShf7SpY0Ou2YStwOw9vfiJ8aWJUVY/ENZKLrOIbgmlNSnkpVJh9hwN9zydxPGdHdBksQrsyAYksod528b1NHPCXvQiY7KotbwjhHCjlmwvBXu1Rp2LaC0S3kuuIsTgdEN6CBTslM6VoAo35I7ZSxODuLhfs1ATvDjLpQ9p+pYNvwSQ+dBdnwkG8D+wkodY9Mux/Fw7wCFY5nd4DyZKUf2zYkqopHIc8JwQA2dvcXhbiU4yg72mOFSwGLpG5MplwZROFZxc7STkbswQ1OL3CPGh5yMRXukuKtPDCItTDM2xEN90n7ynGuxiqW5b6Q4U5kq/Vp6sc6JfvjXLNcWCx2MGKlAgbE3aPZX4DRX85J+mqQSJA1C1qnRCX4EuzjsizWdKeCUdGsf9YDMko8XHWKBIVkQcrDhoCRvI1G+CMy6ri0j6ncqzz3I5DjOASIznrrxxqdyQQzuAfUiJEaOGcOW5gOGV511SkRLF9A0OTVjg1G7KENnroH458KJeir49LKEn2hdVJkkjfgpNcUy62pn5HKfaQo8Y6HQcTUTy2Ntur0Sr7JVStN5dKm+wfrDGZntP+JCNTVLVxJsmbFqn4icSO7HWnvpnEC7EwzckIhzl1PTlnMYMQrMKJfZrGQgQujYSBncPploEGM77VOgMzcBr1PyGJaJF8Ov4PytYO61U7QS86saPVDQj/zUUnsyyWZRvThCT1kXrl+sAQj7NO1aWmS8tCI4KBPwFEuzmKLGqL3zij9qquxyCRZk2iNjhPkyJQL8W8HZ7E5AOXhkciW98Hw3xhooKklezolgyAHw3gyiBHdg9CTzbwlrNLfc2oIvWrgIIyLO9Z/kfaB2AxiXC4HA7rRLvR4NyelrFUdmqNH0z4DlgNrjZHYQwdeVXprSzKnTSsP7O0hyHhSFucnDypwY24+kj+A8u6BUenzVXsrNStaJ9UNGstHCmX5P+wfGtFTA4xpHBy0GYFCn5poS0SSv5PsM0NGZsqzuM7XvDU1cDE82k9Sb5RRB4le+syKlKdiV+LxIAovyeLqwEGNke3N26JxuSa1w0a4JEVnxarBKXE750jHL5uX6vQLoecFo/DndFQthxJ/Bm9CFvgt9HYgF4mbl6YGHrdR+X7xHNvNJaekLAxcCGqvQT9XcfOGEdujP6iM7IU/hkL19IJLUdg2Nn+HfPNhmAekvZCB4MAOV/KwLAsi+WHzz6mC7YTAcD775tSJS8HU2g0ccjWqicv1FreUT/4b0tBnjfKODyX+6qKT6jJJiVVcVwwHyad9jGdWYD8WDnkmSsTlVT0k6CgLVp2yMi0mETwa2Hc3onvUGswONIYgEvrKOpeMgYZAor/3Gks73nlpxB5y4GZnjsDCKZ3br0o5mL1R7r+JgD6Hc5VZVDTDFrkO8XmUKb8BtZPSOJIaKgvaiI3fedXhLwbt4ugE6ExZ5n2VcoFrTklWgrVYD73/Ef3xw3ymzBBcHEAn5egkG8YlQ6HhapmU5FWHlwTllv80Yg86cMBL9/3NhUguVSykDRRwzPmoqg7RFwF5OAB07tnPQyl5HRrKudVGNGQSfZ6HYdxT015cPhDwDFjIvD+6EndTp7pcdES3lMO2daCkYpntzAkEHu8EV6Kgj9HEaYUmVXJqnyRZlUfJFflYTN4tg6mOvoIjwIW4tDf0eQ8vlXJVl9Aj7y49bdxS75SDAoz2Yxa37scSDHR2tRFK8QdzSpzQkMH1+5sDA1ylChHXwDHXuOaU1B1l4pQN91WOXjR4qhCPHuCJDDD+w9Go91qn6N3YWdHKQ+qSTJX+m/s6jeiZQG9EiOXvOKDimlNSFu2UsXwV3YPpfgHBEAH3kQaROBnZ4EmbtZIMICvS6OgQMLybUaZ9L+19pMiUu0I35+P7H3HRKdlmkI199la9hctj6GHMYvF5NPglaOjnbdbqbQxZkUZoyu81cNQWlOPjeB2+Eb0u4PI+BK1j2W+jU1aCRLJ8adM6JQ/3gnx38KSIrFY/eaQEGjwvboUB3FBQpZfczRTidY4+81zgrhovNdPHxsSl42D4jxRj6dw2PbYJAiicUj7Aucq0j43xcADMTnklpGuDRiRl0ZlMyWfhqBfV4uwazlUGsTiIc4G2cnDNKSvPLMo8CYKbH4zoHsMRXNYFwziYpaTLAyH4fRn6XJOY9YzoW4WcPgNWyB6f5wwZJCp6l0sQLKfwbCEjtofHiBG7qGs/gD7NvswqNBgasWtZhYMiyPL3g0f09YiRhvLsXVAazmAJ72J1QMdE0HgZjnneYF5B5ZECmJmCSEyE8dzcHdHdMGjKoZ1UibXc/YIMs+fmFnR/Tc3aviEKz0UZ+xTfo50g4TOzoNVrpWSX545Vc3b2W7g8+gyOZKKvdzaX3FWNKcHQsqDNODDsdXDUq1kG8pgXfdJ+JbgcYuUmXQkuVo/I/C9xBDYXhd8y6vbw2HroLWo8dj8Wzt0DaTMpysJHYfDXw1lnBrG8NVBuXviDn2sQTGY3RuFeaZ/85zGEwRUpcNDpMK5VNDSXDN9mJEtXZKMcNkggeMxDKb6fd0qPukDPkfIYz1je4GJ2coU9nZJLE3kQWn9HmT08tgrs2/HIR5ZoMMbXXcukWbJbFyIqxvInWZxO6OGhz5ItROLbHNxA2baBhplksMOBzJTsk8MpHy+q0hQeY2LU5OGRHbjmM1DhjwpKLqWD0lCTDHgoklmSTokA9Qae//9Qwo40avHwcAc80AtOehLXrNo+11Atd/lclUpBrMffMxtVy7hheeGPx+ACN09zC1YQiZV00qGUSemUJvBwjvVu7hZhH9w8uofHIACySCEu/QfKvUuRSVcO9nKXTmnneQPeVF5unZj15nAPjwEDxtzA7V8w8uddW8jQF9oR2GIsF+RjecoYv1vEY6gh1xmORR/tRm4gtgaf5AyukPJRTr3vU8kT/cl2HkMalRMCxT7Ipjehz7bRDhwlOUcWpCy2n5xX8ln821m7R7OH7Mn1Hh6bgNMvuc6WgwMlO+AE+u7KrJ3UOiW3cCFw/CpQ4c5GXA+P4Qd9H6mSR6Av94AtI5Mcp56kQ/J7kdGfhlNe7U+28/DogT2WzPooSt1TkbXKdBSdwRIcqZZkMNADVEquwnf/obBYjjbieHh49AZPA+AcKZznmXqVujZDcz8oB6gKZbnncLmy0MNjwMip2V9GRrsQDvR8rTJp1SnRx0UJK7RT+rlKD49+oGvKNrxFDY51w0DvK+l+r1iAzLwfT04w3+Lh4TEQmHON7mUG3ZqFDPb1+P3pQIXn8Hp685EeHh61gj7XSIkT9JpWON3mMin/reqUSj4bKDE9XxaB+RgPD496YXRHaTte0IS+4zw432o6Ih2yJ4MofBL/79dBHI4yb/Pw8EgL7DeOVa3bc1kgt6rlYzEZ/cnDG+OWHB3YvMxjUGLEiP8Pe3BHzU8oDrgAAAAASUVORK5CYII=;" parent="kMgDOZqCUU3ec5CZU187-9" vertex="1">
          <mxGeometry x="10" y="6" width="16.97" height="15" as="geometry" />
        </mxCell>
        <mxCell id="DKMUyEjhH1U7fZ-NHW1T-37" value="" style="shape=image;html=1;verticalAlign=top;verticalLabelPosition=bottom;labelBackgroundColor=#ffffff;imageAspect=0;aspect=fixed;image=https://cdn1.iconfinder.com/data/icons/hawcons/32/699552-icon-27-one-finger-click-128.png" parent="kMgDOZqCUU3ec5CZU187-9" vertex="1">
          <mxGeometry x="26.97" y="12.5" width="61" height="61" as="geometry" />
        </mxCell>
        <mxCell id="kMgDOZqCUU3ec5CZU187-14" value="" style="group" parent="kMgDOZqCUU3ec5CZU187-3" vertex="1" connectable="0">
          <mxGeometry y="70" width="130" height="60" as="geometry" />
        </mxCell>
        <mxCell id="kMgDOZqCUU3ec5CZU187-15" value="" style="rounded=1;whiteSpace=wrap;html=1;" parent="kMgDOZqCUU3ec5CZU187-14" vertex="1">
          <mxGeometry width="130" height="60" as="geometry" />
        </mxCell>
        <mxCell id="kMgDOZqCUU3ec5CZU187-16" value="&lt;font style=&quot;font-size: 8px;&quot;&gt;234 cards&lt;/font&gt;" style="text;html=1;align=center;verticalAlign=middle;whiteSpace=wrap;rounded=0;" parent="kMgDOZqCUU3ec5CZU187-14" vertex="1">
          <mxGeometry x="85" y="33" width="40" height="20" as="geometry" />
        </mxCell>
        <mxCell id="kMgDOZqCUU3ec5CZU187-17" value="&lt;b&gt;FSA&lt;/b&gt;" style="text;html=1;align=center;verticalAlign=middle;whiteSpace=wrap;rounded=0;" parent="kMgDOZqCUU3ec5CZU187-14" vertex="1">
          <mxGeometry x="35" y="5" width="90" height="17" as="geometry" />
        </mxCell>
        <mxCell id="kMgDOZqCUU3ec5CZU187-18" value="" style="shape=image;verticalLabelPosition=bottom;labelBackgroundColor=default;verticalAlign=top;aspect=fixed;imageAspect=0;image=data:image/png,iVBORw0KGgoAAAANSUhEUgAAAOcAAADMCAYAAACIn7TVAAAAAXNSR0IArs4c6QAAAARnQU1BAACxjwv8YQUAAAAJcEhZcwAAFxEAABcRAcom8z8AACuASURBVHhe7X0JfF1VnX9lFkcdRR1XZnSGPzgzIiJaR0tJ3n3vpaUVKiBQGRBUtpEiiqwCRYoU2VGLAgXqMFIEmuae85KWsillE1qa5J77WgoUpELZyk4LpbS0+X+/553zEtJbmibv3XuSnO/n8yVJecvv/s5vO/sIj8GLUffNet/ojtJ2hUh8uxDLaQUlLgMnBR2tOzYtFf9kXubh4ZEWmmL5xWJcOq6gZCmnxFNwzC78rdkEBkq+BXbAUc/PdYZjR7Zf+XfmrR4eHvVAU1nslldyKpxx2dhya9cY0DolHdTSOilfg7/X5GN5Q06F320oz/2I+SgPD4+BYkpX1za5KPxWoMRNeSWeoEOSPZ3x3WidlNm0qOT9yLrHNHTO+rj5eA8Pj61FEMkPsy8Jh7wd5ekqmymTHLAvZDblZ+DnOmTfpcimp49eJHYwX+fh4bElwCn/LR+L78Ep7y6o0gZmPjLJ4fpDW/LqUljJFfi3s4rl1l18v9TDYzPIdYjdgig8qxCLznc4UIKD1YL8bJLZGFn0+SZVuhpBYZ+JS5r/3ojk4TG8gUyZh1P+mllsoKVrf0kn3QPfq0d5YxkWVenoYEnzp4yIHh7DBzshOzUpMQF9v9uKSj5Lh6xl6dpf2kxajOX6IBZLAiVO9fOlHsMChY6Wf4XhHwmHvAsl5OuuOGVvVstdJTfAQR9mZsfPBt8v9Rhy4IALDPx4lIuP0fDr3Z+sFa2sJJxzLVcgFWPxDT9f6jGowfnJoLNlDPqSv0UG+ourWbKvtNm0EIv1yPpt6Ct/f9SSWR81j+vh4T6C5df8QxCHB8CIW2DUz3OgZTA7ZW/SSfXKIyU2croHPAHP+y/m8T083MOY9uZtYbwHV+YnxarBnim3RJtJ2S8FHwIvzHWIz/upGA8nMLGr+W8KZTkSznhqoKRiyWf7aEkGPRRp+6X8ib+fAWcWIrGHH+X1yAQctSzEpVxjJC7lQIl1SGOgw5J89l6OenOx3DqRW9qM2jw86ocJ7W3vDyJxFDLlbGTKF1nWDWeH3BypE6ubJlW6GwHstMZF4aeNGj08agdkgE8WlPwReGc+lm9zQGQ4la79JZ3T6iofi07o7txiZ2kno1YPj/5j9/bmzyLqsz/5GFfN+EzZP/bMpNDnc3klrg4iuStHto2qPTz6hsY4/EpTLH+OaL9cl2agd8qB0+qSDGL5KroH18BZJ4xV4SeM6j08EtDV9Z7GuCWHPuXFjO420nunrA+pV+qYv+eVvK1QLh02pnPO50xreHiYkVclD0WWFPjpzCL04ULrpDqrqpLCv13i+6XDHDyqAxnyaDjlHTCINX6QJ1taJ2UboE0eR9tML6iwOLK97f2myTyGMsYvm/feXCy/WIjFxciSPAVgne0D9TYWz+zI9qCzFlVpNRx1fj4K9/LnHg1R6PWuKhxf4Cihki9ah6QBJBmHZ/bUzmnaKa/ERmTSu9B+k3iMi2lWj8GMiUvm/2MQiYmIwNdzl7/t2yQZg6e7ZJux7ch8LBei6jmpELV+wTSzx2ACS6BiLH+io63pT3qnHBqsjg0o+VAQhTPQTWk0ze7hKjjqymsI0EeZDHI1il/JM0RpMynbNojlSgRhgX87YC+/CdwtjFW3foAnoRdiMR18gQ3n+5PDh2zrSnvL9Wj/Tm4CH7Ok7bPGPDyyQKNq3b6gxOF5Ja9HibPaOqR3yuHJnkE50PfEyJ/5kjdlNC6Wn4FDngjHXMTSxvcnPXuTTsoTKNC1Wam39UUyb8zHox5o6Jy1E5R9RUGVymwAOmbvRvH07Ek6Ke0EwfsZ9Etbc3G4NzfIG5PyGAg4P4nI97V8jOgXi6d6KDuxMTw9k2jtht0f9EtvQYD/rt9f2k/wVLdc1FIoKvm/cMo3qFzSO6XnQGjtiL/z0Gx2j3hsKTc9GNPz2BzYnwwicSyUN4dO6bOkZz1Im7KOmlfiSfx9eaEs9/ROmoBcZ8vn0B84PYjlQirMD/J4pkXaW2XwSLwG+5vFkndke/O2xjSHJ/Qi9M6WPakQlBd/oaJ8pvTMinRS3S+N5RpwMfqmJw+7xfZjOkrbFZTYL1DiJlu6eqf0dIW0Q9ojEoY+j7cYy58G5Zb/HNKjvFw0AIecxFUcVAAjlXdIT1dpbbSSTcUrQSSmceZgSPVLzfzk6UUlF3mn9ByMpL3qbBqLp8FrkVH3D+bP/1tj4oMMXVO2aeyUo3MqvLCg5NIe9byn56Al7ZiDlWa+tAVOesSgOdl+/LJ5Hyqq0n/nlLgXD/O8jTg+U3oOJdpkk1diLY9N1feXutovpWA8PQ0R5c4glm9TeF++eg510r6tnXO+FP92ydjFrbuPum/W+4xrZAde4oPUPhUO+VfvkJ7DlbR5spJN5VtBLH7PacLRD5U+aFwlPRTi0t4FJa5B3f04BaJTJgnt6TncWHXSynzpzfk4/CGvhzSuUx9w0QBPQUP6lhxaZseYQvQWztPTs+Kk9BFk0g25KFyAnyfW/JJhrpLABx+Yj8UdRSVX2fI1SSBPT893skcmfRtJbTkqzgsCFe7MZGdcbOvBi2bwgafgAxfwS7xTenr2n3RS60OoPl+GX80IOlvG8Owr43JbBjMlPPukoiqtYFrmh/GDk77Q09Nz62lL3kBPxYjpeVX6unG/zSPXGY7Fi+/yWdLTs/60JS9nO9BtnLzZUrcQiW8XlHyWHu0zpadneqSD0udQ7v5qk4UMxVg2ct2gH3319MyGtlrlYejGLc1hzErc5B3T0zNbmhL3kSYl/l07ZyEu5QpKbEx6saenZ7qkg7L/qZ0Tv1zkB388Pd0gfZHZM2hv+9gIdEL1ObCenp5ukINDxXLr2BFBJDYkvcDT0zMbVkZuwx+jz5n8Ak9Pz2xI5wyUOHoE/vNE0gs8PT3Tp11jkOsQu3FA6Fr7D56entmSA0J5JZ8NljR/is65j3dOT083WNlmJmbrpXx7P1T6IP7xXv5j7xd6enqmRybJoiq9VYjFQXqekyiWWycina7x852entmQjql3qkTiRh6UZ1yzctVeLhJnc9e2d1BPz3RJx+TKIJ5aOVa1bm/cshv6GJJYTAZf4wt9P9TTs/5kMjTl7E28FcG4YzKalJjA0w/4Jt8P9fSsD+lfZh3tUwUlfrFXee5HjAu+O3ZT4SfwAWfBoyN+iC91PT1rR5P0XgNn6vtX+oPCYrED+qFT87F8xpe6np79J33HlrAFJUv6st5aIKdmf5mpF066kk7qM6mnZ9/Y0ymLSt7FE0eCSH7YuFaN0NX1nsLi8Etw0ssCJV/0TurpuXnSGekj+H1doMKFTeXSd0YtmfVR4031AzdooyMreI4t62edqhME9PQcjuzuAooIyWwSF/oY10kPXLzAE+B5eZGJEp6ew5asJHU1qcQi+MWZen1sltDzo0oeCIH+2LO+ThLe03Mo0paw8IO/BFF4/BbnK9MGp1+CSBwVxGKJjSDeST2HMq2dI0u+DFu/iFdhGndwEyh1P4la+4wAUcRGlKQH8/QcrOx2Svkid5AESjTwNnfjAu5jzJK2zxZVaQpTPR2UD5P0oJ6eg4l6AYGSbwaxnJWPZZMx98GJoGP2V/FQ0xhlukexkh/c09NVMrnQdmHH88ADnbxivr/IRy27oz86gwvr7YMmKcHT0xXSRm0Jy7GUxij8QSpzlVmAW9OaVImrja4GV/ly19NFWqcsKrkxp4QK4vDIml986yqmdHVtw7sJdYngt6h5OkRri7kofDhQ4tT/Wij+yZjtMEPXlG0QkQ6AIv7ISEXFJCnM07PetPZXVKXHgij8eaGj5V+NlQ5vsI5HFj0CvK1aUoBJSvT0rCVpZ3RK7rxCV+uCxjj8ijFLj54Yy32kSv4Ipe7j3kk960lrX0gIq8GrCmU50pihx7uhcbH8DJz0Z3klnqACySQFe3puLWlLpnxdjWx5w5i4ddROS5r/3pieR18RqHBndMqno9x4kpO/3kk9+0tmStoQqrLXYU+3I1vub8zMYyAoLJajodBr/BY1z/7QjsCiGqNTHnjAk7PeZ0zLoybgZu9I7EEnLcRifVXhCY3h6Wn7lKbauhd2c3jT0uE6LZISuJAhiMRERMD70Gd4m8r3TuppaZ2SP7n5AtnypMz3VdYLo+6b9b7RD5U+SOr7GxzBmPbmbRkN0QAdbAifST27M6VYjuA9lZsvjLk4gbHq1g9w2pC+1O9dLBPa296fL4sAmen0Yix/DyeYza0xeOgZ+H1SEMldzUszR+Oi8NOBCjmyG3c3TnLjeQ5Nss3NYM9TjZG4tKFz1k7GPDIHS2kEinHwm/ORxa+DT91MXwJ/mVPhd4OO1h3NS7cA9uticRAcMgzMsrqepAL4E695HB9+ZWOnHG3emTn4kHRS3jdKGX0WHfq0FRN+XwN7vFrvq3QEzNpwxFMg4y1wytXWdxhIrC+ZLN/JZYIj2//wMfPWTcG+HLz7AnzYmi2NiNpIhdc/yfeMXyx2MB+TOXiMp95HGstnKCfpHXVoke2pDVuJjfj7Bg4UurKF62sLZn4IznY07O8B64TvZn98DRkgIXJ+33xMD6D+Zdq1xpz0IUmsvh5Oisg1ZXRHaTvziZkj1yE+j4j1Wyhp5dY+l6eb7HZKvdn5T0Ulv8l+nGnyTEE5kAWP4i4WlLFv0eH6mhT4Ojox3jeP3TTzkRWgHByPF/XrCsCqwvA7V/LDSU/gSfHmo7MFynQuZMBDXwW+1F1KJD+Lp7uksRdUaQNv4sp1thzMgUrTypmCB0QjU05Af7fNnkLZV6fsSeug+P2Ske1X/p3+cJYDyC5z9MMnvKmv5IeT/BwI+mA+kj9Ax/zj+kscQD4K9+Ldh3jWVwf6rJ7pkcGURLstRPsdy1F606SZQx8goESrlbM/TtmTOnGo0ktw+HzlC2KxD7LKhqQX95fd2UnMR8l7uDNHOiCTNtJJY3krFVkLhXrWhzbQ4/dlhbh0vEtbuBrjlhwqxGsgW83vEKqUt+KaHZdNey+d89puZ6odKbCpo99iyufVgiOa3XBSc4znIei73O+d1C2yLbQ9KrkCbTLZpeMmOWCDfu5U2PPTdMp6+U2ALpg+eQG/PJb0olqxavyqtBolQDOvcnBlFwAnhCHX0TwfhiN/tY6Cnn2ndUpUNSvRFpfBTv7DNFPmoKMUY/lTVILLrT0nPUOtyO9gN2xEWsZoHwpR5zX0H67glId59szBfaQIHKdBzsXWSHrL71kfUtemlHuOA3fFuM2Zzc50yiAKf8IRWMqaVvCufEfp+BFJ/7Oe5BfrUSmULXDS05vKLf/P6CJzUBaUu7/gURWUMa3ANRxp7QDB+nX8fQNswZkzYLlCrshuTyzvteVrmrbA7+Ksxwj8p5z0gnqzO0OJKBeJyUF72+ZXSKQMXnWIKP4b6EafEOidtHakLm1lAh3P4zREdeogY+iD52JxEOS6jWMlbPve8tebVj9NqnX8CE7UZ2V8/F5r/FzAXijL/+EKC6OrTBHMn/+3KGtGccAMTrrWO+nAaI0OGfJtOOSfeYmsK2fAckOHvdaSmTzLqkn7AvrdekCosbJHcmOWhmcbDp3u9bkobC9GpW+5Mp/FqJ4vh9/JqfBOyLnFpY2em9IGNhh+xPlvvSvDBTQ3/02Dmv1145Rv6IyVcdtWSn15BbM4jK/t/RCsjf+Y9OI0aZ2Uv1NhQST31fM9DoCZFDJ9D1n0bsrnnXTLZFtqx1TyYejOqa4LFxCgavx1oEJnbiDQZbQSL79jQ0lelb4O4fSEatKb0iYVVZFFrEcJ9Af2S4yomYNbgALVcijknEtZXWlYl9jdfnIZ+m5Tc7H8olFf5iiWW3dBgP0VbOsFlwIs7aiSmMQZm+z1rGQFty4bso0MuV7KRWJ2dVmTA9Bn7UJnUGYn5fRO2m1g6AK8iAxwQSFq/YJRV+bYvTP8EsrFyyHnMtpUxRGSnyNtWtthObvZkr/S/5TtVslJH5QFKQsVigyq58IaeMZoV9d7jNiZgveRQqYjOOpsg8lwc1LbPtDBKzQwjna70j48ogQynQJqp6zImfwcadPaSxDLV4NInLzFxfzcJIqodzXe+IprhmaDBjeCI4ick+ts+ZwRO3PsgUyK/ss53JnTbazJzzFUaI2LFRcMbBb7cUYdmaN6jE0sHqScbBMXbRkBbcFWd9tQsu2D2vx22wBJX5AV7YNBxgcRcc7o+1EP9cfoRWIHROnzCqo0ZM/atTaBn+vQBgJBck/z+JnDHgDXpEqSsxDUv2tOWQlo4gneycLKy4i+dRjfOe/jQRweich4n31I1x60Msqsj3o4mnvrjOiZg4NsMNxLWbK4ZiD9JZ+Bz0Kjx99zOVfp0hmwHJOAjLNgD+tdG02v6g6lP/R3WTESXzNiDwzFaM4/51X4Y9btvLPQNWOrRHG5Ho6wUO8jLc/9iBE9W3RN2UYP2ceihQYzWJ3UGhaC9AYY1iLu6GEZb54yc/DQcch0I7LRcyajJz5HFqTeKk4p14Azcx1it7psoeQRCkjDx0IJZX6hS+UuG8TIsw5Z9I5GJfd3ZbKbc8mFuLQ3rzpEX/lN1wzo3ViVVcl2BMDvOzNXicDHKRoEjAuRNFZSTuMETtD6B3T3Ciqoa2GTDSy5jfT1w7il4ad1v8rs4jBO4QRpSJQJ8uFv0cL+kCvn7fKcGZRe34dcC3oEEydJHZKBkgrGNdmlTMnzoQIVXmC7DGTSM2RB266wv1et/Rmx0wVHS1HmcBfHChdrfKOkNYj61xVj8Q0jdubgFjXIdQrkWkoZXTOuSj++tBKZ8rxxkfw3I3bm0PYWy7OQLZe66pT8iWDWBu5jxM4WQcfsr6LmvxiR4gUqzDUn3YPGpsTLcIgr9BypI+Dhx8ZJH8ra2Kgn/f1KrAKvZt/IiJk5OC0CPR3D7hQdgEx6hixY1Rt+Rya/lYNkLp1zVAFPuoOTQsiZiBpv2CjS80GypDV+yPY0eOnu7c3OHNXfqFq3h/Gdy0UWVs6kZ6gH2Uba2NEXhl4ET/p3qRuQj8Mfcq4Ssq5z0ilVaUMRwbVQLh3myi6bzUIvEI/CvVB63IZIt9a1crfqpEr+BfJNcek4DA5wBFE4A+XkCzTEejop24Rtg6DwNv6+p1iW+7pyfIxe1aPk/shEf8LPDa4Fets2XHCCavFkjsEY0QcHzAnyh8PQ/gQl6/M8kx40C7Khq5EvFsubUDK5dLobTzBHFr0OhlmXtc62LRDx7+Lou1Oj2igLETDvse3jklNSHm0zKK/RNlMDh/rj/YI+np4jlEreX324hAfPilYmZJCFUPq731mRMnKd4VgEtpAGWgsntc+Kz4kao/CHrtxXyWoL9nEoWApMpkySPyt261++gIB2oUvVVk3APh6ywSR26vmwxkgSlZEFqXzKxE3VKC0PYxQ3omeKke3N2yK47Qvd3UQ5t1ZvVtckgs+jgQpPcuZEfqBQliNhE7y1/E1XV/UgS/L6h99x1ZcRe2hCHzOoSmfSUOzDJykmC1p5aChokPvB/V059p8VSI4LuSMRQ9Y1fcmk1imRjV5EVvq1S4epjVVzdoZM10HO562cveXPitQr9ZuvHD52MwLaeJfupq079EIGJeikzi0Qt40TxOINNNC1XB5mxM4c7B+yBGSGh6zrqDuS8lravzkyjYx7Jcrj/zJvzxwNCBBo9xMge3Vf5ZaCTJqk7mCTGyHj3VxA78pB6JmApQJLBijEuZPuuiOofBW/n40IurMRO3Ow7GYmRZa/ioZUiEUnGIELoEsJmc/LxbLRvDxzcL0z5JqEqklZp0zSeVasBgpV+jOc8lhXDppzAighx8GwWvBzg2vRlPJUGk4+BLkucm1AQN/u3dG6I1fQsG/vUgmmb3aO5TGcFrHBLknHWZDyWJl4VjEzuj71zmNTwKg+RCdFOdZWjKXexUEmKTYL2uiKPpyeIx1081spgnOmMPQDmNU5l8py0ZWASzl0sK205WMcJHNpT7DTYMnWpOT+6FvdyU65jmwONiz+XoxgcoTzK0NSxEQ4JVcZQTc3Q0f6zldX2o6kPJUAK54AL3BpfntQgeUZSt2D4KDz2cCulURsZPP7rbkodOas3awAY29Ae03n+IGLTsnsDVt6CvJdMKZzjjNH3PQL+jyhxXI0S82gs2XM2EjumkV/hoMJZh/p3T2dwgXaoMGfORWWYKATXDncKi1Urq8Qv4RjOnfulG0f2PBL4FXoLmUySMbjSPTac/gTz6VtUqUvb/XKLPYVmuLW7yHCCCi7E1HmSc6Tod/wPH5/FD+53vE3TUr8u3lLahjdUdoOyj4OhlCdI3XFEKwR4Cc31wqXDruqF7h8Dc8+DXTuuElrH7CVjYW4dCNLbSN2amAiQzD4PvzlevjNQtjF4+iqrYBM9KnH4KB305e48cG8ZfPgKCSPe8CD6WsHrMJ70v47HHc5vuicLCa2d0M/AQ81NYjlSitXUgNlQcpC/VA26PFyroBx5aKeWoEVFezkDA6M8Vkr9pCsj7RJp9TyKLk2F4lbckp+M1jS/I9G9FSgt7gpeSCqqLvsyifS2qql9SU4bZSLw73N2zdFMSoV8EB68y8fMOnBLfn/+eH6dZWr/E7JomPNQ4uLqnQZZKrbTcP9pW2AIBavI1Je7dIcaX/BNkZQhlOKJ95hAwnPnwW1oSv5Fmzyfl7hl8qxID3AMpULF/T3m9mGvvoSqtKX8d6jNukSsTxBFFT05KQP2Bz5wSSVggaLOSSdRSZtKovd4ACzoRRn12eaIHYu+h67GLEHDbR9ROJY2ogN3i7pmPo1Om7naZFpD8zpfafIlHCw2WjjfgUtk1xegX1MNB87YgRPAsP/nLa1jtmbFIhfoBWkxNFpK4hRkreTIbK3oKTUW9RcMyAdxGL5CAz9ZJaGRnRnoc+ARVvC4B4wxpP4bFmR7Wt0+lc4xml96rvVGLmopcCrQijLQBMD3w8nX1qtQnlUBk9Qr5UhU1lozLfhJAvwRUekvYFXLxDXewKls3sCjTycI70Q+v+4Ed0ZMGBzm59dv8s27fkMWZM6JOGUryIZ/DanZn/ZiJ4aOJaAwHUdvv9Z6qfG/vPTypcg4tQ6IlJQHdGUWIu/5/JkhLR3d3D6BRnqEJS7i6w8veXMilYe/mRWyqIUSwIDKUc10Y//A4zOuSM8aaeVdhSvwLaupFOmPdhm+t0n52OxnJmu1r7D50PQvk9Ps+SUuLdeDcDPpfAwQB7bf62eXuh9vVmdwSMvYGxn4vsf5IPXWpkDodVP5W9xC+eSs1oXy8E1yDCdTkmZXHJKyqJLPn1HjpDchG7ETg278cREJU/kCDX1Uy874rNyEFGv38Y/rOv9glqTX0jHQLR7DpzeGLfkzDOnBq6dhPFdjAZ+eqB9g1rT6geGtwrO8X+BCsfzdAAjel1RWUAgp9ppERf1UnEEcQv0s1/aCzy4lLQxCr8DWW6lPPVyyp7k97BbMSLNxuCDGcd4Boo+P4uRXZSQo/jddFIXjZH6gSG+gn7zDcW47StG7JpjTEdpOwSBn3GAqtsBkuVKm9RDD3luRsA6NIsrNoqcI1VCIHhtqLTLprLWg9om0d1En1OuTnpBPWmdAv3BR/H3zxsXy88YfaSGcSjjYAAz8P16cbZLxlmVR8kV+HtaLVdjccCMAw6Vk+MqbdHzu7OkdUoOKCJoLIRTHJj2OUesWFjZQfclyJPJckR+n55S4YBE0gvqTdsQ/AknLUOOY9IeueRgwhjV1oAoNRv90tWMjk46qV72JU7lfKMRfauhr8uvTJDfic/a6FLVQDls9kZ53VGM5A9SHyBDucybv4qx/B1Hga08SfLWk5U2Eet1n7NJtZ6WZfTs6aQ0HBjgvpzUNSpLBXqutzL9MoeDDq4ZbtVJ9drm8IdcvmhE3yI4So7MOwFZ6LZ36Drhu7KgfTbIFEH3Z/NGOyN6auDCEI5HsIrMWj8VXxQL9uZoLSdug1g8pRs/4cVpUgvGw7ViIbhRN+3OP0sa9jMgy1w2kEtOSnYbjlgAHR03YQsnBHJdKasCVCZrXXsWq19WBez7js1gAYF1Sp6C4IJ+9PfrE+RLRxsRucpBTK4oKvlNaZIC6kEjlJn4e2YWuwm4eTpQLYfi+++hTFlH0960hoSuwM2cQ+49PYXqY1cY3QwEmpfNAFzi52RB6pLyI5O/iMBxPkeLjdipgbubELCmQJ5lLnVlKEugxB3vKOm/Xr7+k/ifc11qSCqMZCMis/8e0XXntKYXLBBZP4k+yE8gzzKO2LnkpJSDRs7+EWSbB2c8qHINhrgGfz9r9Zf03ixo5ckp8Spk/p0eiU65MuKYBvTE3TSPWf0lyZoFdcBVpRWc6zbidoMHQ3GEii9ysVGh0Jeg0EubOttSP+ZRH6AViZNzUajLH5cataqfypLJ9TQ6l9qP8lQqIck53Ou4SSH1hShx+C/I0oeD+tJnknIlyZs2rX7Qdssh335G5E3BC1IRdae6OgdImSDfS8ii5/DSHyN2ati9M/wSZJkG/TzlUpVBUhaX5CF1e3FaRImbOFKctlOaLVyHQIaFrjklaYL8Oth0M+ffjdjvDi6zgyffyA9w7YEoj34oXrvGhQwZnMigj25hf9jBgRYXaB0BOnqgoErf3erjOAYIHjLGFTbsk0Me5xbu01603Sj5MOXc6u4ad4/nOlsO5mQwP8zFqEOiP/ogAsnJaa8g4RRFQYVFHcQcXCSeNq2NaDuB0cExjkn9DlT0YRk4YbOzIINze3utfpBUXkZg/+XoeNbAzj/m5DWM7yQ4wRIo3Kl9kpSD8qAs2AAn6eR5LVk4qZ5H5MjuMHVSPrMxuifRBudlsVd1TLn0VXQ3roUdvFJ1ggRZs6CVJ6icxXWD7nfX8poHGj28/QR8+OJqYyQIkgXf4aRK3M79nGkfUbHjsmnvZYkCee6hbiqd/GR5hwp7POfTsI1fZXESPucq8d1TEBj1vkrX7NLo5zVm87pfj8Ej/3MqvBDKWOHioAgbiCOXgRLXZbL7pb3tY3kV/hj6uZOG4pKx1IrW6OAUz6F8vCqLuWi9cD8Kj4csel+lS3ZI0g75E5XE3Fzau2l4cxWy6BXce0YDdNFJOeqMbHoVzws1YqcG7iNFFp+EMiuyTuqaAW0tKT+fA065Cs81PdeB8ixljFXhJ/DdJ8PoF1Aml4Kf1Q9/ImjpQ8Yy20TPheONcfgVljSch7RGmCR4FqSDWicNIjGtIYORXc6xIYtPQpBY2rPxkuR1lZS5UpGI1xGQZzZELbunffwM91XS2OGYC6g/l7JltV2V3IiK6f5CuXQY58aN6NliSlfXNlzRDyedDQFfZkO6ZIDWIWBc7BudSYcxoqcGNhYy6QUwrscpD5kkq0u0Rofg9hr+noMAMy7tvjw3QcCmvllUpTvx/W/Ztuwta1a0ts7gi8B1Shb7TvsMLiFDjT0XhrjRxeimnUKJRcikx2YR3XgiA4z9IjTkShf7SpY0Ou2YStwOw9vfiJ8aWJUVY/ENZKLrOIbgmlNSnkpVJh9hwN9zydxPGdHdBksQrsyAYksod528b1NHPCXvQiY7KotbwjhHCjlmwvBXu1Rp2LaC0S3kuuIsTgdEN6CBTslM6VoAo35I7ZSxODuLhfs1ATvDjLpQ9p+pYNvwSQ+dBdnwkG8D+wkodY9Mux/Fw7wCFY5nd4DyZKUf2zYkqopHIc8JwQA2dvcXhbiU4yg72mOFSwGLpG5MplwZROFZxc7STkbswQ1OL3CPGh5yMRXukuKtPDCItTDM2xEN90n7ynGuxiqW5b6Q4U5kq/Vp6sc6JfvjXLNcWCx2MGKlAgbE3aPZX4DRX85J+mqQSJA1C1qnRCX4EuzjsizWdKeCUdGsf9YDMko8XHWKBIVkQcrDhoCRvI1G+CMy6ri0j6ncqzz3I5DjOASIznrrxxqdyQQzuAfUiJEaOGcOW5gOGV511SkRLF9A0OTVjg1G7KENnroH458KJeir49LKEn2hdVJkkjfgpNcUy62pn5HKfaQo8Y6HQcTUTy2Ntur0Sr7JVStN5dKm+wfrDGZntP+JCNTVLVxJsmbFqn4icSO7HWnvpnEC7EwzckIhzl1PTlnMYMQrMKJfZrGQgQujYSBncPploEGM77VOgMzcBr1PyGJaJF8Ov4PytYO61U7QS86saPVDQj/zUUnsyyWZRvThCT1kXrl+sAQj7NO1aWmS8tCI4KBPwFEuzmKLGqL3zij9qquxyCRZk2iNjhPkyJQL8W8HZ7E5AOXhkciW98Hw3xhooKklezolgyAHw3gyiBHdg9CTzbwlrNLfc2oIvWrgIIyLO9Z/kfaB2AxiXC4HA7rRLvR4NyelrFUdmqNH0z4DlgNrjZHYQwdeVXprSzKnTSsP7O0hyHhSFucnDypwY24+kj+A8u6BUenzVXsrNStaJ9UNGstHCmX5P+wfGtFTA4xpHBy0GYFCn5poS0SSv5PsM0NGZsqzuM7XvDU1cDE82k9Sb5RRB4le+syKlKdiV+LxIAovyeLqwEGNke3N26JxuSa1w0a4JEVnxarBKXE750jHL5uX6vQLoecFo/DndFQthxJ/Bm9CFvgt9HYgF4mbl6YGHrdR+X7xHNvNJaekLAxcCGqvQT9XcfOGEdujP6iM7IU/hkL19IJLUdg2Nn+HfPNhmAekvZCB4MAOV/KwLAsi+WHzz6mC7YTAcD775tSJS8HU2g0ccjWqicv1FreUT/4b0tBnjfKODyX+6qKT6jJJiVVcVwwHyad9jGdWYD8WDnkmSsTlVT0k6CgLVp2yMi0mETwa2Hc3onvUGswONIYgEvrKOpeMgYZAor/3Gks73nlpxB5y4GZnjsDCKZ3br0o5mL1R7r+JgD6Hc5VZVDTDFrkO8XmUKb8BtZPSOJIaKgvaiI3fedXhLwbt4ugE6ExZ5n2VcoFrTklWgrVYD73/Ef3xw3ymzBBcHEAn5egkG8YlQ6HhapmU5FWHlwTllv80Yg86cMBL9/3NhUguVSykDRRwzPmoqg7RFwF5OAB07tnPQyl5HRrKudVGNGQSfZ6HYdxT015cPhDwDFjIvD+6EndTp7pcdES3lMO2daCkYpntzAkEHu8EV6Kgj9HEaYUmVXJqnyRZlUfJFflYTN4tg6mOvoIjwIW4tDf0eQ8vlXJVl9Aj7y49bdxS75SDAoz2Yxa37scSDHR2tRFK8QdzSpzQkMH1+5sDA1ylChHXwDHXuOaU1B1l4pQN91WOXjR4qhCPHuCJDDD+w9Go91qn6N3YWdHKQ+qSTJX+m/s6jeiZQG9EiOXvOKDimlNSFu2UsXwV3YPpfgHBEAH3kQaROBnZ4EmbtZIMICvS6OgQMLybUaZ9L+19pMiUu0I35+P7H3HRKdlmkI199la9hctj6GHMYvF5NPglaOjnbdbqbQxZkUZoyu81cNQWlOPjeB2+Eb0u4PI+BK1j2W+jU1aCRLJ8adM6JQ/3gnx38KSIrFY/eaQEGjwvboUB3FBQpZfczRTidY4+81zgrhovNdPHxsSl42D4jxRj6dw2PbYJAiicUj7Aucq0j43xcADMTnklpGuDRiRl0ZlMyWfhqBfV4uwazlUGsTiIc4G2cnDNKSvPLMo8CYKbH4zoHsMRXNYFwziYpaTLAyH4fRn6XJOY9YzoW4WcPgNWyB6f5wwZJCp6l0sQLKfwbCEjtofHiBG7qGs/gD7NvswqNBgasWtZhYMiyPL3g0f09YiRhvLsXVAazmAJ72J1QMdE0HgZjnneYF5B5ZECmJmCSEyE8dzcHdHdMGjKoZ1UibXc/YIMs+fmFnR/Tc3aviEKz0UZ+xTfo50g4TOzoNVrpWSX545Vc3b2W7g8+gyOZKKvdzaX3FWNKcHQsqDNODDsdXDUq1kG8pgXfdJ+JbgcYuUmXQkuVo/I/C9xBDYXhd8y6vbw2HroLWo8dj8Wzt0DaTMpysJHYfDXw1lnBrG8NVBuXviDn2sQTGY3RuFeaZ/85zGEwRUpcNDpMK5VNDSXDN9mJEtXZKMcNkggeMxDKb6fd0qPukDPkfIYz1je4GJ2coU9nZJLE3kQWn9HmT08tgrs2/HIR5ZoMMbXXcukWbJbFyIqxvInWZxO6OGhz5ItROLbHNxA2baBhplksMOBzJTsk8MpHy+q0hQeY2LU5OGRHbjmM1DhjwpKLqWD0lCTDHgoklmSTokA9Qae//9Qwo40avHwcAc80AtOehLXrNo+11Atd/lclUpBrMffMxtVy7hheeGPx+ACN09zC1YQiZV00qGUSemUJvBwjvVu7hZhH9w8uofHIACySCEu/QfKvUuRSVcO9nKXTmnneQPeVF5unZj15nAPjwEDxtzA7V8w8uddW8jQF9oR2GIsF+RjecoYv1vEY6gh1xmORR/tRm4gtgaf5AyukPJRTr3vU8kT/cl2HkMalRMCxT7Ipjehz7bRDhwlOUcWpCy2n5xX8ln821m7R7OH7Mn1Hh6bgNMvuc6WgwMlO+AE+u7KrJ3UOiW3cCFw/CpQ4c5GXA+P4Qd9H6mSR6Av94AtI5Mcp56kQ/J7kdGfhlNe7U+28/DogT2WzPooSt1TkbXKdBSdwRIcqZZkMNADVEquwnf/obBYjjbieHh49AZPA+AcKZznmXqVujZDcz8oB6gKZbnncLmy0MNjwMip2V9GRrsQDvR8rTJp1SnRx0UJK7RT+rlKD49+oGvKNrxFDY51w0DvK+l+r1iAzLwfT04w3+Lh4TEQmHON7mUG3ZqFDPb1+P3pQIXn8Hp685EeHh61gj7XSIkT9JpWON3mMin/reqUSj4bKDE9XxaB+RgPD496YXRHaTte0IS+4zw432o6Ih2yJ4MofBL/79dBHI4yb/Pw8EgL7DeOVa3bc1kgt6rlYzEZ/cnDG+OWHB3YvMxjUGLEiP8Pe3BHzU8oDrgAAAAASUVORK5CYII=;" parent="kMgDOZqCUU3ec5CZU187-14" vertex="1">
          <mxGeometry x="10" y="6" width="16.97" height="15" as="geometry" />
        </mxCell>
        <mxCell id="kMgDOZqCUU3ec5CZU187-19" value="" style="group" parent="kMgDOZqCUU3ec5CZU187-3" vertex="1" connectable="0">
          <mxGeometry x="140" y="70" width="130" height="60" as="geometry" />
        </mxCell>
        <mxCell id="kMgDOZqCUU3ec5CZU187-20" value="" style="rounded=1;whiteSpace=wrap;html=1;" parent="kMgDOZqCUU3ec5CZU187-19" vertex="1">
          <mxGeometry width="130" height="60" as="geometry" />
        </mxCell>
        <mxCell id="kMgDOZqCUU3ec5CZU187-21" value="&lt;font style=&quot;font-size: 8px;&quot;&gt;50 cards&lt;/font&gt;" style="text;html=1;align=center;verticalAlign=middle;whiteSpace=wrap;rounded=0;" parent="kMgDOZqCUU3ec5CZU187-19" vertex="1">
          <mxGeometry x="85" y="33" width="40" height="20" as="geometry" />
        </mxCell>
        <mxCell id="kMgDOZqCUU3ec5CZU187-22" value="&lt;b&gt;Rechnerarch.&lt;/b&gt;" style="text;html=1;align=center;verticalAlign=middle;whiteSpace=wrap;rounded=0;" parent="kMgDOZqCUU3ec5CZU187-19" vertex="1">
          <mxGeometry x="35" y="5" width="90" height="17" as="geometry" />
        </mxCell>
        <mxCell id="kMgDOZqCUU3ec5CZU187-23" value="" style="shape=image;verticalLabelPosition=bottom;labelBackgroundColor=default;verticalAlign=top;aspect=fixed;imageAspect=0;image=data:image/png,iVBORw0KGgoAAAANSUhEUgAAAOcAAADMCAYAAACIn7TVAAAAAXNSR0IArs4c6QAAAARnQU1BAACxjwv8YQUAAAAJcEhZcwAAFxEAABcRAcom8z8AACuASURBVHhe7X0JfF1VnX9lFkcdRR1XZnSGPzgzIiJaR0tJ3n3vpaUVKiBQGRBUtpEiiqwCRYoU2VGLAgXqMFIEmuae85KWsillE1qa5J77WgoUpELZyk4LpbS0+X+/553zEtJbmibv3XuSnO/n8yVJecvv/s5vO/sIj8GLUffNet/ojtJ2hUh8uxDLaQUlLgMnBR2tOzYtFf9kXubh4ZEWmmL5xWJcOq6gZCmnxFNwzC78rdkEBkq+BXbAUc/PdYZjR7Zf+XfmrR4eHvVAU1nslldyKpxx2dhya9cY0DolHdTSOilfg7/X5GN5Q06F320oz/2I+SgPD4+BYkpX1za5KPxWoMRNeSWeoEOSPZ3x3WidlNm0qOT9yLrHNHTO+rj5eA8Pj61FEMkPsy8Jh7wd5ekqmymTHLAvZDblZ+DnOmTfpcimp49eJHYwX+fh4bElwCn/LR+L78Ep7y6o0gZmPjLJ4fpDW/LqUljJFfi3s4rl1l18v9TDYzPIdYjdgig8qxCLznc4UIKD1YL8bJLZGFn0+SZVuhpBYZ+JS5r/3ojk4TG8gUyZh1P+mllsoKVrf0kn3QPfq0d5YxkWVenoYEnzp4yIHh7DBzshOzUpMQF9v9uKSj5Lh6xl6dpf2kxajOX6IBZLAiVO9fOlHsMChY6Wf4XhHwmHvAsl5OuuOGVvVstdJTfAQR9mZsfPBt8v9Rhy4IALDPx4lIuP0fDr3Z+sFa2sJJxzLVcgFWPxDT9f6jGowfnJoLNlDPqSv0UG+ourWbKvtNm0EIv1yPpt6Ct/f9SSWR81j+vh4T6C5df8QxCHB8CIW2DUz3OgZTA7ZW/SSfXKIyU2croHPAHP+y/m8T083MOY9uZtYbwHV+YnxarBnim3RJtJ2S8FHwIvzHWIz/upGA8nMLGr+W8KZTkSznhqoKRiyWf7aEkGPRRp+6X8ib+fAWcWIrGHH+X1yAQctSzEpVxjJC7lQIl1SGOgw5J89l6OenOx3DqRW9qM2jw86ocJ7W3vDyJxFDLlbGTKF1nWDWeH3BypE6ubJlW6GwHstMZF4aeNGj08agdkgE8WlPwReGc+lm9zQGQ4la79JZ3T6iofi07o7txiZ2kno1YPj/5j9/bmzyLqsz/5GFfN+EzZP/bMpNDnc3klrg4iuStHto2qPTz6hsY4/EpTLH+OaL9cl2agd8qB0+qSDGL5KroH18BZJ4xV4SeM6j08EtDV9Z7GuCWHPuXFjO420nunrA+pV+qYv+eVvK1QLh02pnPO50xreHiYkVclD0WWFPjpzCL04ULrpDqrqpLCv13i+6XDHDyqAxnyaDjlHTCINX6QJ1taJ2UboE0eR9tML6iwOLK97f2myTyGMsYvm/feXCy/WIjFxciSPAVgne0D9TYWz+zI9qCzFlVpNRx1fj4K9/LnHg1R6PWuKhxf4Cihki9ah6QBJBmHZ/bUzmnaKa/ERmTSu9B+k3iMi2lWj8GMiUvm/2MQiYmIwNdzl7/t2yQZg6e7ZJux7ch8LBei6jmpELV+wTSzx2ACS6BiLH+io63pT3qnHBqsjg0o+VAQhTPQTWk0ze7hKjjqymsI0EeZDHI1il/JM0RpMynbNojlSgRhgX87YC+/CdwtjFW3foAnoRdiMR18gQ3n+5PDh2zrSnvL9Wj/Tm4CH7Ok7bPGPDyyQKNq3b6gxOF5Ja9HibPaOqR3yuHJnkE50PfEyJ/5kjdlNC6Wn4FDngjHXMTSxvcnPXuTTsoTKNC1Wam39UUyb8zHox5o6Jy1E5R9RUGVymwAOmbvRvH07Ek6Ke0EwfsZ9Etbc3G4NzfIG5PyGAg4P4nI97V8jOgXi6d6KDuxMTw9k2jtht0f9EtvQYD/rt9f2k/wVLdc1FIoKvm/cMo3qFzSO6XnQGjtiL/z0Gx2j3hsKTc9GNPz2BzYnwwicSyUN4dO6bOkZz1Im7KOmlfiSfx9eaEs9/ROmoBcZ8vn0B84PYjlQirMD/J4pkXaW2XwSLwG+5vFkndke/O2xjSHJ/Qi9M6WPakQlBd/oaJ8pvTMinRS3S+N5RpwMfqmJw+7xfZjOkrbFZTYL1DiJlu6eqf0dIW0Q9ojEoY+j7cYy58G5Zb/HNKjvFw0AIecxFUcVAAjlXdIT1dpbbSSTcUrQSSmceZgSPVLzfzk6UUlF3mn9ByMpL3qbBqLp8FrkVH3D+bP/1tj4oMMXVO2aeyUo3MqvLCg5NIe9byn56Al7ZiDlWa+tAVOesSgOdl+/LJ5Hyqq0n/nlLgXD/O8jTg+U3oOJdpkk1diLY9N1feXutovpWA8PQ0R5c4glm9TeF++eg510r6tnXO+FP92ydjFrbuPum/W+4xrZAde4oPUPhUO+VfvkJ7DlbR5spJN5VtBLH7PacLRD5U+aFwlPRTi0t4FJa5B3f04BaJTJgnt6TncWHXSynzpzfk4/CGvhzSuUx9w0QBPQUP6lhxaZseYQvQWztPTs+Kk9BFk0g25KFyAnyfW/JJhrpLABx+Yj8UdRSVX2fI1SSBPT893skcmfRtJbTkqzgsCFe7MZGdcbOvBi2bwgafgAxfwS7xTenr2n3RS60OoPl+GX80IOlvG8Owr43JbBjMlPPukoiqtYFrmh/GDk77Q09Nz62lL3kBPxYjpeVX6unG/zSPXGY7Fi+/yWdLTs/60JS9nO9BtnLzZUrcQiW8XlHyWHu0zpadneqSD0udQ7v5qk4UMxVg2ct2gH3319MyGtlrlYejGLc1hzErc5B3T0zNbmhL3kSYl/l07ZyEu5QpKbEx6saenZ7qkg7L/qZ0Tv1zkB388Pd0gfZHZM2hv+9gIdEL1ObCenp5ukINDxXLr2BFBJDYkvcDT0zMbVkZuwx+jz5n8Ak9Pz2xI5wyUOHoE/vNE0gs8PT3Tp11jkOsQu3FA6Fr7D56entmSA0J5JZ8NljR/is65j3dOT083WNlmJmbrpXx7P1T6IP7xXv5j7xd6enqmRybJoiq9VYjFQXqekyiWWycina7x852entmQjql3qkTiRh6UZ1yzctVeLhJnc9e2d1BPz3RJx+TKIJ5aOVa1bm/cshv6GJJYTAZf4wt9P9TTs/5kMjTl7E28FcG4YzKalJjA0w/4Jt8P9fSsD+lfZh3tUwUlfrFXee5HjAu+O3ZT4SfwAWfBoyN+iC91PT1rR5P0XgNn6vtX+oPCYrED+qFT87F8xpe6np79J33HlrAFJUv6st5aIKdmf5mpF066kk7qM6mnZ9/Y0ymLSt7FE0eCSH7YuFaN0NX1nsLi8Etw0ssCJV/0TurpuXnSGekj+H1doMKFTeXSd0YtmfVR4031AzdooyMreI4t62edqhME9PQcjuzuAooIyWwSF/oY10kPXLzAE+B5eZGJEp6ew5asJHU1qcQi+MWZen1sltDzo0oeCIH+2LO+ThLe03Mo0paw8IO/BFF4/BbnK9MGp1+CSBwVxGKJjSDeST2HMq2dI0u+DFu/iFdhGndwEyh1P4la+4wAUcRGlKQH8/QcrOx2Svkid5AESjTwNnfjAu5jzJK2zxZVaQpTPR2UD5P0oJ6eg4l6AYGSbwaxnJWPZZMx98GJoGP2V/FQ0xhlukexkh/c09NVMrnQdmHH88ADnbxivr/IRy27oz86gwvr7YMmKcHT0xXSRm0Jy7GUxij8QSpzlVmAW9OaVImrja4GV/ly19NFWqcsKrkxp4QK4vDIml986yqmdHVtw7sJdYngt6h5OkRri7kofDhQ4tT/Wij+yZjtMEPXlG0QkQ6AIv7ISEXFJCnM07PetPZXVKXHgij8eaGj5V+NlQ5vsI5HFj0CvK1aUoBJSvT0rCVpZ3RK7rxCV+uCxjj8ijFLj54Yy32kSv4Ipe7j3kk960lrX0gIq8GrCmU50pihx7uhcbH8DJz0Z3klnqACySQFe3puLWlLpnxdjWx5w5i4ddROS5r/3pieR18RqHBndMqno9x4kpO/3kk9+0tmStoQqrLXYU+3I1vub8zMYyAoLJajodBr/BY1z/7QjsCiGqNTHnjAk7PeZ0zLoybgZu9I7EEnLcRifVXhCY3h6Wn7lKbauhd2c3jT0uE6LZISuJAhiMRERMD70Gd4m8r3TuppaZ2SP7n5AtnypMz3VdYLo+6b9b7RD5U+SOr7GxzBmPbmbRkN0QAdbAifST27M6VYjuA9lZsvjLk4gbHq1g9w2pC+1O9dLBPa296fL4sAmen0Yix/DyeYza0xeOgZ+H1SEMldzUszR+Oi8NOBCjmyG3c3TnLjeQ5Nss3NYM9TjZG4tKFz1k7GPDIHS2kEinHwm/ORxa+DT91MXwJ/mVPhd4OO1h3NS7cA9uticRAcMgzMsrqepAL4E695HB9+ZWOnHG3emTn4kHRS3jdKGX0WHfq0FRN+XwN7vFrvq3QEzNpwxFMg4y1wytXWdxhIrC+ZLN/JZYIj2//wMfPWTcG+HLz7AnzYmi2NiNpIhdc/yfeMXyx2MB+TOXiMp95HGstnKCfpHXVoke2pDVuJjfj7Bg4UurKF62sLZn4IznY07O8B64TvZn98DRkgIXJ+33xMD6D+Zdq1xpz0IUmsvh5Oisg1ZXRHaTvziZkj1yE+j4j1Wyhp5dY+l6eb7HZKvdn5T0Ulv8l+nGnyTEE5kAWP4i4WlLFv0eH6mhT4Ojox3jeP3TTzkRWgHByPF/XrCsCqwvA7V/LDSU/gSfHmo7MFynQuZMBDXwW+1F1KJD+Lp7uksRdUaQNv4sp1thzMgUrTypmCB0QjU05Af7fNnkLZV6fsSeug+P2Ske1X/p3+cJYDyC5z9MMnvKmv5IeT/BwI+mA+kj9Ax/zj+kscQD4K9+Ldh3jWVwf6rJ7pkcGURLstRPsdy1F606SZQx8goESrlbM/TtmTOnGo0ktw+HzlC2KxD7LKhqQX95fd2UnMR8l7uDNHOiCTNtJJY3krFVkLhXrWhzbQ4/dlhbh0vEtbuBrjlhwqxGsgW83vEKqUt+KaHZdNey+d89puZ6odKbCpo99iyufVgiOa3XBSc4znIei73O+d1C2yLbQ9KrkCbTLZpeMmOWCDfu5U2PPTdMp6+U2ALpg+eQG/PJb0olqxavyqtBolQDOvcnBlFwAnhCHX0TwfhiN/tY6Cnn2ndUpUNSvRFpfBTv7DNFPmoKMUY/lTVILLrT0nPUOtyO9gN2xEWsZoHwpR5zX0H67glId59szBfaQIHKdBzsXWSHrL71kfUtemlHuOA3fFuM2Zzc50yiAKf8IRWMqaVvCufEfp+BFJ/7Oe5BfrUSmULXDS05vKLf/P6CJzUBaUu7/gURWUMa3ANRxp7QDB+nX8fQNswZkzYLlCrshuTyzvteVrmrbA7+Ksxwj8p5z0gnqzO0OJKBeJyUF72+ZXSKQMXnWIKP4b6EafEOidtHakLm1lAh3P4zREdeogY+iD52JxEOS6jWMlbPve8tebVj9NqnX8CE7UZ2V8/F5r/FzAXijL/+EKC6OrTBHMn/+3KGtGccAMTrrWO+nAaI0OGfJtOOSfeYmsK2fAckOHvdaSmTzLqkn7AvrdekCosbJHcmOWhmcbDp3u9bkobC9GpW+5Mp/FqJ4vh9/JqfBOyLnFpY2em9IGNhh+xPlvvSvDBTQ3/02Dmv1145Rv6IyVcdtWSn15BbM4jK/t/RCsjf+Y9OI0aZ2Uv1NhQST31fM9DoCZFDJ9D1n0bsrnnXTLZFtqx1TyYejOqa4LFxCgavx1oEJnbiDQZbQSL79jQ0lelb4O4fSEatKb0iYVVZFFrEcJ9Af2S4yomYNbgALVcijknEtZXWlYl9jdfnIZ+m5Tc7H8olFf5iiWW3dBgP0VbOsFlwIs7aiSmMQZm+z1rGQFty4bso0MuV7KRWJ2dVmTA9Bn7UJnUGYn5fRO2m1g6AK8iAxwQSFq/YJRV+bYvTP8EsrFyyHnMtpUxRGSnyNtWtthObvZkr/S/5TtVslJH5QFKQsVigyq58IaeMZoV9d7jNiZgveRQqYjOOpsg8lwc1LbPtDBKzQwjna70j48ogQynQJqp6zImfwcadPaSxDLV4NInLzFxfzcJIqodzXe+IprhmaDBjeCI4ick+ts+ZwRO3PsgUyK/ss53JnTbazJzzFUaI2LFRcMbBb7cUYdmaN6jE0sHqScbBMXbRkBbcFWd9tQsu2D2vx22wBJX5AV7YNBxgcRcc7o+1EP9cfoRWIHROnzCqo0ZM/atTaBn+vQBgJBck/z+JnDHgDXpEqSsxDUv2tOWQlo4gneycLKy4i+dRjfOe/jQRweich4n31I1x60Msqsj3o4mnvrjOiZg4NsMNxLWbK4ZiD9JZ+Bz0Kjx99zOVfp0hmwHJOAjLNgD+tdG02v6g6lP/R3WTESXzNiDwzFaM4/51X4Y9btvLPQNWOrRHG5Ho6wUO8jLc/9iBE9W3RN2UYP2ceihQYzWJ3UGhaC9AYY1iLu6GEZb54yc/DQcch0I7LRcyajJz5HFqTeKk4p14Azcx1it7psoeQRCkjDx0IJZX6hS+UuG8TIsw5Z9I5GJfd3ZbKbc8mFuLQ3rzpEX/lN1wzo3ViVVcl2BMDvOzNXicDHKRoEjAuRNFZSTuMETtD6B3T3Ciqoa2GTDSy5jfT1w7il4ad1v8rs4jBO4QRpSJQJ8uFv0cL+kCvn7fKcGZRe34dcC3oEEydJHZKBkgrGNdmlTMnzoQIVXmC7DGTSM2RB266wv1et/Rmx0wVHS1HmcBfHChdrfKOkNYj61xVj8Q0jdubgFjXIdQrkWkoZXTOuSj++tBKZ8rxxkfw3I3bm0PYWy7OQLZe66pT8iWDWBu5jxM4WQcfsr6LmvxiR4gUqzDUn3YPGpsTLcIgr9BypI+Dhx8ZJH8ra2Kgn/f1KrAKvZt/IiJk5OC0CPR3D7hQdgEx6hixY1Rt+Rya/lYNkLp1zVAFPuoOTQsiZiBpv2CjS80GypDV+yPY0eOnu7c3OHNXfqFq3h/Gdy0UWVs6kZ6gH2Uba2NEXhl4ET/p3qRuQj8Mfcq4Ssq5z0ilVaUMRwbVQLh3myi6bzUIvEI/CvVB63IZIt9a1crfqpEr+BfJNcek4DA5wBFE4A+XkCzTEejop24Rtg6DwNv6+p1iW+7pyfIxe1aPk/shEf8LPDa4Fets2XHCCavFkjsEY0QcHzAnyh8PQ/gQl6/M8kx40C7Khq5EvFsubUDK5dLobTzBHFr0OhlmXtc62LRDx7+Lou1Oj2igLETDvse3jklNSHm0zKK/RNlMDh/rj/YI+np4jlEreX324hAfPilYmZJCFUPq731mRMnKd4VgEtpAGWgsntc+Kz4kao/CHrtxXyWoL9nEoWApMpkySPyt261++gIB2oUvVVk3APh6ywSR26vmwxkgSlZEFqXzKxE3VKC0PYxQ3omeKke3N2yK47Qvd3UQ5t1ZvVtckgs+jgQpPcuZEfqBQliNhE7y1/E1XV/UgS/L6h99x1ZcRe2hCHzOoSmfSUOzDJykmC1p5aChokPvB/V059p8VSI4LuSMRQ9Y1fcmk1imRjV5EVvq1S4epjVVzdoZM10HO562cveXPitQr9ZuvHD52MwLaeJfupq079EIGJeikzi0Qt40TxOINNNC1XB5mxM4c7B+yBGSGh6zrqDuS8lravzkyjYx7Jcrj/zJvzxwNCBBo9xMge3Vf5ZaCTJqk7mCTGyHj3VxA78pB6JmApQJLBijEuZPuuiOofBW/n40IurMRO3Ow7GYmRZa/ioZUiEUnGIELoEsJmc/LxbLRvDxzcL0z5JqEqklZp0zSeVasBgpV+jOc8lhXDppzAighx8GwWvBzg2vRlPJUGk4+BLkucm1AQN/u3dG6I1fQsG/vUgmmb3aO5TGcFrHBLknHWZDyWJl4VjEzuj71zmNTwKg+RCdFOdZWjKXexUEmKTYL2uiKPpyeIx1081spgnOmMPQDmNU5l8py0ZWASzl0sK205WMcJHNpT7DTYMnWpOT+6FvdyU65jmwONiz+XoxgcoTzK0NSxEQ4JVcZQTc3Q0f6zldX2o6kPJUAK54AL3BpfntQgeUZSt2D4KDz2cCulURsZPP7rbkodOas3awAY29Ae03n+IGLTsnsDVt6CvJdMKZzjjNH3PQL+jyhxXI0S82gs2XM2EjumkV/hoMJZh/p3T2dwgXaoMGfORWWYKATXDncKi1Urq8Qv4RjOnfulG0f2PBL4FXoLmUySMbjSPTac/gTz6VtUqUvb/XKLPYVmuLW7yHCCCi7E1HmSc6Tod/wPH5/FD+53vE3TUr8u3lLahjdUdoOyj4OhlCdI3XFEKwR4Cc31wqXDruqF7h8Dc8+DXTuuElrH7CVjYW4dCNLbSN2amAiQzD4PvzlevjNQtjF4+iqrYBM9KnH4KB305e48cG8ZfPgKCSPe8CD6WsHrMJ70v47HHc5vuicLCa2d0M/AQ81NYjlSitXUgNlQcpC/VA26PFyroBx5aKeWoEVFezkDA6M8Vkr9pCsj7RJp9TyKLk2F4lbckp+M1jS/I9G9FSgt7gpeSCqqLvsyifS2qql9SU4bZSLw73N2zdFMSoV8EB68y8fMOnBLfn/+eH6dZWr/E7JomPNQ4uLqnQZZKrbTcP9pW2AIBavI1Je7dIcaX/BNkZQhlOKJ95hAwnPnwW1oSv5Fmzyfl7hl8qxID3AMpULF/T3m9mGvvoSqtKX8d6jNukSsTxBFFT05KQP2Bz5wSSVggaLOSSdRSZtKovd4ACzoRRn12eaIHYu+h67GLEHDbR9ROJY2ogN3i7pmPo1Om7naZFpD8zpfafIlHCw2WjjfgUtk1xegX1MNB87YgRPAsP/nLa1jtmbFIhfoBWkxNFpK4hRkreTIbK3oKTUW9RcMyAdxGL5CAz9ZJaGRnRnoc+ARVvC4B4wxpP4bFmR7Wt0+lc4xml96rvVGLmopcCrQijLQBMD3w8nX1qtQnlUBk9Qr5UhU1lozLfhJAvwRUekvYFXLxDXewKls3sCjTycI70Q+v+4Ed0ZMGBzm59dv8s27fkMWZM6JOGUryIZ/DanZn/ZiJ4aOJaAwHUdvv9Z6qfG/vPTypcg4tQ6IlJQHdGUWIu/5/JkhLR3d3D6BRnqEJS7i6w8veXMilYe/mRWyqIUSwIDKUc10Y//A4zOuSM8aaeVdhSvwLaupFOmPdhm+t0n52OxnJmu1r7D50PQvk9Ps+SUuLdeDcDPpfAwQB7bf62eXuh9vVmdwSMvYGxn4vsf5IPXWpkDodVP5W9xC+eSs1oXy8E1yDCdTkmZXHJKyqJLPn1HjpDchG7ETg278cREJU/kCDX1Uy874rNyEFGv38Y/rOv9glqTX0jHQLR7DpzeGLfkzDOnBq6dhPFdjAZ+eqB9g1rT6geGtwrO8X+BCsfzdAAjel1RWUAgp9ppERf1UnEEcQv0s1/aCzy4lLQxCr8DWW6lPPVyyp7k97BbMSLNxuCDGcd4Boo+P4uRXZSQo/jddFIXjZH6gSG+gn7zDcW47StG7JpjTEdpOwSBn3GAqtsBkuVKm9RDD3luRsA6NIsrNoqcI1VCIHhtqLTLprLWg9om0d1En1OuTnpBPWmdAv3BR/H3zxsXy88YfaSGcSjjYAAz8P16cbZLxlmVR8kV+HtaLVdjccCMAw6Vk+MqbdHzu7OkdUoOKCJoLIRTHJj2OUesWFjZQfclyJPJckR+n55S4YBE0gvqTdsQ/AknLUOOY9IeueRgwhjV1oAoNRv90tWMjk46qV72JU7lfKMRfauhr8uvTJDfic/a6FLVQDls9kZ53VGM5A9SHyBDucybv4qx/B1Hga08SfLWk5U2Eet1n7NJtZ6WZfTs6aQ0HBjgvpzUNSpLBXqutzL9MoeDDq4ZbtVJ9drm8IdcvmhE3yI4So7MOwFZ6LZ36Drhu7KgfTbIFEH3Z/NGOyN6auDCEI5HsIrMWj8VXxQL9uZoLSdug1g8pRs/4cVpUgvGw7ViIbhRN+3OP0sa9jMgy1w2kEtOSnYbjlgAHR03YQsnBHJdKasCVCZrXXsWq19WBez7js1gAYF1Sp6C4IJ+9PfrE+RLRxsRucpBTK4oKvlNaZIC6kEjlJn4e2YWuwm4eTpQLYfi+++hTFlH0960hoSuwM2cQ+49PYXqY1cY3QwEmpfNAFzi52RB6pLyI5O/iMBxPkeLjdipgbubELCmQJ5lLnVlKEugxB3vKOm/Xr7+k/ifc11qSCqMZCMis/8e0XXntKYXLBBZP4k+yE8gzzKO2LnkpJSDRs7+EWSbB2c8qHINhrgGfz9r9Zf03ixo5ckp8Spk/p0eiU65MuKYBvTE3TSPWf0lyZoFdcBVpRWc6zbidoMHQ3GEii9ysVGh0Jeg0EubOttSP+ZRH6AViZNzUajLH5cataqfypLJ9TQ6l9qP8lQqIck53Ou4SSH1hShx+C/I0oeD+tJnknIlyZs2rX7Qdssh335G5E3BC1IRdae6OgdImSDfS8ii5/DSHyN2ati9M/wSZJkG/TzlUpVBUhaX5CF1e3FaRImbOFKctlOaLVyHQIaFrjklaYL8Oth0M+ffjdjvDi6zgyffyA9w7YEoj34oXrvGhQwZnMigj25hf9jBgRYXaB0BOnqgoErf3erjOAYIHjLGFTbsk0Me5xbu01603Sj5MOXc6u4ad4/nOlsO5mQwP8zFqEOiP/ogAsnJaa8g4RRFQYVFHcQcXCSeNq2NaDuB0cExjkn9DlT0YRk4YbOzIINze3utfpBUXkZg/+XoeNbAzj/m5DWM7yQ4wRIo3Kl9kpSD8qAs2AAn6eR5LVk4qZ5H5MjuMHVSPrMxuifRBudlsVd1TLn0VXQ3roUdvFJ1ggRZs6CVJ6icxXWD7nfX8poHGj28/QR8+OJqYyQIkgXf4aRK3M79nGkfUbHjsmnvZYkCee6hbiqd/GR5hwp7POfTsI1fZXESPucq8d1TEBj1vkrX7NLo5zVm87pfj8Ej/3MqvBDKWOHioAgbiCOXgRLXZbL7pb3tY3kV/hj6uZOG4pKx1IrW6OAUz6F8vCqLuWi9cD8Kj4csel+lS3ZI0g75E5XE3Fzau2l4cxWy6BXce0YDdNFJOeqMbHoVzws1YqcG7iNFFp+EMiuyTuqaAW0tKT+fA065Cs81PdeB8ixljFXhJ/DdJ8PoF1Aml4Kf1Q9/ImjpQ8Yy20TPheONcfgVljSch7RGmCR4FqSDWicNIjGtIYORXc6xIYtPQpBY2rPxkuR1lZS5UpGI1xGQZzZELbunffwM91XS2OGYC6g/l7JltV2V3IiK6f5CuXQY58aN6NliSlfXNlzRDyedDQFfZkO6ZIDWIWBc7BudSYcxoqcGNhYy6QUwrscpD5kkq0u0Rofg9hr+noMAMy7tvjw3QcCmvllUpTvx/W/Ztuwta1a0ts7gi8B1Shb7TvsMLiFDjT0XhrjRxeimnUKJRcikx2YR3XgiA4z9IjTkShf7SpY0Ou2YStwOw9vfiJ8aWJUVY/ENZKLrOIbgmlNSnkpVJh9hwN9zydxPGdHdBksQrsyAYksod528b1NHPCXvQiY7KotbwjhHCjlmwvBXu1Rp2LaC0S3kuuIsTgdEN6CBTslM6VoAo35I7ZSxODuLhfs1ATvDjLpQ9p+pYNvwSQ+dBdnwkG8D+wkodY9Mux/Fw7wCFY5nd4DyZKUf2zYkqopHIc8JwQA2dvcXhbiU4yg72mOFSwGLpG5MplwZROFZxc7STkbswQ1OL3CPGh5yMRXukuKtPDCItTDM2xEN90n7ynGuxiqW5b6Q4U5kq/Vp6sc6JfvjXLNcWCx2MGKlAgbE3aPZX4DRX85J+mqQSJA1C1qnRCX4EuzjsizWdKeCUdGsf9YDMko8XHWKBIVkQcrDhoCRvI1G+CMy6ri0j6ncqzz3I5DjOASIznrrxxqdyQQzuAfUiJEaOGcOW5gOGV511SkRLF9A0OTVjg1G7KENnroH458KJeir49LKEn2hdVJkkjfgpNcUy62pn5HKfaQo8Y6HQcTUTy2Ntur0Sr7JVStN5dKm+wfrDGZntP+JCNTVLVxJsmbFqn4icSO7HWnvpnEC7EwzckIhzl1PTlnMYMQrMKJfZrGQgQujYSBncPploEGM77VOgMzcBr1PyGJaJF8Ov4PytYO61U7QS86saPVDQj/zUUnsyyWZRvThCT1kXrl+sAQj7NO1aWmS8tCI4KBPwFEuzmKLGqL3zij9qquxyCRZk2iNjhPkyJQL8W8HZ7E5AOXhkciW98Hw3xhooKklezolgyAHw3gyiBHdg9CTzbwlrNLfc2oIvWrgIIyLO9Z/kfaB2AxiXC4HA7rRLvR4NyelrFUdmqNH0z4DlgNrjZHYQwdeVXprSzKnTSsP7O0hyHhSFucnDypwY24+kj+A8u6BUenzVXsrNStaJ9UNGstHCmX5P+wfGtFTA4xpHBy0GYFCn5poS0SSv5PsM0NGZsqzuM7XvDU1cDE82k9Sb5RRB4le+syKlKdiV+LxIAovyeLqwEGNke3N26JxuSa1w0a4JEVnxarBKXE750jHL5uX6vQLoecFo/DndFQthxJ/Bm9CFvgt9HYgF4mbl6YGHrdR+X7xHNvNJaekLAxcCGqvQT9XcfOGEdujP6iM7IU/hkL19IJLUdg2Nn+HfPNhmAekvZCB4MAOV/KwLAsi+WHzz6mC7YTAcD775tSJS8HU2g0ccjWqicv1FreUT/4b0tBnjfKODyX+6qKT6jJJiVVcVwwHyad9jGdWYD8WDnkmSsTlVT0k6CgLVp2yMi0mETwa2Hc3onvUGswONIYgEvrKOpeMgYZAor/3Gks73nlpxB5y4GZnjsDCKZ3br0o5mL1R7r+JgD6Hc5VZVDTDFrkO8XmUKb8BtZPSOJIaKgvaiI3fedXhLwbt4ugE6ExZ5n2VcoFrTklWgrVYD73/Ef3xw3ymzBBcHEAn5egkG8YlQ6HhapmU5FWHlwTllv80Yg86cMBL9/3NhUguVSykDRRwzPmoqg7RFwF5OAB07tnPQyl5HRrKudVGNGQSfZ6HYdxT015cPhDwDFjIvD+6EndTp7pcdES3lMO2daCkYpntzAkEHu8EV6Kgj9HEaYUmVXJqnyRZlUfJFflYTN4tg6mOvoIjwIW4tDf0eQ8vlXJVl9Aj7y49bdxS75SDAoz2Yxa37scSDHR2tRFK8QdzSpzQkMH1+5sDA1ylChHXwDHXuOaU1B1l4pQN91WOXjR4qhCPHuCJDDD+w9Go91qn6N3YWdHKQ+qSTJX+m/s6jeiZQG9EiOXvOKDimlNSFu2UsXwV3YPpfgHBEAH3kQaROBnZ4EmbtZIMICvS6OgQMLybUaZ9L+19pMiUu0I35+P7H3HRKdlmkI199la9hctj6GHMYvF5NPglaOjnbdbqbQxZkUZoyu81cNQWlOPjeB2+Eb0u4PI+BK1j2W+jU1aCRLJ8adM6JQ/3gnx38KSIrFY/eaQEGjwvboUB3FBQpZfczRTidY4+81zgrhovNdPHxsSl42D4jxRj6dw2PbYJAiicUj7Aucq0j43xcADMTnklpGuDRiRl0ZlMyWfhqBfV4uwazlUGsTiIc4G2cnDNKSvPLMo8CYKbH4zoHsMRXNYFwziYpaTLAyH4fRn6XJOY9YzoW4WcPgNWyB6f5wwZJCp6l0sQLKfwbCEjtofHiBG7qGs/gD7NvswqNBgasWtZhYMiyPL3g0f09YiRhvLsXVAazmAJ72J1QMdE0HgZjnneYF5B5ZECmJmCSEyE8dzcHdHdMGjKoZ1UibXc/YIMs+fmFnR/Tc3aviEKz0UZ+xTfo50g4TOzoNVrpWSX545Vc3b2W7g8+gyOZKKvdzaX3FWNKcHQsqDNODDsdXDUq1kG8pgXfdJ+JbgcYuUmXQkuVo/I/C9xBDYXhd8y6vbw2HroLWo8dj8Wzt0DaTMpysJHYfDXw1lnBrG8NVBuXviDn2sQTGY3RuFeaZ/85zGEwRUpcNDpMK5VNDSXDN9mJEtXZKMcNkggeMxDKb6fd0qPukDPkfIYz1je4GJ2coU9nZJLE3kQWn9HmT08tgrs2/HIR5ZoMMbXXcukWbJbFyIqxvInWZxO6OGhz5ItROLbHNxA2baBhplksMOBzJTsk8MpHy+q0hQeY2LU5OGRHbjmM1DhjwpKLqWD0lCTDHgoklmSTokA9Qae//9Qwo40avHwcAc80AtOehLXrNo+11Atd/lclUpBrMffMxtVy7hheeGPx+ACN09zC1YQiZV00qGUSemUJvBwjvVu7hZhH9w8uofHIACySCEu/QfKvUuRSVcO9nKXTmnneQPeVF5unZj15nAPjwEDxtzA7V8w8uddW8jQF9oR2GIsF+RjecoYv1vEY6gh1xmORR/tRm4gtgaf5AyukPJRTr3vU8kT/cl2HkMalRMCxT7Ipjehz7bRDhwlOUcWpCy2n5xX8ln821m7R7OH7Mn1Hh6bgNMvuc6WgwMlO+AE+u7KrJ3UOiW3cCFw/CpQ4c5GXA+P4Qd9H6mSR6Av94AtI5Mcp56kQ/J7kdGfhlNe7U+28/DogT2WzPooSt1TkbXKdBSdwRIcqZZkMNADVEquwnf/obBYjjbieHh49AZPA+AcKZznmXqVujZDcz8oB6gKZbnncLmy0MNjwMip2V9GRrsQDvR8rTJp1SnRx0UJK7RT+rlKD49+oGvKNrxFDY51w0DvK+l+r1iAzLwfT04w3+Lh4TEQmHON7mUG3ZqFDPb1+P3pQIXn8Hp685EeHh61gj7XSIkT9JpWON3mMin/reqUSj4bKDE9XxaB+RgPD496YXRHaTte0IS+4zw432o6Ih2yJ4MofBL/79dBHI4yb/Pw8EgL7DeOVa3bc1kgt6rlYzEZ/cnDG+OWHB3YvMxjUGLEiP8Pe3BHzU8oDrgAAAAASUVORK5CYII=;" parent="kMgDOZqCUU3ec5CZU187-19" vertex="1">
          <mxGeometry x="10" y="6" width="16.97" height="15" as="geometry" />
        </mxCell>
        <mxCell id="kMgDOZqCUU3ec5CZU187-24" value="" style="group" parent="kMgDOZqCUU3ec5CZU187-3" vertex="1" connectable="0">
          <mxGeometry y="140" width="130" height="60" as="geometry" />
        </mxCell>
        <mxCell id="kMgDOZqCUU3ec5CZU187-25" value="" style="rounded=1;whiteSpace=wrap;html=1;" parent="kMgDOZqCUU3ec5CZU187-24" vertex="1">
          <mxGeometry width="130" height="60" as="geometry" />
        </mxCell>
        <mxCell id="kMgDOZqCUU3ec5CZU187-26" value="&lt;font style=&quot;font-size: 8px;&quot;&gt;245 cards&lt;/font&gt;" style="text;html=1;align=center;verticalAlign=middle;whiteSpace=wrap;rounded=0;" parent="kMgDOZqCUU3ec5CZU187-24" vertex="1">
          <mxGeometry x="85" y="33" width="40" height="20" as="geometry" />
        </mxCell>
        <mxCell id="kMgDOZqCUU3ec5CZU187-27" value="&lt;b&gt;Englisch&lt;/b&gt;" style="text;html=1;align=center;verticalAlign=middle;whiteSpace=wrap;rounded=0;" parent="kMgDOZqCUU3ec5CZU187-24" vertex="1">
          <mxGeometry x="35" y="5" width="90" height="17" as="geometry" />
        </mxCell>
        <mxCell id="kMgDOZqCUU3ec5CZU187-28" value="" style="shape=image;verticalLabelPosition=bottom;labelBackgroundColor=default;verticalAlign=top;aspect=fixed;imageAspect=0;image=data:image/png,iVBORw0KGgoAAAANSUhEUgAAAOcAAADMCAYAAACIn7TVAAAAAXNSR0IArs4c6QAAAARnQU1BAACxjwv8YQUAAAAJcEhZcwAAFxEAABcRAcom8z8AACuASURBVHhe7X0JfF1VnX9lFkcdRR1XZnSGPzgzIiJaR0tJ3n3vpaUVKiBQGRBUtpEiiqwCRYoU2VGLAgXqMFIEmuae85KWsillE1qa5J77WgoUpELZyk4LpbS0+X+/553zEtJbmibv3XuSnO/n8yVJecvv/s5vO/sIj8GLUffNet/ojtJ2hUh8uxDLaQUlLgMnBR2tOzYtFf9kXubh4ZEWmmL5xWJcOq6gZCmnxFNwzC78rdkEBkq+BXbAUc/PdYZjR7Zf+XfmrR4eHvVAU1nslldyKpxx2dhya9cY0DolHdTSOilfg7/X5GN5Q06F320oz/2I+SgPD4+BYkpX1za5KPxWoMRNeSWeoEOSPZ3x3WidlNm0qOT9yLrHNHTO+rj5eA8Pj61FEMkPsy8Jh7wd5ekqmymTHLAvZDblZ+DnOmTfpcimp49eJHYwX+fh4bElwCn/LR+L78Ep7y6o0gZmPjLJ4fpDW/LqUljJFfi3s4rl1l18v9TDYzPIdYjdgig8qxCLznc4UIKD1YL8bJLZGFn0+SZVuhpBYZ+JS5r/3ojk4TG8gUyZh1P+mllsoKVrf0kn3QPfq0d5YxkWVenoYEnzp4yIHh7DBzshOzUpMQF9v9uKSj5Lh6xl6dpf2kxajOX6IBZLAiVO9fOlHsMChY6Wf4XhHwmHvAsl5OuuOGVvVstdJTfAQR9mZsfPBt8v9Rhy4IALDPx4lIuP0fDr3Z+sFa2sJJxzLVcgFWPxDT9f6jGowfnJoLNlDPqSv0UG+ourWbKvtNm0EIv1yPpt6Ct/f9SSWR81j+vh4T6C5df8QxCHB8CIW2DUz3OgZTA7ZW/SSfXKIyU2croHPAHP+y/m8T083MOY9uZtYbwHV+YnxarBnim3RJtJ2S8FHwIvzHWIz/upGA8nMLGr+W8KZTkSznhqoKRiyWf7aEkGPRRp+6X8ib+fAWcWIrGHH+X1yAQctSzEpVxjJC7lQIl1SGOgw5J89l6OenOx3DqRW9qM2jw86ocJ7W3vDyJxFDLlbGTKF1nWDWeH3BypE6ubJlW6GwHstMZF4aeNGj08agdkgE8WlPwReGc+lm9zQGQ4la79JZ3T6iofi07o7txiZ2kno1YPj/5j9/bmzyLqsz/5GFfN+EzZP/bMpNDnc3klrg4iuStHto2qPTz6hsY4/EpTLH+OaL9cl2agd8qB0+qSDGL5KroH18BZJ4xV4SeM6j08EtDV9Z7GuCWHPuXFjO420nunrA+pV+qYv+eVvK1QLh02pnPO50xreHiYkVclD0WWFPjpzCL04ULrpDqrqpLCv13i+6XDHDyqAxnyaDjlHTCINX6QJ1taJ2UboE0eR9tML6iwOLK97f2myTyGMsYvm/feXCy/WIjFxciSPAVgne0D9TYWz+zI9qCzFlVpNRx1fj4K9/LnHg1R6PWuKhxf4Cihki9ah6QBJBmHZ/bUzmnaKa/ERmTSu9B+k3iMi2lWj8GMiUvm/2MQiYmIwNdzl7/t2yQZg6e7ZJux7ch8LBei6jmpELV+wTSzx2ACS6BiLH+io63pT3qnHBqsjg0o+VAQhTPQTWk0ze7hKjjqymsI0EeZDHI1il/JM0RpMynbNojlSgRhgX87YC+/CdwtjFW3foAnoRdiMR18gQ3n+5PDh2zrSnvL9Wj/Tm4CH7Ok7bPGPDyyQKNq3b6gxOF5Ja9HibPaOqR3yuHJnkE50PfEyJ/5kjdlNC6Wn4FDngjHXMTSxvcnPXuTTsoTKNC1Wam39UUyb8zHox5o6Jy1E5R9RUGVymwAOmbvRvH07Ek6Ke0EwfsZ9Etbc3G4NzfIG5PyGAg4P4nI97V8jOgXi6d6KDuxMTw9k2jtht0f9EtvQYD/rt9f2k/wVLdc1FIoKvm/cMo3qFzSO6XnQGjtiL/z0Gx2j3hsKTc9GNPz2BzYnwwicSyUN4dO6bOkZz1Im7KOmlfiSfx9eaEs9/ROmoBcZ8vn0B84PYjlQirMD/J4pkXaW2XwSLwG+5vFkndke/O2xjSHJ/Qi9M6WPakQlBd/oaJ8pvTMinRS3S+N5RpwMfqmJw+7xfZjOkrbFZTYL1DiJlu6eqf0dIW0Q9ojEoY+j7cYy58G5Zb/HNKjvFw0AIecxFUcVAAjlXdIT1dpbbSSTcUrQSSmceZgSPVLzfzk6UUlF3mn9ByMpL3qbBqLp8FrkVH3D+bP/1tj4oMMXVO2aeyUo3MqvLCg5NIe9byn56Al7ZiDlWa+tAVOesSgOdl+/LJ5Hyqq0n/nlLgXD/O8jTg+U3oOJdpkk1diLY9N1feXutovpWA8PQ0R5c4glm9TeF++eg510r6tnXO+FP92ydjFrbuPum/W+4xrZAde4oPUPhUO+VfvkJ7DlbR5spJN5VtBLH7PacLRD5U+aFwlPRTi0t4FJa5B3f04BaJTJgnt6TncWHXSynzpzfk4/CGvhzSuUx9w0QBPQUP6lhxaZseYQvQWztPTs+Kk9BFk0g25KFyAnyfW/JJhrpLABx+Yj8UdRSVX2fI1SSBPT893skcmfRtJbTkqzgsCFe7MZGdcbOvBi2bwgafgAxfwS7xTenr2n3RS60OoPl+GX80IOlvG8Owr43JbBjMlPPukoiqtYFrmh/GDk77Q09Nz62lL3kBPxYjpeVX6unG/zSPXGY7Fi+/yWdLTs/60JS9nO9BtnLzZUrcQiW8XlHyWHu0zpadneqSD0udQ7v5qk4UMxVg2ct2gH3319MyGtlrlYejGLc1hzErc5B3T0zNbmhL3kSYl/l07ZyEu5QpKbEx6saenZ7qkg7L/qZ0Tv1zkB388Pd0gfZHZM2hv+9gIdEL1ObCenp5ukINDxXLr2BFBJDYkvcDT0zMbVkZuwx+jz5n8Ak9Pz2xI5wyUOHoE/vNE0gs8PT3Tp11jkOsQu3FA6Fr7D56entmSA0J5JZ8NljR/is65j3dOT083WNlmJmbrpXx7P1T6IP7xXv5j7xd6enqmRybJoiq9VYjFQXqekyiWWycina7x852entmQjql3qkTiRh6UZ1yzctVeLhJnc9e2d1BPz3RJx+TKIJ5aOVa1bm/cshv6GJJYTAZf4wt9P9TTs/5kMjTl7E28FcG4YzKalJjA0w/4Jt8P9fSsD+lfZh3tUwUlfrFXee5HjAu+O3ZT4SfwAWfBoyN+iC91PT1rR5P0XgNn6vtX+oPCYrED+qFT87F8xpe6np79J33HlrAFJUv6st5aIKdmf5mpF066kk7qM6mnZ9/Y0ymLSt7FE0eCSH7YuFaN0NX1nsLi8Etw0ssCJV/0TurpuXnSGekj+H1doMKFTeXSd0YtmfVR4031AzdooyMreI4t62edqhME9PQcjuzuAooIyWwSF/oY10kPXLzAE+B5eZGJEp6ew5asJHU1qcQi+MWZen1sltDzo0oeCIH+2LO+ThLe03Mo0paw8IO/BFF4/BbnK9MGp1+CSBwVxGKJjSDeST2HMq2dI0u+DFu/iFdhGndwEyh1P4la+4wAUcRGlKQH8/QcrOx2Svkid5AESjTwNnfjAu5jzJK2zxZVaQpTPR2UD5P0oJ6eg4l6AYGSbwaxnJWPZZMx98GJoGP2V/FQ0xhlukexkh/c09NVMrnQdmHH88ADnbxivr/IRy27oz86gwvr7YMmKcHT0xXSRm0Jy7GUxij8QSpzlVmAW9OaVImrja4GV/ly19NFWqcsKrkxp4QK4vDIml986yqmdHVtw7sJdYngt6h5OkRri7kofDhQ4tT/Wij+yZjtMEPXlG0QkQ6AIv7ISEXFJCnM07PetPZXVKXHgij8eaGj5V+NlQ5vsI5HFj0CvK1aUoBJSvT0rCVpZ3RK7rxCV+uCxjj8ijFLj54Yy32kSv4Ipe7j3kk960lrX0gIq8GrCmU50pihx7uhcbH8DJz0Z3klnqACySQFe3puLWlLpnxdjWx5w5i4ddROS5r/3pieR18RqHBndMqno9x4kpO/3kk9+0tmStoQqrLXYU+3I1vub8zMYyAoLJajodBr/BY1z/7QjsCiGqNTHnjAk7PeZ0zLoybgZu9I7EEnLcRifVXhCY3h6Wn7lKbauhd2c3jT0uE6LZISuJAhiMRERMD70Gd4m8r3TuppaZ2SP7n5AtnypMz3VdYLo+6b9b7RD5U+SOr7GxzBmPbmbRkN0QAdbAifST27M6VYjuA9lZsvjLk4gbHq1g9w2pC+1O9dLBPa296fL4sAmen0Yix/DyeYza0xeOgZ+H1SEMldzUszR+Oi8NOBCjmyG3c3TnLjeQ5Nss3NYM9TjZG4tKFz1k7GPDIHS2kEinHwm/ORxa+DT91MXwJ/mVPhd4OO1h3NS7cA9uticRAcMgzMsrqepAL4E695HB9+ZWOnHG3emTn4kHRS3jdKGX0WHfq0FRN+XwN7vFrvq3QEzNpwxFMg4y1wytXWdxhIrC+ZLN/JZYIj2//wMfPWTcG+HLz7AnzYmi2NiNpIhdc/yfeMXyx2MB+TOXiMp95HGstnKCfpHXVoke2pDVuJjfj7Bg4UurKF62sLZn4IznY07O8B64TvZn98DRkgIXJ+33xMD6D+Zdq1xpz0IUmsvh5Oisg1ZXRHaTvziZkj1yE+j4j1Wyhp5dY+l6eb7HZKvdn5T0Ulv8l+nGnyTEE5kAWP4i4WlLFv0eH6mhT4Ojox3jeP3TTzkRWgHByPF/XrCsCqwvA7V/LDSU/gSfHmo7MFynQuZMBDXwW+1F1KJD+Lp7uksRdUaQNv4sp1thzMgUrTypmCB0QjU05Af7fNnkLZV6fsSeug+P2Ske1X/p3+cJYDyC5z9MMnvKmv5IeT/BwI+mA+kj9Ax/zj+kscQD4K9+Ldh3jWVwf6rJ7pkcGURLstRPsdy1F606SZQx8goESrlbM/TtmTOnGo0ktw+HzlC2KxD7LKhqQX95fd2UnMR8l7uDNHOiCTNtJJY3krFVkLhXrWhzbQ4/dlhbh0vEtbuBrjlhwqxGsgW83vEKqUt+KaHZdNey+d89puZ6odKbCpo99iyufVgiOa3XBSc4znIei73O+d1C2yLbQ9KrkCbTLZpeMmOWCDfu5U2PPTdMp6+U2ALpg+eQG/PJb0olqxavyqtBolQDOvcnBlFwAnhCHX0TwfhiN/tY6Cnn2ndUpUNSvRFpfBTv7DNFPmoKMUY/lTVILLrT0nPUOtyO9gN2xEWsZoHwpR5zX0H67glId59szBfaQIHKdBzsXWSHrL71kfUtemlHuOA3fFuM2Zzc50yiAKf8IRWMqaVvCufEfp+BFJ/7Oe5BfrUSmULXDS05vKLf/P6CJzUBaUu7/gURWUMa3ANRxp7QDB+nX8fQNswZkzYLlCrshuTyzvteVrmrbA7+Ksxwj8p5z0gnqzO0OJKBeJyUF72+ZXSKQMXnWIKP4b6EafEOidtHakLm1lAh3P4zREdeogY+iD52JxEOS6jWMlbPve8tebVj9NqnX8CE7UZ2V8/F5r/FzAXijL/+EKC6OrTBHMn/+3KGtGccAMTrrWO+nAaI0OGfJtOOSfeYmsK2fAckOHvdaSmTzLqkn7AvrdekCosbJHcmOWhmcbDp3u9bkobC9GpW+5Mp/FqJ4vh9/JqfBOyLnFpY2em9IGNhh+xPlvvSvDBTQ3/02Dmv1145Rv6IyVcdtWSn15BbM4jK/t/RCsjf+Y9OI0aZ2Uv1NhQST31fM9DoCZFDJ9D1n0bsrnnXTLZFtqx1TyYejOqa4LFxCgavx1oEJnbiDQZbQSL79jQ0lelb4O4fSEatKb0iYVVZFFrEcJ9Af2S4yomYNbgALVcijknEtZXWlYl9jdfnIZ+m5Tc7H8olFf5iiWW3dBgP0VbOsFlwIs7aiSmMQZm+z1rGQFty4bso0MuV7KRWJ2dVmTA9Bn7UJnUGYn5fRO2m1g6AK8iAxwQSFq/YJRV+bYvTP8EsrFyyHnMtpUxRGSnyNtWtthObvZkr/S/5TtVslJH5QFKQsVigyq58IaeMZoV9d7jNiZgveRQqYjOOpsg8lwc1LbPtDBKzQwjna70j48ogQynQJqp6zImfwcadPaSxDLV4NInLzFxfzcJIqodzXe+IprhmaDBjeCI4ick+ts+ZwRO3PsgUyK/ss53JnTbazJzzFUaI2LFRcMbBb7cUYdmaN6jE0sHqScbBMXbRkBbcFWd9tQsu2D2vx22wBJX5AV7YNBxgcRcc7o+1EP9cfoRWIHROnzCqo0ZM/atTaBn+vQBgJBck/z+JnDHgDXpEqSsxDUv2tOWQlo4gneycLKy4i+dRjfOe/jQRweich4n31I1x60Msqsj3o4mnvrjOiZg4NsMNxLWbK4ZiD9JZ+Bz0Kjx99zOVfp0hmwHJOAjLNgD+tdG02v6g6lP/R3WTESXzNiDwzFaM4/51X4Y9btvLPQNWOrRHG5Ho6wUO8jLc/9iBE9W3RN2UYP2ceihQYzWJ3UGhaC9AYY1iLu6GEZb54yc/DQcch0I7LRcyajJz5HFqTeKk4p14Azcx1it7psoeQRCkjDx0IJZX6hS+UuG8TIsw5Z9I5GJfd3ZbKbc8mFuLQ3rzpEX/lN1wzo3ViVVcl2BMDvOzNXicDHKRoEjAuRNFZSTuMETtD6B3T3Ciqoa2GTDSy5jfT1w7il4ad1v8rs4jBO4QRpSJQJ8uFv0cL+kCvn7fKcGZRe34dcC3oEEydJHZKBkgrGNdmlTMnzoQIVXmC7DGTSM2RB266wv1et/Rmx0wVHS1HmcBfHChdrfKOkNYj61xVj8Q0jdubgFjXIdQrkWkoZXTOuSj++tBKZ8rxxkfw3I3bm0PYWy7OQLZe66pT8iWDWBu5jxM4WQcfsr6LmvxiR4gUqzDUn3YPGpsTLcIgr9BypI+Dhx8ZJH8ra2Kgn/f1KrAKvZt/IiJk5OC0CPR3D7hQdgEx6hixY1Rt+Rya/lYNkLp1zVAFPuoOTQsiZiBpv2CjS80GypDV+yPY0eOnu7c3OHNXfqFq3h/Gdy0UWVs6kZ6gH2Uba2NEXhl4ET/p3qRuQj8Mfcq4Ssq5z0ilVaUMRwbVQLh3myi6bzUIvEI/CvVB63IZIt9a1crfqpEr+BfJNcek4DA5wBFE4A+XkCzTEejop24Rtg6DwNv6+p1iW+7pyfIxe1aPk/shEf8LPDa4Fets2XHCCavFkjsEY0QcHzAnyh8PQ/gQl6/M8kx40C7Khq5EvFsubUDK5dLobTzBHFr0OhlmXtc62LRDx7+Lou1Oj2igLETDvse3jklNSHm0zKK/RNlMDh/rj/YI+np4jlEreX324hAfPilYmZJCFUPq731mRMnKd4VgEtpAGWgsntc+Kz4kao/CHrtxXyWoL9nEoWApMpkySPyt261++gIB2oUvVVk3APh6ywSR26vmwxkgSlZEFqXzKxE3VKC0PYxQ3omeKke3N2yK47Qvd3UQ5t1ZvVtckgs+jgQpPcuZEfqBQliNhE7y1/E1XV/UgS/L6h99x1ZcRe2hCHzOoSmfSUOzDJykmC1p5aChokPvB/V059p8VSI4LuSMRQ9Y1fcmk1imRjV5EVvq1S4epjVVzdoZM10HO562cveXPitQr9ZuvHD52MwLaeJfupq079EIGJeikzi0Qt40TxOINNNC1XB5mxM4c7B+yBGSGh6zrqDuS8lravzkyjYx7Jcrj/zJvzxwNCBBo9xMge3Vf5ZaCTJqk7mCTGyHj3VxA78pB6JmApQJLBijEuZPuuiOofBW/n40IurMRO3Ow7GYmRZa/ioZUiEUnGIELoEsJmc/LxbLRvDxzcL0z5JqEqklZp0zSeVasBgpV+jOc8lhXDppzAighx8GwWvBzg2vRlPJUGk4+BLkucm1AQN/u3dG6I1fQsG/vUgmmb3aO5TGcFrHBLknHWZDyWJl4VjEzuj71zmNTwKg+RCdFOdZWjKXexUEmKTYL2uiKPpyeIx1081spgnOmMPQDmNU5l8py0ZWASzl0sK205WMcJHNpT7DTYMnWpOT+6FvdyU65jmwONiz+XoxgcoTzK0NSxEQ4JVcZQTc3Q0f6zldX2o6kPJUAK54AL3BpfntQgeUZSt2D4KDz2cCulURsZPP7rbkodOas3awAY29Ae03n+IGLTsnsDVt6CvJdMKZzjjNH3PQL+jyhxXI0S82gs2XM2EjumkV/hoMJZh/p3T2dwgXaoMGfORWWYKATXDncKi1Urq8Qv4RjOnfulG0f2PBL4FXoLmUySMbjSPTac/gTz6VtUqUvb/XKLPYVmuLW7yHCCCi7E1HmSc6Tod/wPH5/FD+53vE3TUr8u3lLahjdUdoOyj4OhlCdI3XFEKwR4Cc31wqXDruqF7h8Dc8+DXTuuElrH7CVjYW4dCNLbSN2amAiQzD4PvzlevjNQtjF4+iqrYBM9KnH4KB305e48cG8ZfPgKCSPe8CD6WsHrMJ70v47HHc5vuicLCa2d0M/AQ81NYjlSitXUgNlQcpC/VA26PFyroBx5aKeWoEVFezkDA6M8Vkr9pCsj7RJp9TyKLk2F4lbckp+M1jS/I9G9FSgt7gpeSCqqLvsyifS2qql9SU4bZSLw73N2zdFMSoV8EB68y8fMOnBLfn/+eH6dZWr/E7JomPNQ4uLqnQZZKrbTcP9pW2AIBavI1Je7dIcaX/BNkZQhlOKJ95hAwnPnwW1oSv5Fmzyfl7hl8qxID3AMpULF/T3m9mGvvoSqtKX8d6jNukSsTxBFFT05KQP2Bz5wSSVggaLOSSdRSZtKovd4ACzoRRn12eaIHYu+h67GLEHDbR9ROJY2ogN3i7pmPo1Om7naZFpD8zpfafIlHCw2WjjfgUtk1xegX1MNB87YgRPAsP/nLa1jtmbFIhfoBWkxNFpK4hRkreTIbK3oKTUW9RcMyAdxGL5CAz9ZJaGRnRnoc+ARVvC4B4wxpP4bFmR7Wt0+lc4xml96rvVGLmopcCrQijLQBMD3w8nX1qtQnlUBk9Qr5UhU1lozLfhJAvwRUekvYFXLxDXewKls3sCjTycI70Q+v+4Ed0ZMGBzm59dv8s27fkMWZM6JOGUryIZ/DanZn/ZiJ4aOJaAwHUdvv9Z6qfG/vPTypcg4tQ6IlJQHdGUWIu/5/JkhLR3d3D6BRnqEJS7i6w8veXMilYe/mRWyqIUSwIDKUc10Y//A4zOuSM8aaeVdhSvwLaupFOmPdhm+t0n52OxnJmu1r7D50PQvk9Ps+SUuLdeDcDPpfAwQB7bf62eXuh9vVmdwSMvYGxn4vsf5IPXWpkDodVP5W9xC+eSs1oXy8E1yDCdTkmZXHJKyqJLPn1HjpDchG7ETg278cREJU/kCDX1Uy874rNyEFGv38Y/rOv9glqTX0jHQLR7DpzeGLfkzDOnBq6dhPFdjAZ+eqB9g1rT6geGtwrO8X+BCsfzdAAjel1RWUAgp9ppERf1UnEEcQv0s1/aCzy4lLQxCr8DWW6lPPVyyp7k97BbMSLNxuCDGcd4Boo+P4uRXZSQo/jddFIXjZH6gSG+gn7zDcW47StG7JpjTEdpOwSBn3GAqtsBkuVKm9RDD3luRsA6NIsrNoqcI1VCIHhtqLTLprLWg9om0d1En1OuTnpBPWmdAv3BR/H3zxsXy88YfaSGcSjjYAAz8P16cbZLxlmVR8kV+HtaLVdjccCMAw6Vk+MqbdHzu7OkdUoOKCJoLIRTHJj2OUesWFjZQfclyJPJckR+n55S4YBE0gvqTdsQ/AknLUOOY9IeueRgwhjV1oAoNRv90tWMjk46qV72JU7lfKMRfauhr8uvTJDfic/a6FLVQDls9kZ53VGM5A9SHyBDucybv4qx/B1Hga08SfLWk5U2Eet1n7NJtZ6WZfTs6aQ0HBjgvpzUNSpLBXqutzL9MoeDDq4ZbtVJ9drm8IdcvmhE3yI4So7MOwFZ6LZ36Drhu7KgfTbIFEH3Z/NGOyN6auDCEI5HsIrMWj8VXxQL9uZoLSdug1g8pRs/4cVpUgvGw7ViIbhRN+3OP0sa9jMgy1w2kEtOSnYbjlgAHR03YQsnBHJdKasCVCZrXXsWq19WBez7js1gAYF1Sp6C4IJ+9PfrE+RLRxsRucpBTK4oKvlNaZIC6kEjlJn4e2YWuwm4eTpQLYfi+++hTFlH0960hoSuwM2cQ+49PYXqY1cY3QwEmpfNAFzi52RB6pLyI5O/iMBxPkeLjdipgbubELCmQJ5lLnVlKEugxB3vKOm/Xr7+k/ifc11qSCqMZCMis/8e0XXntKYXLBBZP4k+yE8gzzKO2LnkpJSDRs7+EWSbB2c8qHINhrgGfz9r9Zf03ixo5ckp8Spk/p0eiU65MuKYBvTE3TSPWf0lyZoFdcBVpRWc6zbidoMHQ3GEii9ysVGh0Jeg0EubOttSP+ZRH6AViZNzUajLH5cataqfypLJ9TQ6l9qP8lQqIck53Ou4SSH1hShx+C/I0oeD+tJnknIlyZs2rX7Qdssh335G5E3BC1IRdae6OgdImSDfS8ii5/DSHyN2ati9M/wSZJkG/TzlUpVBUhaX5CF1e3FaRImbOFKctlOaLVyHQIaFrjklaYL8Oth0M+ffjdjvDi6zgyffyA9w7YEoj34oXrvGhQwZnMigj25hf9jBgRYXaB0BOnqgoErf3erjOAYIHjLGFTbsk0Me5xbu01603Sj5MOXc6u4ad4/nOlsO5mQwP8zFqEOiP/ogAsnJaa8g4RRFQYVFHcQcXCSeNq2NaDuB0cExjkn9DlT0YRk4YbOzIINze3utfpBUXkZg/+XoeNbAzj/m5DWM7yQ4wRIo3Kl9kpSD8qAs2AAn6eR5LVk4qZ5H5MjuMHVSPrMxuifRBudlsVd1TLn0VXQ3roUdvFJ1ggRZs6CVJ6icxXWD7nfX8poHGj28/QR8+OJqYyQIkgXf4aRK3M79nGkfUbHjsmnvZYkCee6hbiqd/GR5hwp7POfTsI1fZXESPucq8d1TEBj1vkrX7NLo5zVm87pfj8Ej/3MqvBDKWOHioAgbiCOXgRLXZbL7pb3tY3kV/hj6uZOG4pKx1IrW6OAUz6F8vCqLuWi9cD8Kj4csel+lS3ZI0g75E5XE3Fzau2l4cxWy6BXce0YDdNFJOeqMbHoVzws1YqcG7iNFFp+EMiuyTuqaAW0tKT+fA065Cs81PdeB8ixljFXhJ/DdJ8PoF1Aml4Kf1Q9/ImjpQ8Yy20TPheONcfgVljSch7RGmCR4FqSDWicNIjGtIYORXc6xIYtPQpBY2rPxkuR1lZS5UpGI1xGQZzZELbunffwM91XS2OGYC6g/l7JltV2V3IiK6f5CuXQY58aN6NliSlfXNlzRDyedDQFfZkO6ZIDWIWBc7BudSYcxoqcGNhYy6QUwrscpD5kkq0u0Rofg9hr+noMAMy7tvjw3QcCmvllUpTvx/W/Ztuwta1a0ts7gi8B1Shb7TvsMLiFDjT0XhrjRxeimnUKJRcikx2YR3XgiA4z9IjTkShf7SpY0Ou2YStwOw9vfiJ8aWJUVY/ENZKLrOIbgmlNSnkpVJh9hwN9zydxPGdHdBksQrsyAYksod528b1NHPCXvQiY7KotbwjhHCjlmwvBXu1Rp2LaC0S3kuuIsTgdEN6CBTslM6VoAo35I7ZSxODuLhfs1ATvDjLpQ9p+pYNvwSQ+dBdnwkG8D+wkodY9Mux/Fw7wCFY5nd4DyZKUf2zYkqopHIc8JwQA2dvcXhbiU4yg72mOFSwGLpG5MplwZROFZxc7STkbswQ1OL3CPGh5yMRXukuKtPDCItTDM2xEN90n7ynGuxiqW5b6Q4U5kq/Vp6sc6JfvjXLNcWCx2MGKlAgbE3aPZX4DRX85J+mqQSJA1C1qnRCX4EuzjsizWdKeCUdGsf9YDMko8XHWKBIVkQcrDhoCRvI1G+CMy6ri0j6ncqzz3I5DjOASIznrrxxqdyQQzuAfUiJEaOGcOW5gOGV511SkRLF9A0OTVjg1G7KENnroH458KJeir49LKEn2hdVJkkjfgpNcUy62pn5HKfaQo8Y6HQcTUTy2Ntur0Sr7JVStN5dKm+wfrDGZntP+JCNTVLVxJsmbFqn4icSO7HWnvpnEC7EwzckIhzl1PTlnMYMQrMKJfZrGQgQujYSBncPploEGM77VOgMzcBr1PyGJaJF8Ov4PytYO61U7QS86saPVDQj/zUUnsyyWZRvThCT1kXrl+sAQj7NO1aWmS8tCI4KBPwFEuzmKLGqL3zij9qquxyCRZk2iNjhPkyJQL8W8HZ7E5AOXhkciW98Hw3xhooKklezolgyAHw3gyiBHdg9CTzbwlrNLfc2oIvWrgIIyLO9Z/kfaB2AxiXC4HA7rRLvR4NyelrFUdmqNH0z4DlgNrjZHYQwdeVXprSzKnTSsP7O0hyHhSFucnDypwY24+kj+A8u6BUenzVXsrNStaJ9UNGstHCmX5P+wfGtFTA4xpHBy0GYFCn5poS0SSv5PsM0NGZsqzuM7XvDU1cDE82k9Sb5RRB4le+syKlKdiV+LxIAovyeLqwEGNke3N26JxuSa1w0a4JEVnxarBKXE750jHL5uX6vQLoecFo/DndFQthxJ/Bm9CFvgt9HYgF4mbl6YGHrdR+X7xHNvNJaekLAxcCGqvQT9XcfOGEdujP6iM7IU/hkL19IJLUdg2Nn+HfPNhmAekvZCB4MAOV/KwLAsi+WHzz6mC7YTAcD775tSJS8HU2g0ccjWqicv1FreUT/4b0tBnjfKODyX+6qKT6jJJiVVcVwwHyad9jGdWYD8WDnkmSsTlVT0k6CgLVp2yMi0mETwa2Hc3onvUGswONIYgEvrKOpeMgYZAor/3Gks73nlpxB5y4GZnjsDCKZ3br0o5mL1R7r+JgD6Hc5VZVDTDFrkO8XmUKb8BtZPSOJIaKgvaiI3fedXhLwbt4ugE6ExZ5n2VcoFrTklWgrVYD73/Ef3xw3ymzBBcHEAn5egkG8YlQ6HhapmU5FWHlwTllv80Yg86cMBL9/3NhUguVSykDRRwzPmoqg7RFwF5OAB07tnPQyl5HRrKudVGNGQSfZ6HYdxT015cPhDwDFjIvD+6EndTp7pcdES3lMO2daCkYpntzAkEHu8EV6Kgj9HEaYUmVXJqnyRZlUfJFflYTN4tg6mOvoIjwIW4tDf0eQ8vlXJVl9Aj7y49bdxS75SDAoz2Yxa37scSDHR2tRFK8QdzSpzQkMH1+5sDA1ylChHXwDHXuOaU1B1l4pQN91WOXjR4qhCPHuCJDDD+w9Go91qn6N3YWdHKQ+qSTJX+m/s6jeiZQG9EiOXvOKDimlNSFu2UsXwV3YPpfgHBEAH3kQaROBnZ4EmbtZIMICvS6OgQMLybUaZ9L+19pMiUu0I35+P7H3HRKdlmkI199la9hctj6GHMYvF5NPglaOjnbdbqbQxZkUZoyu81cNQWlOPjeB2+Eb0u4PI+BK1j2W+jU1aCRLJ8adM6JQ/3gnx38KSIrFY/eaQEGjwvboUB3FBQpZfczRTidY4+81zgrhovNdPHxsSl42D4jxRj6dw2PbYJAiicUj7Aucq0j43xcADMTnklpGuDRiRl0ZlMyWfhqBfV4uwazlUGsTiIc4G2cnDNKSvPLMo8CYKbH4zoHsMRXNYFwziYpaTLAyH4fRn6XJOY9YzoW4WcPgNWyB6f5wwZJCp6l0sQLKfwbCEjtofHiBG7qGs/gD7NvswqNBgasWtZhYMiyPL3g0f09YiRhvLsXVAazmAJ72J1QMdE0HgZjnneYF5B5ZECmJmCSEyE8dzcHdHdMGjKoZ1UibXc/YIMs+fmFnR/Tc3aviEKz0UZ+xTfo50g4TOzoNVrpWSX545Vc3b2W7g8+gyOZKKvdzaX3FWNKcHQsqDNODDsdXDUq1kG8pgXfdJ+JbgcYuUmXQkuVo/I/C9xBDYXhd8y6vbw2HroLWo8dj8Wzt0DaTMpysJHYfDXw1lnBrG8NVBuXviDn2sQTGY3RuFeaZ/85zGEwRUpcNDpMK5VNDSXDN9mJEtXZKMcNkggeMxDKb6fd0qPukDPkfIYz1je4GJ2coU9nZJLE3kQWn9HmT08tgrs2/HIR5ZoMMbXXcukWbJbFyIqxvInWZxO6OGhz5ItROLbHNxA2baBhplksMOBzJTsk8MpHy+q0hQeY2LU5OGRHbjmM1DhjwpKLqWD0lCTDHgoklmSTokA9Qae//9Qwo40avHwcAc80AtOehLXrNo+11Atd/lclUpBrMffMxtVy7hheeGPx+ACN09zC1YQiZV00qGUSemUJvBwjvVu7hZhH9w8uofHIACySCEu/QfKvUuRSVcO9nKXTmnneQPeVF5unZj15nAPjwEDxtzA7V8w8uddW8jQF9oR2GIsF+RjecoYv1vEY6gh1xmORR/tRm4gtgaf5AyukPJRTr3vU8kT/cl2HkMalRMCxT7Ipjehz7bRDhwlOUcWpCy2n5xX8ln821m7R7OH7Mn1Hh6bgNMvuc6WgwMlO+AE+u7KrJ3UOiW3cCFw/CpQ4c5GXA+P4Qd9H6mSR6Av94AtI5Mcp56kQ/J7kdGfhlNe7U+28/DogT2WzPooSt1TkbXKdBSdwRIcqZZkMNADVEquwnf/obBYjjbieHh49AZPA+AcKZznmXqVujZDcz8oB6gKZbnncLmy0MNjwMip2V9GRrsQDvR8rTJp1SnRx0UJK7RT+rlKD49+oGvKNrxFDY51w0DvK+l+r1iAzLwfT04w3+Lh4TEQmHON7mUG3ZqFDPb1+P3pQIXn8Hp685EeHh61gj7XSIkT9JpWON3mMin/reqUSj4bKDE9XxaB+RgPD496YXRHaTte0IS+4zw432o6Ih2yJ4MofBL/79dBHI4yb/Pw8EgL7DeOVa3bc1kgt6rlYzEZ/cnDG+OWHB3YvMxjUGLEiP8Pe3BHzU8oDrgAAAAASUVORK5CYII=;" parent="kMgDOZqCUU3ec5CZU187-24" vertex="1">
          <mxGeometry x="10" y="6" width="16.97" height="15" as="geometry" />
        </mxCell>
        <mxCell id="kMgDOZqCUU3ec5CZU187-29" value="" style="group" parent="kMgDOZqCUU3ec5CZU187-3" vertex="1" connectable="0">
          <mxGeometry x="140" y="140" width="130" height="60" as="geometry" />
        </mxCell>
        <mxCell id="kMgDOZqCUU3ec5CZU187-30" value="" style="rounded=1;whiteSpace=wrap;html=1;" parent="kMgDOZqCUU3ec5CZU187-29" vertex="1">
          <mxGeometry width="130" height="60" as="geometry" />
        </mxCell>
        <mxCell id="kMgDOZqCUU3ec5CZU187-31" value="&lt;font style=&quot;font-size: 8px;&quot;&gt;98 cards&lt;/font&gt;" style="text;html=1;align=center;verticalAlign=middle;whiteSpace=wrap;rounded=0;" parent="kMgDOZqCUU3ec5CZU187-29" vertex="1">
          <mxGeometry x="85" y="33" width="40" height="20" as="geometry" />
        </mxCell>
        <mxCell id="kMgDOZqCUU3ec5CZU187-32" value="&lt;b&gt;SW-Eng.&lt;/b&gt;" style="text;html=1;align=center;verticalAlign=middle;whiteSpace=wrap;rounded=0;" parent="kMgDOZqCUU3ec5CZU187-29" vertex="1">
          <mxGeometry x="35" y="5" width="90" height="17" as="geometry" />
        </mxCell>
        <mxCell id="kMgDOZqCUU3ec5CZU187-33" value="" style="shape=image;verticalLabelPosition=bottom;labelBackgroundColor=default;verticalAlign=top;aspect=fixed;imageAspect=0;image=data:image/png,iVBORw0KGgoAAAANSUhEUgAAAOcAAADMCAYAAACIn7TVAAAAAXNSR0IArs4c6QAAAARnQU1BAACxjwv8YQUAAAAJcEhZcwAAFxEAABcRAcom8z8AACuASURBVHhe7X0JfF1VnX9lFkcdRR1XZnSGPzgzIiJaR0tJ3n3vpaUVKiBQGRBUtpEiiqwCRYoU2VGLAgXqMFIEmuae85KWsillE1qa5J77WgoUpELZyk4LpbS0+X+/553zEtJbmibv3XuSnO/n8yVJecvv/s5vO/sIj8GLUffNet/ojtJ2hUh8uxDLaQUlLgMnBR2tOzYtFf9kXubh4ZEWmmL5xWJcOq6gZCmnxFNwzC78rdkEBkq+BXbAUc/PdYZjR7Zf+XfmrR4eHvVAU1nslldyKpxx2dhya9cY0DolHdTSOilfg7/X5GN5Q06F320oz/2I+SgPD4+BYkpX1za5KPxWoMRNeSWeoEOSPZ3x3WidlNm0qOT9yLrHNHTO+rj5eA8Pj61FEMkPsy8Jh7wd5ekqmymTHLAvZDblZ+DnOmTfpcimp49eJHYwX+fh4bElwCn/LR+L78Ep7y6o0gZmPjLJ4fpDW/LqUljJFfi3s4rl1l18v9TDYzPIdYjdgig8qxCLznc4UIKD1YL8bJLZGFn0+SZVuhpBYZ+JS5r/3ojk4TG8gUyZh1P+mllsoKVrf0kn3QPfq0d5YxkWVenoYEnzp4yIHh7DBzshOzUpMQF9v9uKSj5Lh6xl6dpf2kxajOX6IBZLAiVO9fOlHsMChY6Wf4XhHwmHvAsl5OuuOGVvVstdJTfAQR9mZsfPBt8v9Rhy4IALDPx4lIuP0fDr3Z+sFa2sJJxzLVcgFWPxDT9f6jGowfnJoLNlDPqSv0UG+ourWbKvtNm0EIv1yPpt6Ct/f9SSWR81j+vh4T6C5df8QxCHB8CIW2DUz3OgZTA7ZW/SSfXKIyU2croHPAHP+y/m8T083MOY9uZtYbwHV+YnxarBnim3RJtJ2S8FHwIvzHWIz/upGA8nMLGr+W8KZTkSznhqoKRiyWf7aEkGPRRp+6X8ib+fAWcWIrGHH+X1yAQctSzEpVxjJC7lQIl1SGOgw5J89l6OenOx3DqRW9qM2jw86ocJ7W3vDyJxFDLlbGTKF1nWDWeH3BypE6ubJlW6GwHstMZF4aeNGj08agdkgE8WlPwReGc+lm9zQGQ4la79JZ3T6iofi07o7txiZ2kno1YPj/5j9/bmzyLqsz/5GFfN+EzZP/bMpNDnc3klrg4iuStHto2qPTz6hsY4/EpTLH+OaL9cl2agd8qB0+qSDGL5KroH18BZJ4xV4SeM6j08EtDV9Z7GuCWHPuXFjO420nunrA+pV+qYv+eVvK1QLh02pnPO50xreHiYkVclD0WWFPjpzCL04ULrpDqrqpLCv13i+6XDHDyqAxnyaDjlHTCINX6QJ1taJ2UboE0eR9tML6iwOLK97f2myTyGMsYvm/feXCy/WIjFxciSPAVgne0D9TYWz+zI9qCzFlVpNRx1fj4K9/LnHg1R6PWuKhxf4Cihki9ah6QBJBmHZ/bUzmnaKa/ERmTSu9B+k3iMi2lWj8GMiUvm/2MQiYmIwNdzl7/t2yQZg6e7ZJux7ch8LBei6jmpELV+wTSzx2ACS6BiLH+io63pT3qnHBqsjg0o+VAQhTPQTWk0ze7hKjjqymsI0EeZDHI1il/JM0RpMynbNojlSgRhgX87YC+/CdwtjFW3foAnoRdiMR18gQ3n+5PDh2zrSnvL9Wj/Tm4CH7Ok7bPGPDyyQKNq3b6gxOF5Ja9HibPaOqR3yuHJnkE50PfEyJ/5kjdlNC6Wn4FDngjHXMTSxvcnPXuTTsoTKNC1Wam39UUyb8zHox5o6Jy1E5R9RUGVymwAOmbvRvH07Ek6Ke0EwfsZ9Etbc3G4NzfIG5PyGAg4P4nI97V8jOgXi6d6KDuxMTw9k2jtht0f9EtvQYD/rt9f2k/wVLdc1FIoKvm/cMo3qFzSO6XnQGjtiL/z0Gx2j3hsKTc9GNPz2BzYnwwicSyUN4dO6bOkZz1Im7KOmlfiSfx9eaEs9/ROmoBcZ8vn0B84PYjlQirMD/J4pkXaW2XwSLwG+5vFkndke/O2xjSHJ/Qi9M6WPakQlBd/oaJ8pvTMinRS3S+N5RpwMfqmJw+7xfZjOkrbFZTYL1DiJlu6eqf0dIW0Q9ojEoY+j7cYy58G5Zb/HNKjvFw0AIecxFUcVAAjlXdIT1dpbbSSTcUrQSSmceZgSPVLzfzk6UUlF3mn9ByMpL3qbBqLp8FrkVH3D+bP/1tj4oMMXVO2aeyUo3MqvLCg5NIe9byn56Al7ZiDlWa+tAVOesSgOdl+/LJ5Hyqq0n/nlLgXD/O8jTg+U3oOJdpkk1diLY9N1feXutovpWA8PQ0R5c4glm9TeF++eg510r6tnXO+FP92ydjFrbuPum/W+4xrZAde4oPUPhUO+VfvkJ7DlbR5spJN5VtBLH7PacLRD5U+aFwlPRTi0t4FJa5B3f04BaJTJgnt6TncWHXSynzpzfk4/CGvhzSuUx9w0QBPQUP6lhxaZseYQvQWztPTs+Kk9BFk0g25KFyAnyfW/JJhrpLABx+Yj8UdRSVX2fI1SSBPT893skcmfRtJbTkqzgsCFe7MZGdcbOvBi2bwgafgAxfwS7xTenr2n3RS60OoPl+GX80IOlvG8Owr43JbBjMlPPukoiqtYFrmh/GDk77Q09Nz62lL3kBPxYjpeVX6unG/zSPXGY7Fi+/yWdLTs/60JS9nO9BtnLzZUrcQiW8XlHyWHu0zpadneqSD0udQ7v5qk4UMxVg2ct2gH3319MyGtlrlYejGLc1hzErc5B3T0zNbmhL3kSYl/l07ZyEu5QpKbEx6saenZ7qkg7L/qZ0Tv1zkB388Pd0gfZHZM2hv+9gIdEL1ObCenp5ukINDxXLr2BFBJDYkvcDT0zMbVkZuwx+jz5n8Ak9Pz2xI5wyUOHoE/vNE0gs8PT3Tp11jkOsQu3FA6Fr7D56entmSA0J5JZ8NljR/is65j3dOT083WNlmJmbrpXx7P1T6IP7xXv5j7xd6enqmRybJoiq9VYjFQXqekyiWWycina7x852entmQjql3qkTiRh6UZ1yzctVeLhJnc9e2d1BPz3RJx+TKIJ5aOVa1bm/cshv6GJJYTAZf4wt9P9TTs/5kMjTl7E28FcG4YzKalJjA0w/4Jt8P9fSsD+lfZh3tUwUlfrFXee5HjAu+O3ZT4SfwAWfBoyN+iC91PT1rR5P0XgNn6vtX+oPCYrED+qFT87F8xpe6np79J33HlrAFJUv6st5aIKdmf5mpF066kk7qM6mnZ9/Y0ymLSt7FE0eCSH7YuFaN0NX1nsLi8Etw0ssCJV/0TurpuXnSGekj+H1doMKFTeXSd0YtmfVR4031AzdooyMreI4t62edqhME9PQcjuzuAooIyWwSF/oY10kPXLzAE+B5eZGJEp6ew5asJHU1qcQi+MWZen1sltDzo0oeCIH+2LO+ThLe03Mo0paw8IO/BFF4/BbnK9MGp1+CSBwVxGKJjSDeST2HMq2dI0u+DFu/iFdhGndwEyh1P4la+4wAUcRGlKQH8/QcrOx2Svkid5AESjTwNnfjAu5jzJK2zxZVaQpTPR2UD5P0oJ6eg4l6AYGSbwaxnJWPZZMx98GJoGP2V/FQ0xhlukexkh/c09NVMrnQdmHH88ADnbxivr/IRy27oz86gwvr7YMmKcHT0xXSRm0Jy7GUxij8QSpzlVmAW9OaVImrja4GV/ly19NFWqcsKrkxp4QK4vDIml986yqmdHVtw7sJdYngt6h5OkRri7kofDhQ4tT/Wij+yZjtMEPXlG0QkQ6AIv7ISEXFJCnM07PetPZXVKXHgij8eaGj5V+NlQ5vsI5HFj0CvK1aUoBJSvT0rCVpZ3RK7rxCV+uCxjj8ijFLj54Yy32kSv4Ipe7j3kk960lrX0gIq8GrCmU50pihx7uhcbH8DJz0Z3klnqACySQFe3puLWlLpnxdjWx5w5i4ddROS5r/3pieR18RqHBndMqno9x4kpO/3kk9+0tmStoQqrLXYU+3I1vub8zMYyAoLJajodBr/BY1z/7QjsCiGqNTHnjAk7PeZ0zLoybgZu9I7EEnLcRifVXhCY3h6Wn7lKbauhd2c3jT0uE6LZISuJAhiMRERMD70Gd4m8r3TuppaZ2SP7n5AtnypMz3VdYLo+6b9b7RD5U+SOr7GxzBmPbmbRkN0QAdbAifST27M6VYjuA9lZsvjLk4gbHq1g9w2pC+1O9dLBPa296fL4sAmen0Yix/DyeYza0xeOgZ+H1SEMldzUszR+Oi8NOBCjmyG3c3TnLjeQ5Nss3NYM9TjZG4tKFz1k7GPDIHS2kEinHwm/ORxa+DT91MXwJ/mVPhd4OO1h3NS7cA9uticRAcMgzMsrqepAL4E695HB9+ZWOnHG3emTn4kHRS3jdKGX0WHfq0FRN+XwN7vFrvq3QEzNpwxFMg4y1wytXWdxhIrC+ZLN/JZYIj2//wMfPWTcG+HLz7AnzYmi2NiNpIhdc/yfeMXyx2MB+TOXiMp95HGstnKCfpHXVoke2pDVuJjfj7Bg4UurKF62sLZn4IznY07O8B64TvZn98DRkgIXJ+33xMD6D+Zdq1xpz0IUmsvh5Oisg1ZXRHaTvziZkj1yE+j4j1Wyhp5dY+l6eb7HZKvdn5T0Ulv8l+nGnyTEE5kAWP4i4WlLFv0eH6mhT4Ojox3jeP3TTzkRWgHByPF/XrCsCqwvA7V/LDSU/gSfHmo7MFynQuZMBDXwW+1F1KJD+Lp7uksRdUaQNv4sp1thzMgUrTypmCB0QjU05Af7fNnkLZV6fsSeug+P2Ske1X/p3+cJYDyC5z9MMnvKmv5IeT/BwI+mA+kj9Ax/zj+kscQD4K9+Ldh3jWVwf6rJ7pkcGURLstRPsdy1F606SZQx8goESrlbM/TtmTOnGo0ktw+HzlC2KxD7LKhqQX95fd2UnMR8l7uDNHOiCTNtJJY3krFVkLhXrWhzbQ4/dlhbh0vEtbuBrjlhwqxGsgW83vEKqUt+KaHZdNey+d89puZ6odKbCpo99iyufVgiOa3XBSc4znIei73O+d1C2yLbQ9KrkCbTLZpeMmOWCDfu5U2PPTdMp6+U2ALpg+eQG/PJb0olqxavyqtBolQDOvcnBlFwAnhCHX0TwfhiN/tY6Cnn2ndUpUNSvRFpfBTv7DNFPmoKMUY/lTVILLrT0nPUOtyO9gN2xEWsZoHwpR5zX0H67glId59szBfaQIHKdBzsXWSHrL71kfUtemlHuOA3fFuM2Zzc50yiAKf8IRWMqaVvCufEfp+BFJ/7Oe5BfrUSmULXDS05vKLf/P6CJzUBaUu7/gURWUMa3ANRxp7QDB+nX8fQNswZkzYLlCrshuTyzvteVrmrbA7+Ksxwj8p5z0gnqzO0OJKBeJyUF72+ZXSKQMXnWIKP4b6EafEOidtHakLm1lAh3P4zREdeogY+iD52JxEOS6jWMlbPve8tebVj9NqnX8CE7UZ2V8/F5r/FzAXijL/+EKC6OrTBHMn/+3KGtGccAMTrrWO+nAaI0OGfJtOOSfeYmsK2fAckOHvdaSmTzLqkn7AvrdekCosbJHcmOWhmcbDp3u9bkobC9GpW+5Mp/FqJ4vh9/JqfBOyLnFpY2em9IGNhh+xPlvvSvDBTQ3/02Dmv1145Rv6IyVcdtWSn15BbM4jK/t/RCsjf+Y9OI0aZ2Uv1NhQST31fM9DoCZFDJ9D1n0bsrnnXTLZFtqx1TyYejOqa4LFxCgavx1oEJnbiDQZbQSL79jQ0lelb4O4fSEatKb0iYVVZFFrEcJ9Af2S4yomYNbgALVcijknEtZXWlYl9jdfnIZ+m5Tc7H8olFf5iiWW3dBgP0VbOsFlwIs7aiSmMQZm+z1rGQFty4bso0MuV7KRWJ2dVmTA9Bn7UJnUGYn5fRO2m1g6AK8iAxwQSFq/YJRV+bYvTP8EsrFyyHnMtpUxRGSnyNtWtthObvZkr/S/5TtVslJH5QFKQsVigyq58IaeMZoV9d7jNiZgveRQqYjOOpsg8lwc1LbPtDBKzQwjna70j48ogQynQJqp6zImfwcadPaSxDLV4NInLzFxfzcJIqodzXe+IprhmaDBjeCI4ick+ts+ZwRO3PsgUyK/ss53JnTbazJzzFUaI2LFRcMbBb7cUYdmaN6jE0sHqScbBMXbRkBbcFWd9tQsu2D2vx22wBJX5AV7YNBxgcRcc7o+1EP9cfoRWIHROnzCqo0ZM/atTaBn+vQBgJBck/z+JnDHgDXpEqSsxDUv2tOWQlo4gneycLKy4i+dRjfOe/jQRweich4n31I1x60Msqsj3o4mnvrjOiZg4NsMNxLWbK4ZiD9JZ+Bz0Kjx99zOVfp0hmwHJOAjLNgD+tdG02v6g6lP/R3WTESXzNiDwzFaM4/51X4Y9btvLPQNWOrRHG5Ho6wUO8jLc/9iBE9W3RN2UYP2ceihQYzWJ3UGhaC9AYY1iLu6GEZb54yc/DQcch0I7LRcyajJz5HFqTeKk4p14Azcx1it7psoeQRCkjDx0IJZX6hS+UuG8TIsw5Z9I5GJfd3ZbKbc8mFuLQ3rzpEX/lN1wzo3ViVVcl2BMDvOzNXicDHKRoEjAuRNFZSTuMETtD6B3T3Ciqoa2GTDSy5jfT1w7il4ad1v8rs4jBO4QRpSJQJ8uFv0cL+kCvn7fKcGZRe34dcC3oEEydJHZKBkgrGNdmlTMnzoQIVXmC7DGTSM2RB266wv1et/Rmx0wVHS1HmcBfHChdrfKOkNYj61xVj8Q0jdubgFjXIdQrkWkoZXTOuSj++tBKZ8rxxkfw3I3bm0PYWy7OQLZe66pT8iWDWBu5jxM4WQcfsr6LmvxiR4gUqzDUn3YPGpsTLcIgr9BypI+Dhx8ZJH8ra2Kgn/f1KrAKvZt/IiJk5OC0CPR3D7hQdgEx6hixY1Rt+Rya/lYNkLp1zVAFPuoOTQsiZiBpv2CjS80GypDV+yPY0eOnu7c3OHNXfqFq3h/Gdy0UWVs6kZ6gH2Uba2NEXhl4ET/p3qRuQj8Mfcq4Ssq5z0ilVaUMRwbVQLh3myi6bzUIvEI/CvVB63IZIt9a1crfqpEr+BfJNcek4DA5wBFE4A+XkCzTEejop24Rtg6DwNv6+p1iW+7pyfIxe1aPk/shEf8LPDa4Fets2XHCCavFkjsEY0QcHzAnyh8PQ/gQl6/M8kx40C7Khq5EvFsubUDK5dLobTzBHFr0OhlmXtc62LRDx7+Lou1Oj2igLETDvse3jklNSHm0zKK/RNlMDh/rj/YI+np4jlEreX324hAfPilYmZJCFUPq731mRMnKd4VgEtpAGWgsntc+Kz4kao/CHrtxXyWoL9nEoWApMpkySPyt261++gIB2oUvVVk3APh6ywSR26vmwxkgSlZEFqXzKxE3VKC0PYxQ3omeKke3N2yK47Qvd3UQ5t1ZvVtckgs+jgQpPcuZEfqBQliNhE7y1/E1XV/UgS/L6h99x1ZcRe2hCHzOoSmfSUOzDJykmC1p5aChokPvB/V059p8VSI4LuSMRQ9Y1fcmk1imRjV5EVvq1S4epjVVzdoZM10HO562cveXPitQr9ZuvHD52MwLaeJfupq079EIGJeikzi0Qt40TxOINNNC1XB5mxM4c7B+yBGSGh6zrqDuS8lravzkyjYx7Jcrj/zJvzxwNCBBo9xMge3Vf5ZaCTJqk7mCTGyHj3VxA78pB6JmApQJLBijEuZPuuiOofBW/n40IurMRO3Ow7GYmRZa/ioZUiEUnGIELoEsJmc/LxbLRvDxzcL0z5JqEqklZp0zSeVasBgpV+jOc8lhXDppzAighx8GwWvBzg2vRlPJUGk4+BLkucm1AQN/u3dG6I1fQsG/vUgmmb3aO5TGcFrHBLknHWZDyWJl4VjEzuj71zmNTwKg+RCdFOdZWjKXexUEmKTYL2uiKPpyeIx1081spgnOmMPQDmNU5l8py0ZWASzl0sK205WMcJHNpT7DTYMnWpOT+6FvdyU65jmwONiz+XoxgcoTzK0NSxEQ4JVcZQTc3Q0f6zldX2o6kPJUAK54AL3BpfntQgeUZSt2D4KDz2cCulURsZPP7rbkodOas3awAY29Ae03n+IGLTsnsDVt6CvJdMKZzjjNH3PQL+jyhxXI0S82gs2XM2EjumkV/hoMJZh/p3T2dwgXaoMGfORWWYKATXDncKi1Urq8Qv4RjOnfulG0f2PBL4FXoLmUySMbjSPTac/gTz6VtUqUvb/XKLPYVmuLW7yHCCCi7E1HmSc6Tod/wPH5/FD+53vE3TUr8u3lLahjdUdoOyj4OhlCdI3XFEKwR4Cc31wqXDruqF7h8Dc8+DXTuuElrH7CVjYW4dCNLbSN2amAiQzD4PvzlevjNQtjF4+iqrYBM9KnH4KB305e48cG8ZfPgKCSPe8CD6WsHrMJ70v47HHc5vuicLCa2d0M/AQ81NYjlSitXUgNlQcpC/VA26PFyroBx5aKeWoEVFezkDA6M8Vkr9pCsj7RJp9TyKLk2F4lbckp+M1jS/I9G9FSgt7gpeSCqqLvsyifS2qql9SU4bZSLw73N2zdFMSoV8EB68y8fMOnBLfn/+eH6dZWr/E7JomPNQ4uLqnQZZKrbTcP9pW2AIBavI1Je7dIcaX/BNkZQhlOKJ95hAwnPnwW1oSv5Fmzyfl7hl8qxID3AMpULF/T3m9mGvvoSqtKX8d6jNukSsTxBFFT05KQP2Bz5wSSVggaLOSSdRSZtKovd4ACzoRRn12eaIHYu+h67GLEHDbR9ROJY2ogN3i7pmPo1Om7naZFpD8zpfafIlHCw2WjjfgUtk1xegX1MNB87YgRPAsP/nLa1jtmbFIhfoBWkxNFpK4hRkreTIbK3oKTUW9RcMyAdxGL5CAz9ZJaGRnRnoc+ARVvC4B4wxpP4bFmR7Wt0+lc4xml96rvVGLmopcCrQijLQBMD3w8nX1qtQnlUBk9Qr5UhU1lozLfhJAvwRUekvYFXLxDXewKls3sCjTycI70Q+v+4Ed0ZMGBzm59dv8s27fkMWZM6JOGUryIZ/DanZn/ZiJ4aOJaAwHUdvv9Z6qfG/vPTypcg4tQ6IlJQHdGUWIu/5/JkhLR3d3D6BRnqEJS7i6w8veXMilYe/mRWyqIUSwIDKUc10Y//A4zOuSM8aaeVdhSvwLaupFOmPdhm+t0n52OxnJmu1r7D50PQvk9Ps+SUuLdeDcDPpfAwQB7bf62eXuh9vVmdwSMvYGxn4vsf5IPXWpkDodVP5W9xC+eSs1oXy8E1yDCdTkmZXHJKyqJLPn1HjpDchG7ETg278cREJU/kCDX1Uy874rNyEFGv38Y/rOv9glqTX0jHQLR7DpzeGLfkzDOnBq6dhPFdjAZ+eqB9g1rT6geGtwrO8X+BCsfzdAAjel1RWUAgp9ppERf1UnEEcQv0s1/aCzy4lLQxCr8DWW6lPPVyyp7k97BbMSLNxuCDGcd4Boo+P4uRXZSQo/jddFIXjZH6gSG+gn7zDcW47StG7JpjTEdpOwSBn3GAqtsBkuVKm9RDD3luRsA6NIsrNoqcI1VCIHhtqLTLprLWg9om0d1En1OuTnpBPWmdAv3BR/H3zxsXy88YfaSGcSjjYAAz8P16cbZLxlmVR8kV+HtaLVdjccCMAw6Vk+MqbdHzu7OkdUoOKCJoLIRTHJj2OUesWFjZQfclyJPJckR+n55S4YBE0gvqTdsQ/AknLUOOY9IeueRgwhjV1oAoNRv90tWMjk46qV72JU7lfKMRfauhr8uvTJDfic/a6FLVQDls9kZ53VGM5A9SHyBDucybv4qx/B1Hga08SfLWk5U2Eet1n7NJtZ6WZfTs6aQ0HBjgvpzUNSpLBXqutzL9MoeDDq4ZbtVJ9drm8IdcvmhE3yI4So7MOwFZ6LZ36Drhu7KgfTbIFEH3Z/NGOyN6auDCEI5HsIrMWj8VXxQL9uZoLSdug1g8pRs/4cVpUgvGw7ViIbhRN+3OP0sa9jMgy1w2kEtOSnYbjlgAHR03YQsnBHJdKasCVCZrXXsWq19WBez7js1gAYF1Sp6C4IJ+9PfrE+RLRxsRucpBTK4oKvlNaZIC6kEjlJn4e2YWuwm4eTpQLYfi+++hTFlH0960hoSuwM2cQ+49PYXqY1cY3QwEmpfNAFzi52RB6pLyI5O/iMBxPkeLjdipgbubELCmQJ5lLnVlKEugxB3vKOm/Xr7+k/ifc11qSCqMZCMis/8e0XXntKYXLBBZP4k+yE8gzzKO2LnkpJSDRs7+EWSbB2c8qHINhrgGfz9r9Zf03ixo5ckp8Spk/p0eiU65MuKYBvTE3TSPWf0lyZoFdcBVpRWc6zbidoMHQ3GEii9ysVGh0Jeg0EubOttSP+ZRH6AViZNzUajLH5cataqfypLJ9TQ6l9qP8lQqIck53Ou4SSH1hShx+C/I0oeD+tJnknIlyZs2rX7Qdssh335G5E3BC1IRdae6OgdImSDfS8ii5/DSHyN2ati9M/wSZJkG/TzlUpVBUhaX5CF1e3FaRImbOFKctlOaLVyHQIaFrjklaYL8Oth0M+ffjdjvDi6zgyffyA9w7YEoj34oXrvGhQwZnMigj25hf9jBgRYXaB0BOnqgoErf3erjOAYIHjLGFTbsk0Me5xbu01603Sj5MOXc6u4ad4/nOlsO5mQwP8zFqEOiP/ogAsnJaa8g4RRFQYVFHcQcXCSeNq2NaDuB0cExjkn9DlT0YRk4YbOzIINze3utfpBUXkZg/+XoeNbAzj/m5DWM7yQ4wRIo3Kl9kpSD8qAs2AAn6eR5LVk4qZ5H5MjuMHVSPrMxuifRBudlsVd1TLn0VXQ3roUdvFJ1ggRZs6CVJ6icxXWD7nfX8poHGj28/QR8+OJqYyQIkgXf4aRK3M79nGkfUbHjsmnvZYkCee6hbiqd/GR5hwp7POfTsI1fZXESPucq8d1TEBj1vkrX7NLo5zVm87pfj8Ej/3MqvBDKWOHioAgbiCOXgRLXZbL7pb3tY3kV/hj6uZOG4pKx1IrW6OAUz6F8vCqLuWi9cD8Kj4csel+lS3ZI0g75E5XE3Fzau2l4cxWy6BXce0YDdNFJOeqMbHoVzws1YqcG7iNFFp+EMiuyTuqaAW0tKT+fA065Cs81PdeB8ixljFXhJ/DdJ8PoF1Aml4Kf1Q9/ImjpQ8Yy20TPheONcfgVljSch7RGmCR4FqSDWicNIjGtIYORXc6xIYtPQpBY2rPxkuR1lZS5UpGI1xGQZzZELbunffwM91XS2OGYC6g/l7JltV2V3IiK6f5CuXQY58aN6NliSlfXNlzRDyedDQFfZkO6ZIDWIWBc7BudSYcxoqcGNhYy6QUwrscpD5kkq0u0Rofg9hr+noMAMy7tvjw3QcCmvllUpTvx/W/Ztuwta1a0ts7gi8B1Shb7TvsMLiFDjT0XhrjRxeimnUKJRcikx2YR3XgiA4z9IjTkShf7SpY0Ou2YStwOw9vfiJ8aWJUVY/ENZKLrOIbgmlNSnkpVJh9hwN9zydxPGdHdBksQrsyAYksod528b1NHPCXvQiY7KotbwjhHCjlmwvBXu1Rp2LaC0S3kuuIsTgdEN6CBTslM6VoAo35I7ZSxODuLhfs1ATvDjLpQ9p+pYNvwSQ+dBdnwkG8D+wkodY9Mux/Fw7wCFY5nd4DyZKUf2zYkqopHIc8JwQA2dvcXhbiU4yg72mOFSwGLpG5MplwZROFZxc7STkbswQ1OL3CPGh5yMRXukuKtPDCItTDM2xEN90n7ynGuxiqW5b6Q4U5kq/Vp6sc6JfvjXLNcWCx2MGKlAgbE3aPZX4DRX85J+mqQSJA1C1qnRCX4EuzjsizWdKeCUdGsf9YDMko8XHWKBIVkQcrDhoCRvI1G+CMy6ri0j6ncqzz3I5DjOASIznrrxxqdyQQzuAfUiJEaOGcOW5gOGV511SkRLF9A0OTVjg1G7KENnroH458KJeir49LKEn2hdVJkkjfgpNcUy62pn5HKfaQo8Y6HQcTUTy2Ntur0Sr7JVStN5dKm+wfrDGZntP+JCNTVLVxJsmbFqn4icSO7HWnvpnEC7EwzckIhzl1PTlnMYMQrMKJfZrGQgQujYSBncPploEGM77VOgMzcBr1PyGJaJF8Ov4PytYO61U7QS86saPVDQj/zUUnsyyWZRvThCT1kXrl+sAQj7NO1aWmS8tCI4KBPwFEuzmKLGqL3zij9qquxyCRZk2iNjhPkyJQL8W8HZ7E5AOXhkciW98Hw3xhooKklezolgyAHw3gyiBHdg9CTzbwlrNLfc2oIvWrgIIyLO9Z/kfaB2AxiXC4HA7rRLvR4NyelrFUdmqNH0z4DlgNrjZHYQwdeVXprSzKnTSsP7O0hyHhSFucnDypwY24+kj+A8u6BUenzVXsrNStaJ9UNGstHCmX5P+wfGtFTA4xpHBy0GYFCn5poS0SSv5PsM0NGZsqzuM7XvDU1cDE82k9Sb5RRB4le+syKlKdiV+LxIAovyeLqwEGNke3N26JxuSa1w0a4JEVnxarBKXE750jHL5uX6vQLoecFo/DndFQthxJ/Bm9CFvgt9HYgF4mbl6YGHrdR+X7xHNvNJaekLAxcCGqvQT9XcfOGEdujP6iM7IU/hkL19IJLUdg2Nn+HfPNhmAekvZCB4MAOV/KwLAsi+WHzz6mC7YTAcD775tSJS8HU2g0ccjWqicv1FreUT/4b0tBnjfKODyX+6qKT6jJJiVVcVwwHyad9jGdWYD8WDnkmSsTlVT0k6CgLVp2yMi0mETwa2Hc3onvUGswONIYgEvrKOpeMgYZAor/3Gks73nlpxB5y4GZnjsDCKZ3br0o5mL1R7r+JgD6Hc5VZVDTDFrkO8XmUKb8BtZPSOJIaKgvaiI3fedXhLwbt4ugE6ExZ5n2VcoFrTklWgrVYD73/Ef3xw3ymzBBcHEAn5egkG8YlQ6HhapmU5FWHlwTllv80Yg86cMBL9/3NhUguVSykDRRwzPmoqg7RFwF5OAB07tnPQyl5HRrKudVGNGQSfZ6HYdxT015cPhDwDFjIvD+6EndTp7pcdES3lMO2daCkYpntzAkEHu8EV6Kgj9HEaYUmVXJqnyRZlUfJFflYTN4tg6mOvoIjwIW4tDf0eQ8vlXJVl9Aj7y49bdxS75SDAoz2Yxa37scSDHR2tRFK8QdzSpzQkMH1+5sDA1ylChHXwDHXuOaU1B1l4pQN91WOXjR4qhCPHuCJDDD+w9Go91qn6N3YWdHKQ+qSTJX+m/s6jeiZQG9EiOXvOKDimlNSFu2UsXwV3YPpfgHBEAH3kQaROBnZ4EmbtZIMICvS6OgQMLybUaZ9L+19pMiUu0I35+P7H3HRKdlmkI199la9hctj6GHMYvF5NPglaOjnbdbqbQxZkUZoyu81cNQWlOPjeB2+Eb0u4PI+BK1j2W+jU1aCRLJ8adM6JQ/3gnx38KSIrFY/eaQEGjwvboUB3FBQpZfczRTidY4+81zgrhovNdPHxsSl42D4jxRj6dw2PbYJAiicUj7Aucq0j43xcADMTnklpGuDRiRl0ZlMyWfhqBfV4uwazlUGsTiIc4G2cnDNKSvPLMo8CYKbH4zoHsMRXNYFwziYpaTLAyH4fRn6XJOY9YzoW4WcPgNWyB6f5wwZJCp6l0sQLKfwbCEjtofHiBG7qGs/gD7NvswqNBgasWtZhYMiyPL3g0f09YiRhvLsXVAazmAJ72J1QMdE0HgZjnneYF5B5ZECmJmCSEyE8dzcHdHdMGjKoZ1UibXc/YIMs+fmFnR/Tc3aviEKz0UZ+xTfo50g4TOzoNVrpWSX545Vc3b2W7g8+gyOZKKvdzaX3FWNKcHQsqDNODDsdXDUq1kG8pgXfdJ+JbgcYuUmXQkuVo/I/C9xBDYXhd8y6vbw2HroLWo8dj8Wzt0DaTMpysJHYfDXw1lnBrG8NVBuXviDn2sQTGY3RuFeaZ/85zGEwRUpcNDpMK5VNDSXDN9mJEtXZKMcNkggeMxDKb6fd0qPukDPkfIYz1je4GJ2coU9nZJLE3kQWn9HmT08tgrs2/HIR5ZoMMbXXcukWbJbFyIqxvInWZxO6OGhz5ItROLbHNxA2baBhplksMOBzJTsk8MpHy+q0hQeY2LU5OGRHbjmM1DhjwpKLqWD0lCTDHgoklmSTokA9Qae//9Qwo40avHwcAc80AtOehLXrNo+11Atd/lclUpBrMffMxtVy7hheeGPx+ACN09zC1YQiZV00qGUSemUJvBwjvVu7hZhH9w8uofHIACySCEu/QfKvUuRSVcO9nKXTmnneQPeVF5unZj15nAPjwEDxtzA7V8w8uddW8jQF9oR2GIsF+RjecoYv1vEY6gh1xmORR/tRm4gtgaf5AyukPJRTr3vU8kT/cl2HkMalRMCxT7Ipjehz7bRDhwlOUcWpCy2n5xX8ln821m7R7OH7Mn1Hh6bgNMvuc6WgwMlO+AE+u7KrJ3UOiW3cCFw/CpQ4c5GXA+P4Qd9H6mSR6Av94AtI5Mcp56kQ/J7kdGfhlNe7U+28/DogT2WzPooSt1TkbXKdBSdwRIcqZZkMNADVEquwnf/obBYjjbieHh49AZPA+AcKZznmXqVujZDcz8oB6gKZbnncLmy0MNjwMip2V9GRrsQDvR8rTJp1SnRx0UJK7RT+rlKD49+oGvKNrxFDY51w0DvK+l+r1iAzLwfT04w3+Lh4TEQmHON7mUG3ZqFDPb1+P3pQIXn8Hp685EeHh61gj7XSIkT9JpWON3mMin/reqUSj4bKDE9XxaB+RgPD496YXRHaTte0IS+4zw432o6Ih2yJ4MofBL/79dBHI4yb/Pw8EgL7DeOVa3bc1kgt6rlYzEZ/cnDG+OWHB3YvMxjUGLEiP8Pe3BHzU8oDrgAAAAASUVORK5CYII=;" parent="kMgDOZqCUU3ec5CZU187-29" vertex="1">
          <mxGeometry x="10" y="6" width="16.97" height="15" as="geometry" />
        </mxCell>
        <mxCell id="kMgDOZqCUU3ec5CZU187-34" value="" style="group" parent="kMgDOZqCUU3ec5CZU187-3" vertex="1" connectable="0">
          <mxGeometry y="210" width="130" height="65" as="geometry" />
        </mxCell>
        <mxCell id="kMgDOZqCUU3ec5CZU187-35" value="" style="rounded=1;whiteSpace=wrap;html=1;" parent="kMgDOZqCUU3ec5CZU187-34" vertex="1">
          <mxGeometry width="130" height="60" as="geometry" />
        </mxCell>
        <mxCell id="kMgDOZqCUU3ec5CZU187-36" value="&lt;font style=&quot;font-size: 8px;&quot;&gt;56 cards&lt;/font&gt;" style="text;html=1;align=center;verticalAlign=middle;whiteSpace=wrap;rounded=0;" parent="kMgDOZqCUU3ec5CZU187-34" vertex="1">
          <mxGeometry x="85" y="33" width="40" height="20" as="geometry" />
        </mxCell>
        <mxCell id="kMgDOZqCUU3ec5CZU187-37" value="&lt;b&gt;Datenbanken&lt;/b&gt;" style="text;html=1;align=center;verticalAlign=middle;whiteSpace=wrap;rounded=0;" parent="kMgDOZqCUU3ec5CZU187-34" vertex="1">
          <mxGeometry x="35" y="5" width="90" height="17" as="geometry" />
        </mxCell>
        <mxCell id="kMgDOZqCUU3ec5CZU187-38" value="" style="shape=image;verticalLabelPosition=bottom;labelBackgroundColor=default;verticalAlign=top;aspect=fixed;imageAspect=0;image=data:image/png,iVBORw0KGgoAAAANSUhEUgAAAOcAAADMCAYAAACIn7TVAAAAAXNSR0IArs4c6QAAAARnQU1BAACxjwv8YQUAAAAJcEhZcwAAFxEAABcRAcom8z8AACuASURBVHhe7X0JfF1VnX9lFkcdRR1XZnSGPzgzIiJaR0tJ3n3vpaUVKiBQGRBUtpEiiqwCRYoU2VGLAgXqMFIEmuae85KWsillE1qa5J77WgoUpELZyk4LpbS0+X+/553zEtJbmibv3XuSnO/n8yVJecvv/s5vO/sIj8GLUffNet/ojtJ2hUh8uxDLaQUlLgMnBR2tOzYtFf9kXubh4ZEWmmL5xWJcOq6gZCmnxFNwzC78rdkEBkq+BXbAUc/PdYZjR7Zf+XfmrR4eHvVAU1nslldyKpxx2dhya9cY0DolHdTSOilfg7/X5GN5Q06F320oz/2I+SgPD4+BYkpX1za5KPxWoMRNeSWeoEOSPZ3x3WidlNm0qOT9yLrHNHTO+rj5eA8Pj61FEMkPsy8Jh7wd5ekqmymTHLAvZDblZ+DnOmTfpcimp49eJHYwX+fh4bElwCn/LR+L78Ep7y6o0gZmPjLJ4fpDW/LqUljJFfi3s4rl1l18v9TDYzPIdYjdgig8qxCLznc4UIKD1YL8bJLZGFn0+SZVuhpBYZ+JS5r/3ojk4TG8gUyZh1P+mllsoKVrf0kn3QPfq0d5YxkWVenoYEnzp4yIHh7DBzshOzUpMQF9v9uKSj5Lh6xl6dpf2kxajOX6IBZLAiVO9fOlHsMChY6Wf4XhHwmHvAsl5OuuOGVvVstdJTfAQR9mZsfPBt8v9Rhy4IALDPx4lIuP0fDr3Z+sFa2sJJxzLVcgFWPxDT9f6jGowfnJoLNlDPqSv0UG+ourWbKvtNm0EIv1yPpt6Ct/f9SSWR81j+vh4T6C5df8QxCHB8CIW2DUz3OgZTA7ZW/SSfXKIyU2croHPAHP+y/m8T083MOY9uZtYbwHV+YnxarBnim3RJtJ2S8FHwIvzHWIz/upGA8nMLGr+W8KZTkSznhqoKRiyWf7aEkGPRRp+6X8ib+fAWcWIrGHH+X1yAQctSzEpVxjJC7lQIl1SGOgw5J89l6OenOx3DqRW9qM2jw86ocJ7W3vDyJxFDLlbGTKF1nWDWeH3BypE6ubJlW6GwHstMZF4aeNGj08agdkgE8WlPwReGc+lm9zQGQ4la79JZ3T6iofi07o7txiZ2kno1YPj/5j9/bmzyLqsz/5GFfN+EzZP/bMpNDnc3klrg4iuStHto2qPTz6hsY4/EpTLH+OaL9cl2agd8qB0+qSDGL5KroH18BZJ4xV4SeM6j08EtDV9Z7GuCWHPuXFjO420nunrA+pV+qYv+eVvK1QLh02pnPO50xreHiYkVclD0WWFPjpzCL04ULrpDqrqpLCv13i+6XDHDyqAxnyaDjlHTCINX6QJ1taJ2UboE0eR9tML6iwOLK97f2myTyGMsYvm/feXCy/WIjFxciSPAVgne0D9TYWz+zI9qCzFlVpNRx1fj4K9/LnHg1R6PWuKhxf4Cihki9ah6QBJBmHZ/bUzmnaKa/ERmTSu9B+k3iMi2lWj8GMiUvm/2MQiYmIwNdzl7/t2yQZg6e7ZJux7ch8LBei6jmpELV+wTSzx2ACS6BiLH+io63pT3qnHBqsjg0o+VAQhTPQTWk0ze7hKjjqymsI0EeZDHI1il/JM0RpMynbNojlSgRhgX87YC+/CdwtjFW3foAnoRdiMR18gQ3n+5PDh2zrSnvL9Wj/Tm4CH7Ok7bPGPDyyQKNq3b6gxOF5Ja9HibPaOqR3yuHJnkE50PfEyJ/5kjdlNC6Wn4FDngjHXMTSxvcnPXuTTsoTKNC1Wam39UUyb8zHox5o6Jy1E5R9RUGVymwAOmbvRvH07Ek6Ke0EwfsZ9Etbc3G4NzfIG5PyGAg4P4nI97V8jOgXi6d6KDuxMTw9k2jtht0f9EtvQYD/rt9f2k/wVLdc1FIoKvm/cMo3qFzSO6XnQGjtiL/z0Gx2j3hsKTc9GNPz2BzYnwwicSyUN4dO6bOkZz1Im7KOmlfiSfx9eaEs9/ROmoBcZ8vn0B84PYjlQirMD/J4pkXaW2XwSLwG+5vFkndke/O2xjSHJ/Qi9M6WPakQlBd/oaJ8pvTMinRS3S+N5RpwMfqmJw+7xfZjOkrbFZTYL1DiJlu6eqf0dIW0Q9ojEoY+j7cYy58G5Zb/HNKjvFw0AIecxFUcVAAjlXdIT1dpbbSSTcUrQSSmceZgSPVLzfzk6UUlF3mn9ByMpL3qbBqLp8FrkVH3D+bP/1tj4oMMXVO2aeyUo3MqvLCg5NIe9byn56Al7ZiDlWa+tAVOesSgOdl+/LJ5Hyqq0n/nlLgXD/O8jTg+U3oOJdpkk1diLY9N1feXutovpWA8PQ0R5c4glm9TeF++eg510r6tnXO+FP92ydjFrbuPum/W+4xrZAde4oPUPhUO+VfvkJ7DlbR5spJN5VtBLH7PacLRD5U+aFwlPRTi0t4FJa5B3f04BaJTJgnt6TncWHXSynzpzfk4/CGvhzSuUx9w0QBPQUP6lhxaZseYQvQWztPTs+Kk9BFk0g25KFyAnyfW/JJhrpLABx+Yj8UdRSVX2fI1SSBPT893skcmfRtJbTkqzgsCFe7MZGdcbOvBi2bwgafgAxfwS7xTenr2n3RS60OoPl+GX80IOlvG8Owr43JbBjMlPPukoiqtYFrmh/GDk77Q09Nz62lL3kBPxYjpeVX6unG/zSPXGY7Fi+/yWdLTs/60JS9nO9BtnLzZUrcQiW8XlHyWHu0zpadneqSD0udQ7v5qk4UMxVg2ct2gH3319MyGtlrlYejGLc1hzErc5B3T0zNbmhL3kSYl/l07ZyEu5QpKbEx6saenZ7qkg7L/qZ0Tv1zkB388Pd0gfZHZM2hv+9gIdEL1ObCenp5ukINDxXLr2BFBJDYkvcDT0zMbVkZuwx+jz5n8Ak9Pz2xI5wyUOHoE/vNE0gs8PT3Tp11jkOsQu3FA6Fr7D56entmSA0J5JZ8NljR/is65j3dOT083WNlmJmbrpXx7P1T6IP7xXv5j7xd6enqmRybJoiq9VYjFQXqekyiWWycina7x852entmQjql3qkTiRh6UZ1yzctVeLhJnc9e2d1BPz3RJx+TKIJ5aOVa1bm/cshv6GJJYTAZf4wt9P9TTs/5kMjTl7E28FcG4YzKalJjA0w/4Jt8P9fSsD+lfZh3tUwUlfrFXee5HjAu+O3ZT4SfwAWfBoyN+iC91PT1rR5P0XgNn6vtX+oPCYrED+qFT87F8xpe6np79J33HlrAFJUv6st5aIKdmf5mpF066kk7qM6mnZ9/Y0ymLSt7FE0eCSH7YuFaN0NX1nsLi8Etw0ssCJV/0TurpuXnSGekj+H1doMKFTeXSd0YtmfVR4031AzdooyMreI4t62edqhME9PQcjuzuAooIyWwSF/oY10kPXLzAE+B5eZGJEp6ew5asJHU1qcQi+MWZen1sltDzo0oeCIH+2LO+ThLe03Mo0paw8IO/BFF4/BbnK9MGp1+CSBwVxGKJjSDeST2HMq2dI0u+DFu/iFdhGndwEyh1P4la+4wAUcRGlKQH8/QcrOx2Svkid5AESjTwNnfjAu5jzJK2zxZVaQpTPR2UD5P0oJ6eg4l6AYGSbwaxnJWPZZMx98GJoGP2V/FQ0xhlukexkh/c09NVMrnQdmHH88ADnbxivr/IRy27oz86gwvr7YMmKcHT0xXSRm0Jy7GUxij8QSpzlVmAW9OaVImrja4GV/ly19NFWqcsKrkxp4QK4vDIml986yqmdHVtw7sJdYngt6h5OkRri7kofDhQ4tT/Wij+yZjtMEPXlG0QkQ6AIv7ISEXFJCnM07PetPZXVKXHgij8eaGj5V+NlQ5vsI5HFj0CvK1aUoBJSvT0rCVpZ3RK7rxCV+uCxjj8ijFLj54Yy32kSv4Ipe7j3kk960lrX0gIq8GrCmU50pihx7uhcbH8DJz0Z3klnqACySQFe3puLWlLpnxdjWx5w5i4ddROS5r/3pieR18RqHBndMqno9x4kpO/3kk9+0tmStoQqrLXYU+3I1vub8zMYyAoLJajodBr/BY1z/7QjsCiGqNTHnjAk7PeZ0zLoybgZu9I7EEnLcRifVXhCY3h6Wn7lKbauhd2c3jT0uE6LZISuJAhiMRERMD70Gd4m8r3TuppaZ2SP7n5AtnypMz3VdYLo+6b9b7RD5U+SOr7GxzBmPbmbRkN0QAdbAifST27M6VYjuA9lZsvjLk4gbHq1g9w2pC+1O9dLBPa296fL4sAmen0Yix/DyeYza0xeOgZ+H1SEMldzUszR+Oi8NOBCjmyG3c3TnLjeQ5Nss3NYM9TjZG4tKFz1k7GPDIHS2kEinHwm/ORxa+DT91MXwJ/mVPhd4OO1h3NS7cA9uticRAcMgzMsrqepAL4E695HB9+ZWOnHG3emTn4kHRS3jdKGX0WHfq0FRN+XwN7vFrvq3QEzNpwxFMg4y1wytXWdxhIrC+ZLN/JZYIj2//wMfPWTcG+HLz7AnzYmi2NiNpIhdc/yfeMXyx2MB+TOXiMp95HGstnKCfpHXVoke2pDVuJjfj7Bg4UurKF62sLZn4IznY07O8B64TvZn98DRkgIXJ+33xMD6D+Zdq1xpz0IUmsvh5Oisg1ZXRHaTvziZkj1yE+j4j1Wyhp5dY+l6eb7HZKvdn5T0Ulv8l+nGnyTEE5kAWP4i4WlLFv0eH6mhT4Ojox3jeP3TTzkRWgHByPF/XrCsCqwvA7V/LDSU/gSfHmo7MFynQuZMBDXwW+1F1KJD+Lp7uksRdUaQNv4sp1thzMgUrTypmCB0QjU05Af7fNnkLZV6fsSeug+P2Ske1X/p3+cJYDyC5z9MMnvKmv5IeT/BwI+mA+kj9Ax/zj+kscQD4K9+Ldh3jWVwf6rJ7pkcGURLstRPsdy1F606SZQx8goESrlbM/TtmTOnGo0ktw+HzlC2KxD7LKhqQX95fd2UnMR8l7uDNHOiCTNtJJY3krFVkLhXrWhzbQ4/dlhbh0vEtbuBrjlhwqxGsgW83vEKqUt+KaHZdNey+d89puZ6odKbCpo99iyufVgiOa3XBSc4znIei73O+d1C2yLbQ9KrkCbTLZpeMmOWCDfu5U2PPTdMp6+U2ALpg+eQG/PJb0olqxavyqtBolQDOvcnBlFwAnhCHX0TwfhiN/tY6Cnn2ndUpUNSvRFpfBTv7DNFPmoKMUY/lTVILLrT0nPUOtyO9gN2xEWsZoHwpR5zX0H67glId59szBfaQIHKdBzsXWSHrL71kfUtemlHuOA3fFuM2Zzc50yiAKf8IRWMqaVvCufEfp+BFJ/7Oe5BfrUSmULXDS05vKLf/P6CJzUBaUu7/gURWUMa3ANRxp7QDB+nX8fQNswZkzYLlCrshuTyzvteVrmrbA7+Ksxwj8p5z0gnqzO0OJKBeJyUF72+ZXSKQMXnWIKP4b6EafEOidtHakLm1lAh3P4zREdeogY+iD52JxEOS6jWMlbPve8tebVj9NqnX8CE7UZ2V8/F5r/FzAXijL/+EKC6OrTBHMn/+3KGtGccAMTrrWO+nAaI0OGfJtOOSfeYmsK2fAckOHvdaSmTzLqkn7AvrdekCosbJHcmOWhmcbDp3u9bkobC9GpW+5Mp/FqJ4vh9/JqfBOyLnFpY2em9IGNhh+xPlvvSvDBTQ3/02Dmv1145Rv6IyVcdtWSn15BbM4jK/t/RCsjf+Y9OI0aZ2Uv1NhQST31fM9DoCZFDJ9D1n0bsrnnXTLZFtqx1TyYejOqa4LFxCgavx1oEJnbiDQZbQSL79jQ0lelb4O4fSEatKb0iYVVZFFrEcJ9Af2S4yomYNbgALVcijknEtZXWlYl9jdfnIZ+m5Tc7H8olFf5iiWW3dBgP0VbOsFlwIs7aiSmMQZm+z1rGQFty4bso0MuV7KRWJ2dVmTA9Bn7UJnUGYn5fRO2m1g6AK8iAxwQSFq/YJRV+bYvTP8EsrFyyHnMtpUxRGSnyNtWtthObvZkr/S/5TtVslJH5QFKQsVigyq58IaeMZoV9d7jNiZgveRQqYjOOpsg8lwc1LbPtDBKzQwjna70j48ogQynQJqp6zImfwcadPaSxDLV4NInLzFxfzcJIqodzXe+IprhmaDBjeCI4ick+ts+ZwRO3PsgUyK/ss53JnTbazJzzFUaI2LFRcMbBb7cUYdmaN6jE0sHqScbBMXbRkBbcFWd9tQsu2D2vx22wBJX5AV7YNBxgcRcc7o+1EP9cfoRWIHROnzCqo0ZM/atTaBn+vQBgJBck/z+JnDHgDXpEqSsxDUv2tOWQlo4gneycLKy4i+dRjfOe/jQRweich4n31I1x60Msqsj3o4mnvrjOiZg4NsMNxLWbK4ZiD9JZ+Bz0Kjx99zOVfp0hmwHJOAjLNgD+tdG02v6g6lP/R3WTESXzNiDwzFaM4/51X4Y9btvLPQNWOrRHG5Ho6wUO8jLc/9iBE9W3RN2UYP2ceihQYzWJ3UGhaC9AYY1iLu6GEZb54yc/DQcch0I7LRcyajJz5HFqTeKk4p14Azcx1it7psoeQRCkjDx0IJZX6hS+UuG8TIsw5Z9I5GJfd3ZbKbc8mFuLQ3rzpEX/lN1wzo3ViVVcl2BMDvOzNXicDHKRoEjAuRNFZSTuMETtD6B3T3Ciqoa2GTDSy5jfT1w7il4ad1v8rs4jBO4QRpSJQJ8uFv0cL+kCvn7fKcGZRe34dcC3oEEydJHZKBkgrGNdmlTMnzoQIVXmC7DGTSM2RB266wv1et/Rmx0wVHS1HmcBfHChdrfKOkNYj61xVj8Q0jdubgFjXIdQrkWkoZXTOuSj++tBKZ8rxxkfw3I3bm0PYWy7OQLZe66pT8iWDWBu5jxM4WQcfsr6LmvxiR4gUqzDUn3YPGpsTLcIgr9BypI+Dhx8ZJH8ra2Kgn/f1KrAKvZt/IiJk5OC0CPR3D7hQdgEx6hixY1Rt+Rya/lYNkLp1zVAFPuoOTQsiZiBpv2CjS80GypDV+yPY0eOnu7c3OHNXfqFq3h/Gdy0UWVs6kZ6gH2Uba2NEXhl4ET/p3qRuQj8Mfcq4Ssq5z0ilVaUMRwbVQLh3myi6bzUIvEI/CvVB63IZIt9a1crfqpEr+BfJNcek4DA5wBFE4A+XkCzTEejop24Rtg6DwNv6+p1iW+7pyfIxe1aPk/shEf8LPDa4Fets2XHCCavFkjsEY0QcHzAnyh8PQ/gQl6/M8kx40C7Khq5EvFsubUDK5dLobTzBHFr0OhlmXtc62LRDx7+Lou1Oj2igLETDvse3jklNSHm0zKK/RNlMDh/rj/YI+np4jlEreX324hAfPilYmZJCFUPq731mRMnKd4VgEtpAGWgsntc+Kz4kao/CHrtxXyWoL9nEoWApMpkySPyt261++gIB2oUvVVk3APh6ywSR26vmwxkgSlZEFqXzKxE3VKC0PYxQ3omeKke3N2yK47Qvd3UQ5t1ZvVtckgs+jgQpPcuZEfqBQliNhE7y1/E1XV/UgS/L6h99x1ZcRe2hCHzOoSmfSUOzDJykmC1p5aChokPvB/V059p8VSI4LuSMRQ9Y1fcmk1imRjV5EVvq1S4epjVVzdoZM10HO562cveXPitQr9ZuvHD52MwLaeJfupq079EIGJeikzi0Qt40TxOINNNC1XB5mxM4c7B+yBGSGh6zrqDuS8lravzkyjYx7Jcrj/zJvzxwNCBBo9xMge3Vf5ZaCTJqk7mCTGyHj3VxA78pB6JmApQJLBijEuZPuuiOofBW/n40IurMRO3Ow7GYmRZa/ioZUiEUnGIELoEsJmc/LxbLRvDxzcL0z5JqEqklZp0zSeVasBgpV+jOc8lhXDppzAighx8GwWvBzg2vRlPJUGk4+BLkucm1AQN/u3dG6I1fQsG/vUgmmb3aO5TGcFrHBLknHWZDyWJl4VjEzuj71zmNTwKg+RCdFOdZWjKXexUEmKTYL2uiKPpyeIx1081spgnOmMPQDmNU5l8py0ZWASzl0sK205WMcJHNpT7DTYMnWpOT+6FvdyU65jmwONiz+XoxgcoTzK0NSxEQ4JVcZQTc3Q0f6zldX2o6kPJUAK54AL3BpfntQgeUZSt2D4KDz2cCulURsZPP7rbkodOas3awAY29Ae03n+IGLTsnsDVt6CvJdMKZzjjNH3PQL+jyhxXI0S82gs2XM2EjumkV/hoMJZh/p3T2dwgXaoMGfORWWYKATXDncKi1Urq8Qv4RjOnfulG0f2PBL4FXoLmUySMbjSPTac/gTz6VtUqUvb/XKLPYVmuLW7yHCCCi7E1HmSc6Tod/wPH5/FD+53vE3TUr8u3lLahjdUdoOyj4OhlCdI3XFEKwR4Cc31wqXDruqF7h8Dc8+DXTuuElrH7CVjYW4dCNLbSN2amAiQzD4PvzlevjNQtjF4+iqrYBM9KnH4KB305e48cG8ZfPgKCSPe8CD6WsHrMJ70v47HHc5vuicLCa2d0M/AQ81NYjlSitXUgNlQcpC/VA26PFyroBx5aKeWoEVFezkDA6M8Vkr9pCsj7RJp9TyKLk2F4lbckp+M1jS/I9G9FSgt7gpeSCqqLvsyifS2qql9SU4bZSLw73N2zdFMSoV8EB68y8fMOnBLfn/+eH6dZWr/E7JomPNQ4uLqnQZZKrbTcP9pW2AIBavI1Je7dIcaX/BNkZQhlOKJ95hAwnPnwW1oSv5Fmzyfl7hl8qxID3AMpULF/T3m9mGvvoSqtKX8d6jNukSsTxBFFT05KQP2Bz5wSSVggaLOSSdRSZtKovd4ACzoRRn12eaIHYu+h67GLEHDbR9ROJY2ogN3i7pmPo1Om7naZFpD8zpfafIlHCw2WjjfgUtk1xegX1MNB87YgRPAsP/nLa1jtmbFIhfoBWkxNFpK4hRkreTIbK3oKTUW9RcMyAdxGL5CAz9ZJaGRnRnoc+ARVvC4B4wxpP4bFmR7Wt0+lc4xml96rvVGLmopcCrQijLQBMD3w8nX1qtQnlUBk9Qr5UhU1lozLfhJAvwRUekvYFXLxDXewKls3sCjTycI70Q+v+4Ed0ZMGBzm59dv8s27fkMWZM6JOGUryIZ/DanZn/ZiJ4aOJaAwHUdvv9Z6qfG/vPTypcg4tQ6IlJQHdGUWIu/5/JkhLR3d3D6BRnqEJS7i6w8veXMilYe/mRWyqIUSwIDKUc10Y//A4zOuSM8aaeVdhSvwLaupFOmPdhm+t0n52OxnJmu1r7D50PQvk9Ps+SUuLdeDcDPpfAwQB7bf62eXuh9vVmdwSMvYGxn4vsf5IPXWpkDodVP5W9xC+eSs1oXy8E1yDCdTkmZXHJKyqJLPn1HjpDchG7ETg278cREJU/kCDX1Uy874rNyEFGv38Y/rOv9glqTX0jHQLR7DpzeGLfkzDOnBq6dhPFdjAZ+eqB9g1rT6geGtwrO8X+BCsfzdAAjel1RWUAgp9ppERf1UnEEcQv0s1/aCzy4lLQxCr8DWW6lPPVyyp7k97BbMSLNxuCDGcd4Boo+P4uRXZSQo/jddFIXjZH6gSG+gn7zDcW47StG7JpjTEdpOwSBn3GAqtsBkuVKm9RDD3luRsA6NIsrNoqcI1VCIHhtqLTLprLWg9om0d1En1OuTnpBPWmdAv3BR/H3zxsXy88YfaSGcSjjYAAz8P16cbZLxlmVR8kV+HtaLVdjccCMAw6Vk+MqbdHzu7OkdUoOKCJoLIRTHJj2OUesWFjZQfclyJPJckR+n55S4YBE0gvqTdsQ/AknLUOOY9IeueRgwhjV1oAoNRv90tWMjk46qV72JU7lfKMRfauhr8uvTJDfic/a6FLVQDls9kZ53VGM5A9SHyBDucybv4qx/B1Hga08SfLWk5U2Eet1n7NJtZ6WZfTs6aQ0HBjgvpzUNSpLBXqutzL9MoeDDq4ZbtVJ9drm8IdcvmhE3yI4So7MOwFZ6LZ36Drhu7KgfTbIFEH3Z/NGOyN6auDCEI5HsIrMWj8VXxQL9uZoLSdug1g8pRs/4cVpUgvGw7ViIbhRN+3OP0sa9jMgy1w2kEtOSnYbjlgAHR03YQsnBHJdKasCVCZrXXsWq19WBez7js1gAYF1Sp6C4IJ+9PfrE+RLRxsRucpBTK4oKvlNaZIC6kEjlJn4e2YWuwm4eTpQLYfi+++hTFlH0960hoSuwM2cQ+49PYXqY1cY3QwEmpfNAFzi52RB6pLyI5O/iMBxPkeLjdipgbubELCmQJ5lLnVlKEugxB3vKOm/Xr7+k/ifc11qSCqMZCMis/8e0XXntKYXLBBZP4k+yE8gzzKO2LnkpJSDRs7+EWSbB2c8qHINhrgGfz9r9Zf03ixo5ckp8Spk/p0eiU65MuKYBvTE3TSPWf0lyZoFdcBVpRWc6zbidoMHQ3GEii9ysVGh0Jeg0EubOttSP+ZRH6AViZNzUajLH5cataqfypLJ9TQ6l9qP8lQqIck53Ou4SSH1hShx+C/I0oeD+tJnknIlyZs2rX7Qdssh335G5E3BC1IRdae6OgdImSDfS8ii5/DSHyN2ati9M/wSZJkG/TzlUpVBUhaX5CF1e3FaRImbOFKctlOaLVyHQIaFrjklaYL8Oth0M+ffjdjvDi6zgyffyA9w7YEoj34oXrvGhQwZnMigj25hf9jBgRYXaB0BOnqgoErf3erjOAYIHjLGFTbsk0Me5xbu01603Sj5MOXc6u4ad4/nOlsO5mQwP8zFqEOiP/ogAsnJaa8g4RRFQYVFHcQcXCSeNq2NaDuB0cExjkn9DlT0YRk4YbOzIINze3utfpBUXkZg/+XoeNbAzj/m5DWM7yQ4wRIo3Kl9kpSD8qAs2AAn6eR5LVk4qZ5H5MjuMHVSPrMxuifRBudlsVd1TLn0VXQ3roUdvFJ1ggRZs6CVJ6icxXWD7nfX8poHGj28/QR8+OJqYyQIkgXf4aRK3M79nGkfUbHjsmnvZYkCee6hbiqd/GR5hwp7POfTsI1fZXESPucq8d1TEBj1vkrX7NLo5zVm87pfj8Ej/3MqvBDKWOHioAgbiCOXgRLXZbL7pb3tY3kV/hj6uZOG4pKx1IrW6OAUz6F8vCqLuWi9cD8Kj4csel+lS3ZI0g75E5XE3Fzau2l4cxWy6BXce0YDdNFJOeqMbHoVzws1YqcG7iNFFp+EMiuyTuqaAW0tKT+fA065Cs81PdeB8ixljFXhJ/DdJ8PoF1Aml4Kf1Q9/ImjpQ8Yy20TPheONcfgVljSch7RGmCR4FqSDWicNIjGtIYORXc6xIYtPQpBY2rPxkuR1lZS5UpGI1xGQZzZELbunffwM91XS2OGYC6g/l7JltV2V3IiK6f5CuXQY58aN6NliSlfXNlzRDyedDQFfZkO6ZIDWIWBc7BudSYcxoqcGNhYy6QUwrscpD5kkq0u0Rofg9hr+noMAMy7tvjw3QcCmvllUpTvx/W/Ztuwta1a0ts7gi8B1Shb7TvsMLiFDjT0XhrjRxeimnUKJRcikx2YR3XgiA4z9IjTkShf7SpY0Ou2YStwOw9vfiJ8aWJUVY/ENZKLrOIbgmlNSnkpVJh9hwN9zydxPGdHdBksQrsyAYksod528b1NHPCXvQiY7KotbwjhHCjlmwvBXu1Rp2LaC0S3kuuIsTgdEN6CBTslM6VoAo35I7ZSxODuLhfs1ATvDjLpQ9p+pYNvwSQ+dBdnwkG8D+wkodY9Mux/Fw7wCFY5nd4DyZKUf2zYkqopHIc8JwQA2dvcXhbiU4yg72mOFSwGLpG5MplwZROFZxc7STkbswQ1OL3CPGh5yMRXukuKtPDCItTDM2xEN90n7ynGuxiqW5b6Q4U5kq/Vp6sc6JfvjXLNcWCx2MGKlAgbE3aPZX4DRX85J+mqQSJA1C1qnRCX4EuzjsizWdKeCUdGsf9YDMko8XHWKBIVkQcrDhoCRvI1G+CMy6ri0j6ncqzz3I5DjOASIznrrxxqdyQQzuAfUiJEaOGcOW5gOGV511SkRLF9A0OTVjg1G7KENnroH458KJeir49LKEn2hdVJkkjfgpNcUy62pn5HKfaQo8Y6HQcTUTy2Ntur0Sr7JVStN5dKm+wfrDGZntP+JCNTVLVxJsmbFqn4icSO7HWnvpnEC7EwzckIhzl1PTlnMYMQrMKJfZrGQgQujYSBncPploEGM77VOgMzcBr1PyGJaJF8Ov4PytYO61U7QS86saPVDQj/zUUnsyyWZRvThCT1kXrl+sAQj7NO1aWmS8tCI4KBPwFEuzmKLGqL3zij9qquxyCRZk2iNjhPkyJQL8W8HZ7E5AOXhkciW98Hw3xhooKklezolgyAHw3gyiBHdg9CTzbwlrNLfc2oIvWrgIIyLO9Z/kfaB2AxiXC4HA7rRLvR4NyelrFUdmqNH0z4DlgNrjZHYQwdeVXprSzKnTSsP7O0hyHhSFucnDypwY24+kj+A8u6BUenzVXsrNStaJ9UNGstHCmX5P+wfGtFTA4xpHBy0GYFCn5poS0SSv5PsM0NGZsqzuM7XvDU1cDE82k9Sb5RRB4le+syKlKdiV+LxIAovyeLqwEGNke3N26JxuSa1w0a4JEVnxarBKXE750jHL5uX6vQLoecFo/DndFQthxJ/Bm9CFvgt9HYgF4mbl6YGHrdR+X7xHNvNJaekLAxcCGqvQT9XcfOGEdujP6iM7IU/hkL19IJLUdg2Nn+HfPNhmAekvZCB4MAOV/KwLAsi+WHzz6mC7YTAcD775tSJS8HU2g0ccjWqicv1FreUT/4b0tBnjfKODyX+6qKT6jJJiVVcVwwHyad9jGdWYD8WDnkmSsTlVT0k6CgLVp2yMi0mETwa2Hc3onvUGswONIYgEvrKOpeMgYZAor/3Gks73nlpxB5y4GZnjsDCKZ3br0o5mL1R7r+JgD6Hc5VZVDTDFrkO8XmUKb8BtZPSOJIaKgvaiI3fedXhLwbt4ugE6ExZ5n2VcoFrTklWgrVYD73/Ef3xw3ymzBBcHEAn5egkG8YlQ6HhapmU5FWHlwTllv80Yg86cMBL9/3NhUguVSykDRRwzPmoqg7RFwF5OAB07tnPQyl5HRrKudVGNGQSfZ6HYdxT015cPhDwDFjIvD+6EndTp7pcdES3lMO2daCkYpntzAkEHu8EV6Kgj9HEaYUmVXJqnyRZlUfJFflYTN4tg6mOvoIjwIW4tDf0eQ8vlXJVl9Aj7y49bdxS75SDAoz2Yxa37scSDHR2tRFK8QdzSpzQkMH1+5sDA1ylChHXwDHXuOaU1B1l4pQN91WOXjR4qhCPHuCJDDD+w9Go91qn6N3YWdHKQ+qSTJX+m/s6jeiZQG9EiOXvOKDimlNSFu2UsXwV3YPpfgHBEAH3kQaROBnZ4EmbtZIMICvS6OgQMLybUaZ9L+19pMiUu0I35+P7H3HRKdlmkI199la9hctj6GHMYvF5NPglaOjnbdbqbQxZkUZoyu81cNQWlOPjeB2+Eb0u4PI+BK1j2W+jU1aCRLJ8adM6JQ/3gnx38KSIrFY/eaQEGjwvboUB3FBQpZfczRTidY4+81zgrhovNdPHxsSl42D4jxRj6dw2PbYJAiicUj7Aucq0j43xcADMTnklpGuDRiRl0ZlMyWfhqBfV4uwazlUGsTiIc4G2cnDNKSvPLMo8CYKbH4zoHsMRXNYFwziYpaTLAyH4fRn6XJOY9YzoW4WcPgNWyB6f5wwZJCp6l0sQLKfwbCEjtofHiBG7qGs/gD7NvswqNBgasWtZhYMiyPL3g0f09YiRhvLsXVAazmAJ72J1QMdE0HgZjnneYF5B5ZECmJmCSEyE8dzcHdHdMGjKoZ1UibXc/YIMs+fmFnR/Tc3aviEKz0UZ+xTfo50g4TOzoNVrpWSX545Vc3b2W7g8+gyOZKKvdzaX3FWNKcHQsqDNODDsdXDUq1kG8pgXfdJ+JbgcYuUmXQkuVo/I/C9xBDYXhd8y6vbw2HroLWo8dj8Wzt0DaTMpysJHYfDXw1lnBrG8NVBuXviDn2sQTGY3RuFeaZ/85zGEwRUpcNDpMK5VNDSXDN9mJEtXZKMcNkggeMxDKb6fd0qPukDPkfIYz1je4GJ2coU9nZJLE3kQWn9HmT08tgrs2/HIR5ZoMMbXXcukWbJbFyIqxvInWZxO6OGhz5ItROLbHNxA2baBhplksMOBzJTsk8MpHy+q0hQeY2LU5OGRHbjmM1DhjwpKLqWD0lCTDHgoklmSTokA9Qae//9Qwo40avHwcAc80AtOehLXrNo+11Atd/lclUpBrMffMxtVy7hheeGPx+ACN09zC1YQiZV00qGUSemUJvBwjvVu7hZhH9w8uofHIACySCEu/QfKvUuRSVcO9nKXTmnneQPeVF5unZj15nAPjwEDxtzA7V8w8uddW8jQF9oR2GIsF+RjecoYv1vEY6gh1xmORR/tRm4gtgaf5AyukPJRTr3vU8kT/cl2HkMalRMCxT7Ipjehz7bRDhwlOUcWpCy2n5xX8ln821m7R7OH7Mn1Hh6bgNMvuc6WgwMlO+AE+u7KrJ3UOiW3cCFw/CpQ4c5GXA+P4Qd9H6mSR6Av94AtI5Mcp56kQ/J7kdGfhlNe7U+28/DogT2WzPooSt1TkbXKdBSdwRIcqZZkMNADVEquwnf/obBYjjbieHh49AZPA+AcKZznmXqVujZDcz8oB6gKZbnncLmy0MNjwMip2V9GRrsQDvR8rTJp1SnRx0UJK7RT+rlKD49+oGvKNrxFDY51w0DvK+l+r1iAzLwfT04w3+Lh4TEQmHON7mUG3ZqFDPb1+P3pQIXn8Hp685EeHh61gj7XSIkT9JpWON3mMin/reqUSj4bKDE9XxaB+RgPD496YXRHaTte0IS+4zw432o6Ih2yJ4MofBL/79dBHI4yb/Pw8EgL7DeOVa3bc1kgt6rlYzEZ/cnDG+OWHB3YvMxjUGLEiP8Pe3BHzU8oDrgAAAAASUVORK5CYII=;" parent="kMgDOZqCUU3ec5CZU187-34" vertex="1">
          <mxGeometry x="10" y="6" width="16.97" height="15" as="geometry" />
        </mxCell>
        <mxCell id="kMgDOZqCUU3ec5CZU187-39" value="" style="group" parent="kMgDOZqCUU3ec5CZU187-3" vertex="1" connectable="0">
          <mxGeometry x="140" y="210" width="130" height="117" as="geometry" />
        </mxCell>
        <mxCell id="kMgDOZqCUU3ec5CZU187-40" value="" style="rounded=1;whiteSpace=wrap;html=1;" parent="kMgDOZqCUU3ec5CZU187-39" vertex="1">
          <mxGeometry width="130" height="60" as="geometry" />
        </mxCell>
        <mxCell id="kMgDOZqCUU3ec5CZU187-41" value="&lt;font style=&quot;font-size: 8px;&quot;&gt;48 cards&lt;/font&gt;" style="text;html=1;align=center;verticalAlign=middle;whiteSpace=wrap;rounded=0;" parent="kMgDOZqCUU3ec5CZU187-39" vertex="1">
          <mxGeometry x="85" y="33" width="40" height="20" as="geometry" />
        </mxCell>
        <mxCell id="kMgDOZqCUU3ec5CZU187-42" value="&lt;b&gt;Web-Eng.&lt;/b&gt;" style="text;html=1;align=center;verticalAlign=middle;whiteSpace=wrap;rounded=0;" parent="kMgDOZqCUU3ec5CZU187-39" vertex="1">
          <mxGeometry x="35" y="5" width="90" height="17" as="geometry" />
        </mxCell>
        <mxCell id="kMgDOZqCUU3ec5CZU187-43" value="" style="shape=image;verticalLabelPosition=bottom;labelBackgroundColor=default;verticalAlign=top;aspect=fixed;imageAspect=0;image=data:image/png,iVBORw0KGgoAAAANSUhEUgAAAOcAAADMCAYAAACIn7TVAAAAAXNSR0IArs4c6QAAAARnQU1BAACxjwv8YQUAAAAJcEhZcwAAFxEAABcRAcom8z8AACuASURBVHhe7X0JfF1VnX9lFkcdRR1XZnSGPzgzIiJaR0tJ3n3vpaUVKiBQGRBUtpEiiqwCRYoU2VGLAgXqMFIEmuae85KWsillE1qa5J77WgoUpELZyk4LpbS0+X+/553zEtJbmibv3XuSnO/n8yVJecvv/s5vO/sIj8GLUffNet/ojtJ2hUh8uxDLaQUlLgMnBR2tOzYtFf9kXubh4ZEWmmL5xWJcOq6gZCmnxFNwzC78rdkEBkq+BXbAUc/PdYZjR7Zf+XfmrR4eHvVAU1nslldyKpxx2dhya9cY0DolHdTSOilfg7/X5GN5Q06F320oz/2I+SgPD4+BYkpX1za5KPxWoMRNeSWeoEOSPZ3x3WidlNm0qOT9yLrHNHTO+rj5eA8Pj61FEMkPsy8Jh7wd5ekqmymTHLAvZDblZ+DnOmTfpcimp49eJHYwX+fh4bElwCn/LR+L78Ep7y6o0gZmPjLJ4fpDW/LqUljJFfi3s4rl1l18v9TDYzPIdYjdgig8qxCLznc4UIKD1YL8bJLZGFn0+SZVuhpBYZ+JS5r/3ojk4TG8gUyZh1P+mllsoKVrf0kn3QPfq0d5YxkWVenoYEnzp4yIHh7DBzshOzUpMQF9v9uKSj5Lh6xl6dpf2kxajOX6IBZLAiVO9fOlHsMChY6Wf4XhHwmHvAsl5OuuOGVvVstdJTfAQR9mZsfPBt8v9Rhy4IALDPx4lIuP0fDr3Z+sFa2sJJxzLVcgFWPxDT9f6jGowfnJoLNlDPqSv0UG+ourWbKvtNm0EIv1yPpt6Ct/f9SSWR81j+vh4T6C5df8QxCHB8CIW2DUz3OgZTA7ZW/SSfXKIyU2croHPAHP+y/m8T083MOY9uZtYbwHV+YnxarBnim3RJtJ2S8FHwIvzHWIz/upGA8nMLGr+W8KZTkSznhqoKRiyWf7aEkGPRRp+6X8ib+fAWcWIrGHH+X1yAQctSzEpVxjJC7lQIl1SGOgw5J89l6OenOx3DqRW9qM2jw86ocJ7W3vDyJxFDLlbGTKF1nWDWeH3BypE6ubJlW6GwHstMZF4aeNGj08agdkgE8WlPwReGc+lm9zQGQ4la79JZ3T6iofi07o7txiZ2kno1YPj/5j9/bmzyLqsz/5GFfN+EzZP/bMpNDnc3klrg4iuStHto2qPTz6hsY4/EpTLH+OaL9cl2agd8qB0+qSDGL5KroH18BZJ4xV4SeM6j08EtDV9Z7GuCWHPuXFjO420nunrA+pV+qYv+eVvK1QLh02pnPO50xreHiYkVclD0WWFPjpzCL04ULrpDqrqpLCv13i+6XDHDyqAxnyaDjlHTCINX6QJ1taJ2UboE0eR9tML6iwOLK97f2myTyGMsYvm/feXCy/WIjFxciSPAVgne0D9TYWz+zI9qCzFlVpNRx1fj4K9/LnHg1R6PWuKhxf4Cihki9ah6QBJBmHZ/bUzmnaKa/ERmTSu9B+k3iMi2lWj8GMiUvm/2MQiYmIwNdzl7/t2yQZg6e7ZJux7ch8LBei6jmpELV+wTSzx2ACS6BiLH+io63pT3qnHBqsjg0o+VAQhTPQTWk0ze7hKjjqymsI0EeZDHI1il/JM0RpMynbNojlSgRhgX87YC+/CdwtjFW3foAnoRdiMR18gQ3n+5PDh2zrSnvL9Wj/Tm4CH7Ok7bPGPDyyQKNq3b6gxOF5Ja9HibPaOqR3yuHJnkE50PfEyJ/5kjdlNC6Wn4FDngjHXMTSxvcnPXuTTsoTKNC1Wam39UUyb8zHox5o6Jy1E5R9RUGVymwAOmbvRvH07Ek6Ke0EwfsZ9Etbc3G4NzfIG5PyGAg4P4nI97V8jOgXi6d6KDuxMTw9k2jtht0f9EtvQYD/rt9f2k/wVLdc1FIoKvm/cMo3qFzSO6XnQGjtiL/z0Gx2j3hsKTc9GNPz2BzYnwwicSyUN4dO6bOkZz1Im7KOmlfiSfx9eaEs9/ROmoBcZ8vn0B84PYjlQirMD/J4pkXaW2XwSLwG+5vFkndke/O2xjSHJ/Qi9M6WPakQlBd/oaJ8pvTMinRS3S+N5RpwMfqmJw+7xfZjOkrbFZTYL1DiJlu6eqf0dIW0Q9ojEoY+j7cYy58G5Zb/HNKjvFw0AIecxFUcVAAjlXdIT1dpbbSSTcUrQSSmceZgSPVLzfzk6UUlF3mn9ByMpL3qbBqLp8FrkVH3D+bP/1tj4oMMXVO2aeyUo3MqvLCg5NIe9byn56Al7ZiDlWa+tAVOesSgOdl+/LJ5Hyqq0n/nlLgXD/O8jTg+U3oOJdpkk1diLY9N1feXutovpWA8PQ0R5c4glm9TeF++eg510r6tnXO+FP92ydjFrbuPum/W+4xrZAde4oPUPhUO+VfvkJ7DlbR5spJN5VtBLH7PacLRD5U+aFwlPRTi0t4FJa5B3f04BaJTJgnt6TncWHXSynzpzfk4/CGvhzSuUx9w0QBPQUP6lhxaZseYQvQWztPTs+Kk9BFk0g25KFyAnyfW/JJhrpLABx+Yj8UdRSVX2fI1SSBPT893skcmfRtJbTkqzgsCFe7MZGdcbOvBi2bwgafgAxfwS7xTenr2n3RS60OoPl+GX80IOlvG8Owr43JbBjMlPPukoiqtYFrmh/GDk77Q09Nz62lL3kBPxYjpeVX6unG/zSPXGY7Fi+/yWdLTs/60JS9nO9BtnLzZUrcQiW8XlHyWHu0zpadneqSD0udQ7v5qk4UMxVg2ct2gH3319MyGtlrlYejGLc1hzErc5B3T0zNbmhL3kSYl/l07ZyEu5QpKbEx6saenZ7qkg7L/qZ0Tv1zkB388Pd0gfZHZM2hv+9gIdEL1ObCenp5ukINDxXLr2BFBJDYkvcDT0zMbVkZuwx+jz5n8Ak9Pz2xI5wyUOHoE/vNE0gs8PT3Tp11jkOsQu3FA6Fr7D56entmSA0J5JZ8NljR/is65j3dOT083WNlmJmbrpXx7P1T6IP7xXv5j7xd6enqmRybJoiq9VYjFQXqekyiWWycina7x852entmQjql3qkTiRh6UZ1yzctVeLhJnc9e2d1BPz3RJx+TKIJ5aOVa1bm/cshv6GJJYTAZf4wt9P9TTs/5kMjTl7E28FcG4YzKalJjA0w/4Jt8P9fSsD+lfZh3tUwUlfrFXee5HjAu+O3ZT4SfwAWfBoyN+iC91PT1rR5P0XgNn6vtX+oPCYrED+qFT87F8xpe6np79J33HlrAFJUv6st5aIKdmf5mpF066kk7qM6mnZ9/Y0ymLSt7FE0eCSH7YuFaN0NX1nsLi8Etw0ssCJV/0TurpuXnSGekj+H1doMKFTeXSd0YtmfVR4031AzdooyMreI4t62edqhME9PQcjuzuAooIyWwSF/oY10kPXLzAE+B5eZGJEp6ew5asJHU1qcQi+MWZen1sltDzo0oeCIH+2LO+ThLe03Mo0paw8IO/BFF4/BbnK9MGp1+CSBwVxGKJjSDeST2HMq2dI0u+DFu/iFdhGndwEyh1P4la+4wAUcRGlKQH8/QcrOx2Svkid5AESjTwNnfjAu5jzJK2zxZVaQpTPR2UD5P0oJ6eg4l6AYGSbwaxnJWPZZMx98GJoGP2V/FQ0xhlukexkh/c09NVMrnQdmHH88ADnbxivr/IRy27oz86gwvr7YMmKcHT0xXSRm0Jy7GUxij8QSpzlVmAW9OaVImrja4GV/ly19NFWqcsKrkxp4QK4vDIml986yqmdHVtw7sJdYngt6h5OkRri7kofDhQ4tT/Wij+yZjtMEPXlG0QkQ6AIv7ISEXFJCnM07PetPZXVKXHgij8eaGj5V+NlQ5vsI5HFj0CvK1aUoBJSvT0rCVpZ3RK7rxCV+uCxjj8ijFLj54Yy32kSv4Ipe7j3kk960lrX0gIq8GrCmU50pihx7uhcbH8DJz0Z3klnqACySQFe3puLWlLpnxdjWx5w5i4ddROS5r/3pieR18RqHBndMqno9x4kpO/3kk9+0tmStoQqrLXYU+3I1vub8zMYyAoLJajodBr/BY1z/7QjsCiGqNTHnjAk7PeZ0zLoybgZu9I7EEnLcRifVXhCY3h6Wn7lKbauhd2c3jT0uE6LZISuJAhiMRERMD70Gd4m8r3TuppaZ2SP7n5AtnypMz3VdYLo+6b9b7RD5U+SOr7GxzBmPbmbRkN0QAdbAifST27M6VYjuA9lZsvjLk4gbHq1g9w2pC+1O9dLBPa296fL4sAmen0Yix/DyeYza0xeOgZ+H1SEMldzUszR+Oi8NOBCjmyG3c3TnLjeQ5Nss3NYM9TjZG4tKFz1k7GPDIHS2kEinHwm/ORxa+DT91MXwJ/mVPhd4OO1h3NS7cA9uticRAcMgzMsrqepAL4E695HB9+ZWOnHG3emTn4kHRS3jdKGX0WHfq0FRN+XwN7vFrvq3QEzNpwxFMg4y1wytXWdxhIrC+ZLN/JZYIj2//wMfPWTcG+HLz7AnzYmi2NiNpIhdc/yfeMXyx2MB+TOXiMp95HGstnKCfpHXVoke2pDVuJjfj7Bg4UurKF62sLZn4IznY07O8B64TvZn98DRkgIXJ+33xMD6D+Zdq1xpz0IUmsvh5Oisg1ZXRHaTvziZkj1yE+j4j1Wyhp5dY+l6eb7HZKvdn5T0Ulv8l+nGnyTEE5kAWP4i4WlLFv0eH6mhT4Ojox3jeP3TTzkRWgHByPF/XrCsCqwvA7V/LDSU/gSfHmo7MFynQuZMBDXwW+1F1KJD+Lp7uksRdUaQNv4sp1thzMgUrTypmCB0QjU05Af7fNnkLZV6fsSeug+P2Ske1X/p3+cJYDyC5z9MMnvKmv5IeT/BwI+mA+kj9Ax/zj+kscQD4K9+Ldh3jWVwf6rJ7pkcGURLstRPsdy1F606SZQx8goESrlbM/TtmTOnGo0ktw+HzlC2KxD7LKhqQX95fd2UnMR8l7uDNHOiCTNtJJY3krFVkLhXrWhzbQ4/dlhbh0vEtbuBrjlhwqxGsgW83vEKqUt+KaHZdNey+d89puZ6odKbCpo99iyufVgiOa3XBSc4znIei73O+d1C2yLbQ9KrkCbTLZpeMmOWCDfu5U2PPTdMp6+U2ALpg+eQG/PJb0olqxavyqtBolQDOvcnBlFwAnhCHX0TwfhiN/tY6Cnn2ndUpUNSvRFpfBTv7DNFPmoKMUY/lTVILLrT0nPUOtyO9gN2xEWsZoHwpR5zX0H67glId59szBfaQIHKdBzsXWSHrL71kfUtemlHuOA3fFuM2Zzc50yiAKf8IRWMqaVvCufEfp+BFJ/7Oe5BfrUSmULXDS05vKLf/P6CJzUBaUu7/gURWUMa3ANRxp7QDB+nX8fQNswZkzYLlCrshuTyzvteVrmrbA7+Ksxwj8p5z0gnqzO0OJKBeJyUF72+ZXSKQMXnWIKP4b6EafEOidtHakLm1lAh3P4zREdeogY+iD52JxEOS6jWMlbPve8tebVj9NqnX8CE7UZ2V8/F5r/FzAXijL/+EKC6OrTBHMn/+3KGtGccAMTrrWO+nAaI0OGfJtOOSfeYmsK2fAckOHvdaSmTzLqkn7AvrdekCosbJHcmOWhmcbDp3u9bkobC9GpW+5Mp/FqJ4vh9/JqfBOyLnFpY2em9IGNhh+xPlvvSvDBTQ3/02Dmv1145Rv6IyVcdtWSn15BbM4jK/t/RCsjf+Y9OI0aZ2Uv1NhQST31fM9DoCZFDJ9D1n0bsrnnXTLZFtqx1TyYejOqa4LFxCgavx1oEJnbiDQZbQSL79jQ0lelb4O4fSEatKb0iYVVZFFrEcJ9Af2S4yomYNbgALVcijknEtZXWlYl9jdfnIZ+m5Tc7H8olFf5iiWW3dBgP0VbOsFlwIs7aiSmMQZm+z1rGQFty4bso0MuV7KRWJ2dVmTA9Bn7UJnUGYn5fRO2m1g6AK8iAxwQSFq/YJRV+bYvTP8EsrFyyHnMtpUxRGSnyNtWtthObvZkr/S/5TtVslJH5QFKQsVigyq58IaeMZoV9d7jNiZgveRQqYjOOpsg8lwc1LbPtDBKzQwjna70j48ogQynQJqp6zImfwcadPaSxDLV4NInLzFxfzcJIqodzXe+IprhmaDBjeCI4ick+ts+ZwRO3PsgUyK/ss53JnTbazJzzFUaI2LFRcMbBb7cUYdmaN6jE0sHqScbBMXbRkBbcFWd9tQsu2D2vx22wBJX5AV7YNBxgcRcc7o+1EP9cfoRWIHROnzCqo0ZM/atTaBn+vQBgJBck/z+JnDHgDXpEqSsxDUv2tOWQlo4gneycLKy4i+dRjfOe/jQRweich4n31I1x60Msqsj3o4mnvrjOiZg4NsMNxLWbK4ZiD9JZ+Bz0Kjx99zOVfp0hmwHJOAjLNgD+tdG02v6g6lP/R3WTESXzNiDwzFaM4/51X4Y9btvLPQNWOrRHG5Ho6wUO8jLc/9iBE9W3RN2UYP2ceihQYzWJ3UGhaC9AYY1iLu6GEZb54yc/DQcch0I7LRcyajJz5HFqTeKk4p14Azcx1it7psoeQRCkjDx0IJZX6hS+UuG8TIsw5Z9I5GJfd3ZbKbc8mFuLQ3rzpEX/lN1wzo3ViVVcl2BMDvOzNXicDHKRoEjAuRNFZSTuMETtD6B3T3Ciqoa2GTDSy5jfT1w7il4ad1v8rs4jBO4QRpSJQJ8uFv0cL+kCvn7fKcGZRe34dcC3oEEydJHZKBkgrGNdmlTMnzoQIVXmC7DGTSM2RB266wv1et/Rmx0wVHS1HmcBfHChdrfKOkNYj61xVj8Q0jdubgFjXIdQrkWkoZXTOuSj++tBKZ8rxxkfw3I3bm0PYWy7OQLZe66pT8iWDWBu5jxM4WQcfsr6LmvxiR4gUqzDUn3YPGpsTLcIgr9BypI+Dhx8ZJH8ra2Kgn/f1KrAKvZt/IiJk5OC0CPR3D7hQdgEx6hixY1Rt+Rya/lYNkLp1zVAFPuoOTQsiZiBpv2CjS80GypDV+yPY0eOnu7c3OHNXfqFq3h/Gdy0UWVs6kZ6gH2Uba2NEXhl4ET/p3qRuQj8Mfcq4Ssq5z0ilVaUMRwbVQLh3myi6bzUIvEI/CvVB63IZIt9a1crfqpEr+BfJNcek4DA5wBFE4A+XkCzTEejop24Rtg6DwNv6+p1iW+7pyfIxe1aPk/shEf8LPDa4Fets2XHCCavFkjsEY0QcHzAnyh8PQ/gQl6/M8kx40C7Khq5EvFsubUDK5dLobTzBHFr0OhlmXtc62LRDx7+Lou1Oj2igLETDvse3jklNSHm0zKK/RNlMDh/rj/YI+np4jlEreX324hAfPilYmZJCFUPq731mRMnKd4VgEtpAGWgsntc+Kz4kao/CHrtxXyWoL9nEoWApMpkySPyt261++gIB2oUvVVk3APh6ywSR26vmwxkgSlZEFqXzKxE3VKC0PYxQ3omeKke3N2yK47Qvd3UQ5t1ZvVtckgs+jgQpPcuZEfqBQliNhE7y1/E1XV/UgS/L6h99x1ZcRe2hCHzOoSmfSUOzDJykmC1p5aChokPvB/V059p8VSI4LuSMRQ9Y1fcmk1imRjV5EVvq1S4epjVVzdoZM10HO562cveXPitQr9ZuvHD52MwLaeJfupq079EIGJeikzi0Qt40TxOINNNC1XB5mxM4c7B+yBGSGh6zrqDuS8lravzkyjYx7Jcrj/zJvzxwNCBBo9xMge3Vf5ZaCTJqk7mCTGyHj3VxA78pB6JmApQJLBijEuZPuuiOofBW/n40IurMRO3Ow7GYmRZa/ioZUiEUnGIELoEsJmc/LxbLRvDxzcL0z5JqEqklZp0zSeVasBgpV+jOc8lhXDppzAighx8GwWvBzg2vRlPJUGk4+BLkucm1AQN/u3dG6I1fQsG/vUgmmb3aO5TGcFrHBLknHWZDyWJl4VjEzuj71zmNTwKg+RCdFOdZWjKXexUEmKTYL2uiKPpyeIx1081spgnOmMPQDmNU5l8py0ZWASzl0sK205WMcJHNpT7DTYMnWpOT+6FvdyU65jmwONiz+XoxgcoTzK0NSxEQ4JVcZQTc3Q0f6zldX2o6kPJUAK54AL3BpfntQgeUZSt2D4KDz2cCulURsZPP7rbkodOas3awAY29Ae03n+IGLTsnsDVt6CvJdMKZzjjNH3PQL+jyhxXI0S82gs2XM2EjumkV/hoMJZh/p3T2dwgXaoMGfORWWYKATXDncKi1Urq8Qv4RjOnfulG0f2PBL4FXoLmUySMbjSPTac/gTz6VtUqUvb/XKLPYVmuLW7yHCCCi7E1HmSc6Tod/wPH5/FD+53vE3TUr8u3lLahjdUdoOyj4OhlCdI3XFEKwR4Cc31wqXDruqF7h8Dc8+DXTuuElrH7CVjYW4dCNLbSN2amAiQzD4PvzlevjNQtjF4+iqrYBM9KnH4KB305e48cG8ZfPgKCSPe8CD6WsHrMJ70v47HHc5vuicLCa2d0M/AQ81NYjlSitXUgNlQcpC/VA26PFyroBx5aKeWoEVFezkDA6M8Vkr9pCsj7RJp9TyKLk2F4lbckp+M1jS/I9G9FSgt7gpeSCqqLvsyifS2qql9SU4bZSLw73N2zdFMSoV8EB68y8fMOnBLfn/+eH6dZWr/E7JomPNQ4uLqnQZZKrbTcP9pW2AIBavI1Je7dIcaX/BNkZQhlOKJ95hAwnPnwW1oSv5Fmzyfl7hl8qxID3AMpULF/T3m9mGvvoSqtKX8d6jNukSsTxBFFT05KQP2Bz5wSSVggaLOSSdRSZtKovd4ACzoRRn12eaIHYu+h67GLEHDbR9ROJY2ogN3i7pmPo1Om7naZFpD8zpfafIlHCw2WjjfgUtk1xegX1MNB87YgRPAsP/nLa1jtmbFIhfoBWkxNFpK4hRkreTIbK3oKTUW9RcMyAdxGL5CAz9ZJaGRnRnoc+ARVvC4B4wxpP4bFmR7Wt0+lc4xml96rvVGLmopcCrQijLQBMD3w8nX1qtQnlUBk9Qr5UhU1lozLfhJAvwRUekvYFXLxDXewKls3sCjTycI70Q+v+4Ed0ZMGBzm59dv8s27fkMWZM6JOGUryIZ/DanZn/ZiJ4aOJaAwHUdvv9Z6qfG/vPTypcg4tQ6IlJQHdGUWIu/5/JkhLR3d3D6BRnqEJS7i6w8veXMilYe/mRWyqIUSwIDKUc10Y//A4zOuSM8aaeVdhSvwLaupFOmPdhm+t0n52OxnJmu1r7D50PQvk9Ps+SUuLdeDcDPpfAwQB7bf62eXuh9vVmdwSMvYGxn4vsf5IPXWpkDodVP5W9xC+eSs1oXy8E1yDCdTkmZXHJKyqJLPn1HjpDchG7ETg278cREJU/kCDX1Uy874rNyEFGv38Y/rOv9glqTX0jHQLR7DpzeGLfkzDOnBq6dhPFdjAZ+eqB9g1rT6geGtwrO8X+BCsfzdAAjel1RWUAgp9ppERf1UnEEcQv0s1/aCzy4lLQxCr8DWW6lPPVyyp7k97BbMSLNxuCDGcd4Boo+P4uRXZSQo/jddFIXjZH6gSG+gn7zDcW47StG7JpjTEdpOwSBn3GAqtsBkuVKm9RDD3luRsA6NIsrNoqcI1VCIHhtqLTLprLWg9om0d1En1OuTnpBPWmdAv3BR/H3zxsXy88YfaSGcSjjYAAz8P16cbZLxlmVR8kV+HtaLVdjccCMAw6Vk+MqbdHzu7OkdUoOKCJoLIRTHJj2OUesWFjZQfclyJPJckR+n55S4YBE0gvqTdsQ/AknLUOOY9IeueRgwhjV1oAoNRv90tWMjk46qV72JU7lfKMRfauhr8uvTJDfic/a6FLVQDls9kZ53VGM5A9SHyBDucybv4qx/B1Hga08SfLWk5U2Eet1n7NJtZ6WZfTs6aQ0HBjgvpzUNSpLBXqutzL9MoeDDq4ZbtVJ9drm8IdcvmhE3yI4So7MOwFZ6LZ36Drhu7KgfTbIFEH3Z/NGOyN6auDCEI5HsIrMWj8VXxQL9uZoLSdug1g8pRs/4cVpUgvGw7ViIbhRN+3OP0sa9jMgy1w2kEtOSnYbjlgAHR03YQsnBHJdKasCVCZrXXsWq19WBez7js1gAYF1Sp6C4IJ+9PfrE+RLRxsRucpBTK4oKvlNaZIC6kEjlJn4e2YWuwm4eTpQLYfi+++hTFlH0960hoSuwM2cQ+49PYXqY1cY3QwEmpfNAFzi52RB6pLyI5O/iMBxPkeLjdipgbubELCmQJ5lLnVlKEugxB3vKOm/Xr7+k/ifc11qSCqMZCMis/8e0XXntKYXLBBZP4k+yE8gzzKO2LnkpJSDRs7+EWSbB2c8qHINhrgGfz9r9Zf03ixo5ckp8Spk/p0eiU65MuKYBvTE3TSPWf0lyZoFdcBVpRWc6zbidoMHQ3GEii9ysVGh0Jeg0EubOttSP+ZRH6AViZNzUajLH5cataqfypLJ9TQ6l9qP8lQqIck53Ou4SSH1hShx+C/I0oeD+tJnknIlyZs2rX7Qdssh335G5E3BC1IRdae6OgdImSDfS8ii5/DSHyN2ati9M/wSZJkG/TzlUpVBUhaX5CF1e3FaRImbOFKctlOaLVyHQIaFrjklaYL8Oth0M+ffjdjvDi6zgyffyA9w7YEoj34oXrvGhQwZnMigj25hf9jBgRYXaB0BOnqgoErf3erjOAYIHjLGFTbsk0Me5xbu01603Sj5MOXc6u4ad4/nOlsO5mQwP8zFqEOiP/ogAsnJaa8g4RRFQYVFHcQcXCSeNq2NaDuB0cExjkn9DlT0YRk4YbOzIINze3utfpBUXkZg/+XoeNbAzj/m5DWM7yQ4wRIo3Kl9kpSD8qAs2AAn6eR5LVk4qZ5H5MjuMHVSPrMxuifRBudlsVd1TLn0VXQ3roUdvFJ1ggRZs6CVJ6icxXWD7nfX8poHGj28/QR8+OJqYyQIkgXf4aRK3M79nGkfUbHjsmnvZYkCee6hbiqd/GR5hwp7POfTsI1fZXESPucq8d1TEBj1vkrX7NLo5zVm87pfj8Ej/3MqvBDKWOHioAgbiCOXgRLXZbL7pb3tY3kV/hj6uZOG4pKx1IrW6OAUz6F8vCqLuWi9cD8Kj4csel+lS3ZI0g75E5XE3Fzau2l4cxWy6BXce0YDdNFJOeqMbHoVzws1YqcG7iNFFp+EMiuyTuqaAW0tKT+fA065Cs81PdeB8ixljFXhJ/DdJ8PoF1Aml4Kf1Q9/ImjpQ8Yy20TPheONcfgVljSch7RGmCR4FqSDWicNIjGtIYORXc6xIYtPQpBY2rPxkuR1lZS5UpGI1xGQZzZELbunffwM91XS2OGYC6g/l7JltV2V3IiK6f5CuXQY58aN6NliSlfXNlzRDyedDQFfZkO6ZIDWIWBc7BudSYcxoqcGNhYy6QUwrscpD5kkq0u0Rofg9hr+noMAMy7tvjw3QcCmvllUpTvx/W/Ztuwta1a0ts7gi8B1Shb7TvsMLiFDjT0XhrjRxeimnUKJRcikx2YR3XgiA4z9IjTkShf7SpY0Ou2YStwOw9vfiJ8aWJUVY/ENZKLrOIbgmlNSnkpVJh9hwN9zydxPGdHdBksQrsyAYksod528b1NHPCXvQiY7KotbwjhHCjlmwvBXu1Rp2LaC0S3kuuIsTgdEN6CBTslM6VoAo35I7ZSxODuLhfs1ATvDjLpQ9p+pYNvwSQ+dBdnwkG8D+wkodY9Mux/Fw7wCFY5nd4DyZKUf2zYkqopHIc8JwQA2dvcXhbiU4yg72mOFSwGLpG5MplwZROFZxc7STkbswQ1OL3CPGh5yMRXukuKtPDCItTDM2xEN90n7ynGuxiqW5b6Q4U5kq/Vp6sc6JfvjXLNcWCx2MGKlAgbE3aPZX4DRX85J+mqQSJA1C1qnRCX4EuzjsizWdKeCUdGsf9YDMko8XHWKBIVkQcrDhoCRvI1G+CMy6ri0j6ncqzz3I5DjOASIznrrxxqdyQQzuAfUiJEaOGcOW5gOGV511SkRLF9A0OTVjg1G7KENnroH458KJeir49LKEn2hdVJkkjfgpNcUy62pn5HKfaQo8Y6HQcTUTy2Ntur0Sr7JVStN5dKm+wfrDGZntP+JCNTVLVxJsmbFqn4icSO7HWnvpnEC7EwzckIhzl1PTlnMYMQrMKJfZrGQgQujYSBncPploEGM77VOgMzcBr1PyGJaJF8Ov4PytYO61U7QS86saPVDQj/zUUnsyyWZRvThCT1kXrl+sAQj7NO1aWmS8tCI4KBPwFEuzmKLGqL3zij9qquxyCRZk2iNjhPkyJQL8W8HZ7E5AOXhkciW98Hw3xhooKklezolgyAHw3gyiBHdg9CTzbwlrNLfc2oIvWrgIIyLO9Z/kfaB2AxiXC4HA7rRLvR4NyelrFUdmqNH0z4DlgNrjZHYQwdeVXprSzKnTSsP7O0hyHhSFucnDypwY24+kj+A8u6BUenzVXsrNStaJ9UNGstHCmX5P+wfGtFTA4xpHBy0GYFCn5poS0SSv5PsM0NGZsqzuM7XvDU1cDE82k9Sb5RRB4le+syKlKdiV+LxIAovyeLqwEGNke3N26JxuSa1w0a4JEVnxarBKXE750jHL5uX6vQLoecFo/DndFQthxJ/Bm9CFvgt9HYgF4mbl6YGHrdR+X7xHNvNJaekLAxcCGqvQT9XcfOGEdujP6iM7IU/hkL19IJLUdg2Nn+HfPNhmAekvZCB4MAOV/KwLAsi+WHzz6mC7YTAcD775tSJS8HU2g0ccjWqicv1FreUT/4b0tBnjfKODyX+6qKT6jJJiVVcVwwHyad9jGdWYD8WDnkmSsTlVT0k6CgLVp2yMi0mETwa2Hc3onvUGswONIYgEvrKOpeMgYZAor/3Gks73nlpxB5y4GZnjsDCKZ3br0o5mL1R7r+JgD6Hc5VZVDTDFrkO8XmUKb8BtZPSOJIaKgvaiI3fedXhLwbt4ugE6ExZ5n2VcoFrTklWgrVYD73/Ef3xw3ymzBBcHEAn5egkG8YlQ6HhapmU5FWHlwTllv80Yg86cMBL9/3NhUguVSykDRRwzPmoqg7RFwF5OAB07tnPQyl5HRrKudVGNGQSfZ6HYdxT015cPhDwDFjIvD+6EndTp7pcdES3lMO2daCkYpntzAkEHu8EV6Kgj9HEaYUmVXJqnyRZlUfJFflYTN4tg6mOvoIjwIW4tDf0eQ8vlXJVl9Aj7y49bdxS75SDAoz2Yxa37scSDHR2tRFK8QdzSpzQkMH1+5sDA1ylChHXwDHXuOaU1B1l4pQN91WOXjR4qhCPHuCJDDD+w9Go91qn6N3YWdHKQ+qSTJX+m/s6jeiZQG9EiOXvOKDimlNSFu2UsXwV3YPpfgHBEAH3kQaROBnZ4EmbtZIMICvS6OgQMLybUaZ9L+19pMiUu0I35+P7H3HRKdlmkI199la9hctj6GHMYvF5NPglaOjnbdbqbQxZkUZoyu81cNQWlOPjeB2+Eb0u4PI+BK1j2W+jU1aCRLJ8adM6JQ/3gnx38KSIrFY/eaQEGjwvboUB3FBQpZfczRTidY4+81zgrhovNdPHxsSl42D4jxRj6dw2PbYJAiicUj7Aucq0j43xcADMTnklpGuDRiRl0ZlMyWfhqBfV4uwazlUGsTiIc4G2cnDNKSvPLMo8CYKbH4zoHsMRXNYFwziYpaTLAyH4fRn6XJOY9YzoW4WcPgNWyB6f5wwZJCp6l0sQLKfwbCEjtofHiBG7qGs/gD7NvswqNBgasWtZhYMiyPL3g0f09YiRhvLsXVAazmAJ72J1QMdE0HgZjnneYF5B5ZECmJmCSEyE8dzcHdHdMGjKoZ1UibXc/YIMs+fmFnR/Tc3aviEKz0UZ+xTfo50g4TOzoNVrpWSX545Vc3b2W7g8+gyOZKKvdzaX3FWNKcHQsqDNODDsdXDUq1kG8pgXfdJ+JbgcYuUmXQkuVo/I/C9xBDYXhd8y6vbw2HroLWo8dj8Wzt0DaTMpysJHYfDXw1lnBrG8NVBuXviDn2sQTGY3RuFeaZ/85zGEwRUpcNDpMK5VNDSXDN9mJEtXZKMcNkggeMxDKb6fd0qPukDPkfIYz1je4GJ2coU9nZJLE3kQWn9HmT08tgrs2/HIR5ZoMMbXXcukWbJbFyIqxvInWZxO6OGhz5ItROLbHNxA2baBhplksMOBzJTsk8MpHy+q0hQeY2LU5OGRHbjmM1DhjwpKLqWD0lCTDHgoklmSTokA9Qae//9Qwo40avHwcAc80AtOehLXrNo+11Atd/lclUpBrMffMxtVy7hheeGPx+ACN09zC1YQiZV00qGUSemUJvBwjvVu7hZhH9w8uofHIACySCEu/QfKvUuRSVcO9nKXTmnneQPeVF5unZj15nAPjwEDxtzA7V8w8uddW8jQF9oR2GIsF+RjecoYv1vEY6gh1xmORR/tRm4gtgaf5AyukPJRTr3vU8kT/cl2HkMalRMCxT7Ipjehz7bRDhwlOUcWpCy2n5xX8ln821m7R7OH7Mn1Hh6bgNMvuc6WgwMlO+AE+u7KrJ3UOiW3cCFw/CpQ4c5GXA+P4Qd9H6mSR6Av94AtI5Mcp56kQ/J7kdGfhlNe7U+28/DogT2WzPooSt1TkbXKdBSdwRIcqZZkMNADVEquwnf/obBYjjbieHh49AZPA+AcKZznmXqVujZDcz8oB6gKZbnncLmy0MNjwMip2V9GRrsQDvR8rTJp1SnRx0UJK7RT+rlKD49+oGvKNrxFDY51w0DvK+l+r1iAzLwfT04w3+Lh4TEQmHON7mUG3ZqFDPb1+P3pQIXn8Hp685EeHh61gj7XSIkT9JpWON3mMin/reqUSj4bKDE9XxaB+RgPD496YXRHaTte0IS+4zw432o6Ih2yJ4MofBL/79dBHI4yb/Pw8EgL7DeOVa3bc1kgt6rlYzEZ/cnDG+OWHB3YvMxjUGLEiP8Pe3BHzU8oDrgAAAAASUVORK5CYII=;" parent="kMgDOZqCUU3ec5CZU187-39" vertex="1">
          <mxGeometry x="10" y="6" width="16.97" height="15" as="geometry" />
        </mxCell>
        <mxCell id="kMgDOZqCUU3ec5CZU187-44" value="+" style="rounded=0;whiteSpace=wrap;html=1;strokeColor=#20EFC0;fontStyle=1;fontSize=17;" parent="kMgDOZqCUU3ec5CZU187-3" vertex="1">
          <mxGeometry y="281" width="130" height="60" as="geometry" />
        </mxCell>
        <mxCell id="kMgDOZqCUU3ec5CZU187-51" value="" style="image;html=1;image=img/lib/clip_art/general/Mouse_Pointer_128x128.png" parent="kMgDOZqCUU3ec5CZU187-3" vertex="1">
          <mxGeometry x="20" y="320" width="27" height="40" as="geometry" />
        </mxCell>
        <mxCell id="kMgDOZqCUU3ec5CZU187-97" value="&lt;font style=&quot;font-size: 18px;&quot;&gt;&lt;b&gt;1.&lt;/b&gt;&lt;/font&gt;" style="ellipse;whiteSpace=wrap;html=1;aspect=fixed;" parent="1" vertex="1">
          <mxGeometry x="90" y="-310" width="40" height="40" as="geometry" />
        </mxCell>
        <mxCell id="kMgDOZqCUU3ec5CZU187-98" value="&lt;font style=&quot;font-size: 18px;&quot;&gt;&lt;b&gt;2.&lt;/b&gt;&lt;/font&gt;" style="ellipse;whiteSpace=wrap;html=1;aspect=fixed;" parent="1" vertex="1">
          <mxGeometry x="589.5" y="-310" width="40" height="40" as="geometry" />
        </mxCell>
        <mxCell id="kMgDOZqCUU3ec5CZU187-354" value="" style="shape=flexArrow;endArrow=classic;html=1;rounded=0;strokeColor=none;fillColor=#20EFC0;" parent="1" edge="1">
          <mxGeometry width="50" height="50" relative="1" as="geometry">
            <mxPoint x="470" y="-130" as="sourcePoint" />
            <mxPoint x="660" y="-40" as="targetPoint" />
          </mxGeometry>
        </mxCell>
        <mxCell id="DKMUyEjhH1U7fZ-NHW1T-10" value="&lt;b&gt;Summenregel&lt;br&gt;&lt;/b&gt;" style="text;html=1;align=center;verticalAlign=middle;whiteSpace=wrap;rounded=1;fillColor=#2E2E2E;fontColor=#ffffff;strokeColor=none;fillStyle=solid;glass=0;shadow=0;" parent="1" vertex="1">
          <mxGeometry x="700" y="-43" width="270" height="37" as="geometry" />
        </mxCell>
        <mxCell id="DKMUyEjhH1U7fZ-NHW1T-14" value="&lt;b&gt;Produktregel&lt;/b&gt;" style="text;html=1;align=center;verticalAlign=middle;whiteSpace=wrap;rounded=1;fillColor=#2E2E2E;fontColor=#ffffff;strokeColor=none;fillStyle=solid;glass=0;shadow=0;" parent="1" vertex="1">
          <mxGeometry x="700" y="-2" width="270" height="37" as="geometry" />
        </mxCell>
        <mxCell id="DKMUyEjhH1U7fZ-NHW1T-16" value="&lt;b&gt;Quotientenregel&lt;/b&gt;" style="text;html=1;align=center;verticalAlign=middle;whiteSpace=wrap;rounded=1;fillColor=#2E2E2E;fontColor=#ffffff;strokeColor=none;fillStyle=solid;glass=0;shadow=0;" parent="1" vertex="1">
          <mxGeometry x="700" y="39" width="270" height="35" as="geometry" />
        </mxCell>
        <mxCell id="DKMUyEjhH1U7fZ-NHW1T-18" value="&lt;b&gt;Kettenregel&lt;/b&gt;" style="text;html=1;align=center;verticalAlign=middle;whiteSpace=wrap;rounded=1;fillColor=#2E2E2E;fontColor=#ffffff;strokeColor=none;fillStyle=solid;glass=0;shadow=0;" parent="1" vertex="1">
          <mxGeometry x="700" y="80" width="270" height="32" as="geometry" />
        </mxCell>
        <mxCell id="DKMUyEjhH1U7fZ-NHW1T-20" value="&lt;b&gt;Partielle Integration&lt;br&gt;&lt;/b&gt;" style="text;html=1;align=center;verticalAlign=middle;whiteSpace=wrap;rounded=1;fillColor=#2E2E2E;fontColor=#ffffff;strokeColor=none;fillStyle=solid;glass=0;shadow=0;" parent="1" vertex="1">
          <mxGeometry x="700" y="117" width="270" height="36" as="geometry" />
        </mxCell>
        <mxCell id="DKMUyEjhH1U7fZ-NHW1T-22" value="&lt;b&gt;Substitution&lt;/b&gt;" style="text;html=1;align=center;verticalAlign=middle;whiteSpace=wrap;rounded=1;fillColor=#2E2E2E;fontColor=#ffffff;strokeColor=none;fillStyle=solid;glass=0;shadow=0;" parent="1" vertex="1">
          <mxGeometry x="700" y="158" width="270" height="36" as="geometry" />
        </mxCell>
        <mxCell id="DKMUyEjhH1U7fZ-NHW1T-30" value="&lt;font size=&quot;1&quot;&gt;&lt;b style=&quot;font-size: 18px;&quot;&gt;Mathe&lt;/b&gt;&lt;/font&gt;" style="text;html=1;align=center;verticalAlign=middle;whiteSpace=wrap;rounded=0;fontColor=#B3B3B3;" parent="1" vertex="1">
          <mxGeometry x="800" y="-231" width="70" height="33" as="geometry" />
        </mxCell>
        <mxCell id="DKMUyEjhH1U7fZ-NHW1T-31" value="&lt;b&gt;Binomische-Formeln&lt;/b&gt;" style="text;html=1;align=center;verticalAlign=middle;whiteSpace=wrap;rounded=1;fillColor=#2E2E2E;fontColor=#ffffff;strokeColor=none;fillStyle=solid;glass=0;shadow=0;" parent="1" vertex="1">
          <mxGeometry x="700" y="-84" width="270" height="37" as="geometry" />
        </mxCell>
        <mxCell id="DKMUyEjhH1U7fZ-NHW1T-32" value="&lt;b&gt;PQ-Formel&lt;br&gt;&lt;/b&gt;" style="text;html=1;align=center;verticalAlign=middle;whiteSpace=wrap;rounded=1;fillColor=#2E2E2E;fontColor=#ffffff;strokeColor=none;fillStyle=solid;glass=0;shadow=0;" parent="1" vertex="1">
          <mxGeometry x="700" y="-125" width="270" height="37" as="geometry" />
        </mxCell>
        <mxCell id="2k32uV8gvkNG_dujbK50-1" value="" style="verticalLabelPosition=bottom;verticalAlign=top;html=1;shadow=0;dashed=0;strokeWidth=1;shape=mxgraph.android.phone2;aspect=fixed;strokeColor=#4D4D4D;" parent="1" vertex="1">
          <mxGeometry x="1230" y="-300" width="310" height="604.49" as="geometry" />
        </mxCell>
        <mxCell id="2k32uV8gvkNG_dujbK50-11" value="&lt;b&gt;Summenregel&lt;/b&gt;" style="text;html=1;align=center;verticalAlign=middle;whiteSpace=wrap;rounded=0;fontColor=#B3B3B3;fontSize=14;" parent="1" vertex="1">
          <mxGeometry x="1323.25" y="-240" width="124.5" height="25" as="geometry" />
        </mxCell>
        <mxCell id="2k32uV8gvkNG_dujbK50-28" value="" style="shape=flexArrow;endArrow=classic;html=1;rounded=0;strokeColor=none;fillColor=#20EFC0;" parent="1" edge="1">
          <mxGeometry width="50" height="50" relative="1" as="geometry">
            <mxPoint x="1010" y="-10" as="sourcePoint" />
            <mxPoint x="1210" y="-20" as="targetPoint" />
          </mxGeometry>
        </mxCell>
        <mxCell id="2k32uV8gvkNG_dujbK50-30" value="&lt;font style=&quot;font-size: 19px;&quot;&gt;f(x)=g(x)+h(x) -&amp;gt; f&#39;(x)=g&#39;(x)+h&#39;(x)&lt;br&gt;&lt;/font&gt;" style="rounded=1;whiteSpace=wrap;html=1;glass=0;shadow=0;opacity=70;strokeColor=none;align=center;fillColor=#212121;" parent="1" vertex="1">
          <mxGeometry x="1244" y="-210" width="283" height="462" as="geometry" />
        </mxCell>
        <mxCell id="rAf7qEWdgSRua1nQ2aBs-49" value="" style="verticalLabelPosition=bottom;verticalAlign=top;html=1;shadow=0;dashed=0;strokeWidth=1;shape=mxgraph.android.phone2;aspect=fixed;strokeColor=#4D4D4D;" parent="1" vertex="1">
          <mxGeometry x="680" y="-290" width="310" height="604.49" as="geometry" />
        </mxCell>
        <mxCell id="vUPCzsdub4p--6b-seMU-2" value="&lt;div align=&quot;left&quot;&gt;&lt;font color=&quot;#919191&quot;&gt;Search...&lt;/font&gt;&lt;/div&gt;" style="rounded=1;whiteSpace=wrap;html=1;strokeColor=none;opacity=40;align=left;fillColor=#2E2E2E;spacingLeft=10;" parent="1" vertex="1">
          <mxGeometry x="700" y="-197.75" width="240" height="31.75" as="geometry" />
        </mxCell>
        <mxCell id="vUPCzsdub4p--6b-seMU-4" value="Sort by" style="rounded=0;whiteSpace=wrap;html=1;fontColor=#20EFC0;opacity=0;" parent="1" vertex="1">
          <mxGeometry x="900" y="-153.25" width="60" height="10" as="geometry" />
        </mxCell>
        <mxCell id="vUPCzsdub4p--6b-seMU-5" value="" style="endArrow=classic;html=1;rounded=0;strokeColor=#20EFC0;" parent="1" edge="1">
          <mxGeometry width="50" height="50" relative="1" as="geometry">
            <mxPoint x="960" y="-155.75" as="sourcePoint" />
            <mxPoint x="960" y="-140.75" as="targetPoint" />
          </mxGeometry>
        </mxCell>
        <mxCell id="2k32uV8gvkNG_dujbK50-27" value="" style="shape=image;html=1;verticalAlign=top;verticalLabelPosition=bottom;labelBackgroundColor=#ffffff;imageAspect=0;aspect=fixed;image=https://cdn1.iconfinder.com/data/icons/hawcons/32/699552-icon-27-one-finger-click-128.png;rotation=-45;" parent="1" vertex="1">
          <mxGeometry x="915" y="-43" width="55" height="55" as="geometry" />
        </mxCell>
        <mxCell id="vUPCzsdub4p--6b-seMU-7" value="" style="shape=umlDestroy;whiteSpace=wrap;html=1;strokeWidth=3;targetShapes=umlLifeline;strokeColor=#20EFC0;" parent="1" vertex="1">
          <mxGeometry x="1500" y="-234.5" width="20" height="19.5" as="geometry" />
        </mxCell>
        <mxCell id="A6gyDAT7pxZeLX8gP1Op-9" value="" style="shape=image;html=1;verticalAlign=top;verticalLabelPosition=bottom;labelBackgroundColor=#ffffff;imageAspect=0;aspect=fixed;image=https://cdn2.iconfinder.com/data/icons/css-vol-1/24/color-bucket-128.png" parent="1" vertex="1">
          <mxGeometry x="1302" y="-200.38" width="33.87" height="33.87" as="geometry" />
        </mxCell>
        <mxCell id="A6gyDAT7pxZeLX8gP1Op-10" value="" style="shape=image;html=1;verticalAlign=top;verticalLabelPosition=bottom;labelBackgroundColor=#ffffff;imageAspect=0;aspect=fixed;image=https://cdn2.iconfinder.com/data/icons/font-awesome/1792/font-128.png" parent="1" vertex="1">
          <mxGeometry x="1260" y="-200.38" width="33.87" height="33.87" as="geometry" />
        </mxCell>
        <mxCell id="A6gyDAT7pxZeLX8gP1Op-11" value="" style="fillColor=#009271;strokeColor=none;whiteSpace=wrap;html=1;" parent="1" vertex="1">
          <mxGeometry x="1348" y="-196.95" width="28" height="28" as="geometry" />
        </mxCell>
        <mxCell id="A6gyDAT7pxZeLX8gP1Op-12" value="" style="shape=image;html=1;verticalAlign=top;verticalLabelPosition=bottom;labelBackgroundColor=#ffffff;imageAspect=0;aspect=fixed;image=https://cdn0.iconfinder.com/data/icons/evericons-24px-vol-1/24/text-bold-128.png" parent="1" vertex="1">
          <mxGeometry x="1384" y="-199.94999999999996" width="34" height="34" as="geometry" />
        </mxCell>
        <mxCell id="A6gyDAT7pxZeLX8gP1Op-13" value="" style="shape=image;html=1;verticalAlign=top;verticalLabelPosition=bottom;labelBackgroundColor=#ffffff;imageAspect=0;aspect=fixed;image=https://cdn0.iconfinder.com/data/icons/phosphor-regular-vol-1/256/arrow-fat-down-128.png" parent="1" vertex="1">
          <mxGeometry x="1419" y="-201.39" width="36.87" height="36.87" as="geometry" />
        </mxCell>
        <mxCell id="A6gyDAT7pxZeLX8gP1Op-15" value="" style="shape=image;html=1;verticalAlign=top;verticalLabelPosition=bottom;labelBackgroundColor=#ffffff;imageAspect=0;aspect=fixed;image=https://cdn0.iconfinder.com/data/icons/phosphor-regular-vol-1/256/arrow-fat-down-128.png;flipH=0;flipV=1;" parent="1" vertex="1">
          <mxGeometry x="1460" y="-201.39000000000001" width="36.87" height="36.87" as="geometry" />
        </mxCell>
        <mxCell id="A6gyDAT7pxZeLX8gP1Op-16" value="" style="shape=umlDestroy;whiteSpace=wrap;html=1;strokeWidth=3;targetShapes=umlLifeline;strokeColor=#20EFC0;rotation=45;fillColor=default;" parent="1" vertex="1">
          <mxGeometry x="950" y="-191.62" width="20" height="19.5" as="geometry" />
        </mxCell>
        <mxCell id="A6gyDAT7pxZeLX8gP1Op-17" value="&lt;font style=&quot;font-size: 18px;&quot;&gt;&lt;b&gt;3.&lt;/b&gt;&lt;/font&gt;" style="ellipse;whiteSpace=wrap;html=1;aspect=fixed;" parent="1" vertex="1">
          <mxGeometry x="1140" y="-310" width="40" height="40" as="geometry" />
        </mxCell>
        <mxCell id="ZkLQMou6nUuBDXhgaMHg-1" value="&lt;div align=&quot;right&quot;&gt;&lt;br&gt;&lt;/div&gt;" style="rounded=1;whiteSpace=wrap;html=1;fillColor=none;strokeColor=#20EFC0;strokeWidth=1;perimeterSpacing=0;align=right;" parent="1" vertex="1">
          <mxGeometry x="870" y="210" width="90" height="40" as="geometry" />
        </mxCell>
        <mxCell id="ZkLQMou6nUuBDXhgaMHg-2" value="" style="shape=image;verticalLabelPosition=bottom;verticalAlign=top;imageAspect=0;aspect=fixed;image=data:image/svg+xml,PHN2ZyB4bWw6c3BhY2U9InByZXNlcnZlIiB2aWV3Qm94PSIwIDAgMTAwIDEwMCIgaGVpZ2h0PSI4MDBweCIgd2lkdGg9IjgwMHB4IiB4bWxucz0iaHR0cDovL3d3dy53My5vcmcvMjAwMC9zdmciIGZpbGw9IiMyMEVGQzAiPiYjeGE7PHBhdGggZD0iTTc5LjQsNzIuOWwtMTIsNi44Yy0wLjYsMC40LTEuNSwwLjQtMi4xLDBsLTExLjktNi44Yy0wLjUtMC4zLTAuNS0wLjksMC0xLjFsMi44LTEuNmMwLjItMC4xLDAuNC0wLjEsMC42LDAmI3hBOyYjOTtsNy4zLDQuMWMwLjcsMC40LDEuNSwwLjYsMi4zLDAuNnMxLjYtMC4yLDIuMy0wLjZsNy4zLTQuMWMwLjItMC4xLDAuNC0wLjEsMC42LDBsMi44LDEuNkM3OS45LDcyLDc5LjksNzIuNiw3OS40LDcyLjl6IE03OS40LDY1LjImI3hBOyYjOTtsLTEyLDYuOGMtMC42LDAuNC0xLjUsMC40LTIuMSwwbC0xMS45LTYuOGMtMC41LTAuMy0wLjUtMC45LDAtMS4xbDIuOC0xLjZjMC4yLTAuMSwwLjQtMC4xLDAuNiwwbDcuMyw0LjFjMC43LDAuNCwxLjUsMC42LDIuMywwLjYmI3hBOyYjOTtzMS42LTAuMiwyLjMtMC42bDcuMy00LjFjMC4yLTAuMSwwLjQtMC4xLDAuNiwwbDIuOCwxLjZDNzkuOSw2NC4zLDc5LjksNjQuOSw3OS40LDY1LjJ6IE02NS40LDY0LjRsLTEyLTYuOGMtMC41LTAuMy0wLjUtMC45LDAtMS4xJiN4QTsmIzk7bDEyLTYuOGMwLjYtMC40LDEuNS0wLjQsMi4xLDBsMTIsNi44YzAuNSwwLjMsMC41LDAuOSwwLDEuMWwtMTIsNi44QzY2LjksNjQuNyw2Niw2NC43LDY1LjQsNjQuNHoiLz4mI3hhOzxwYXRoIGQ9Ik01MS45LDYwLjVjMC41LTAuMywwLjUtMC45LDAtMS4xbC0yLjgtMS42YzAsMC0wLjEsMC0wLjEsMHYtMS4zYzAsMCwwLTEuNywxLjUtMi42YzAuNC0wLjIsMS4yLTAuNiwyLjEtMS4xJiN4QTsmIzk7Yy0wLjQtMC4yLTAuOC0wLjQtMS4yLTAuNWMtMS44LTAuOS00LjQtMS44LTUuMi00LjFjLTAuNS0xLjItMC4yLTIuNSwwLjQtMy42YzEuMS0xLjEsMi4xLTIuMSwzLTMuNWMwLjItMC40LDAuNC0wLjYsMC42LTEmI3hBOyYjOTtjMi41LTMuNiwyLjgtOC41LDEuNC0xMi42Yy0xLjUtNC40LTUuNC03LjQtMTAuMi03LjVoLTAuN2MtNC44LDAuMS04LjgsMy4xLTEwLjIsNy41Yy0xLjUsNC4yLTEuMSw5LDEuNCwxMi42JiN4QTsmIzk7YzAuMSwwLjQsMC40LDAuNiwwLjYsMWMwLjksMS40LDIsMi4zLDMsMy41YzAuNSwxLjEsMC43LDIuMywwLjQsMy42Yy0wLjcsMi4yLTMuMywzLjItNS4yLDQuMWMtNC4yLDEuOC05LjQsNC40LTEwLjIsOS41JiN4QTsmIzk7Yy0wLjksNC4yLDIsOC40LDYuNCw4LjRINDlsMi45LTEuOWMwLjUtMC4zLDAuNS0wLjksMC0xLjFsLTIuOC0xLjZjMCwwLTAuMSwwLTAuMSwwdi0zLjJMNTEuOSw2MC41eiIvPiYjeGE7PC9zdmc+;" parent="1" vertex="1">
          <mxGeometry x="875" y="215" width="30" height="30" as="geometry" />
        </mxCell>
        <mxCell id="ZkLQMou6nUuBDXhgaMHg-3" value="&lt;font style=&quot;font-size: 8px;&quot; color=&quot;#20efc0&quot;&gt;Start Learning&lt;/font&gt;" style="rounded=1;whiteSpace=wrap;html=1;fillColor=none;strokeColor=none;fontSize=8;" parent="1" vertex="1">
          <mxGeometry x="900" y="216.5" width="60" height="27" as="geometry" />
        </mxCell>
        <mxCell id="xwA8EKN7uyYmZK28giJb-1" value="&lt;b style=&quot;font-size: 10px;&quot;&gt;Mathe&lt;/b&gt;" style="text;html=1;align=center;verticalAlign=middle;whiteSpace=wrap;rounded=0;fontColor=#6E6E6E;fontSize=10;" vertex="1" parent="1">
          <mxGeometry x="1250" y="-235" width="34.5" height="20" as="geometry" />
        </mxCell>
      </root>
    </mxGraphModel>
  </diagram>
</mxfile>
